<?xml version="1.0" encoding="UTF-8" standalone="no"?>
<!-- Created with Inkscape (http://www.inkscape.org/) -->

<svg
   width="86mm"
   height="105mm"
   viewBox="0 0 86 105"
   version="1.1"
   id="svg1357"
   inkscape:version="1.3.2 (091e20ef0f, 2023-11-25, custom)"
   sodipodi:docname="LogoSVGwhite.svg"
   xmlns:inkscape="http://www.inkscape.org/namespaces/inkscape"
   xmlns:sodipodi="http://sodipodi.sourceforge.net/DTD/sodipodi-0.dtd"
   xmlns="http://www.w3.org/2000/svg"
   xmlns:svg="http://www.w3.org/2000/svg">
  <sodipodi:namedview
     id="namedview1359"
     pagecolor="#505050"
     bordercolor="#eeeeee"
     borderopacity="1"
     inkscape:showpageshadow="0"
     inkscape:pageopacity="0"
     inkscape:pagecheckerboard="0"
     inkscape:deskcolor="#505050"
     inkscape:document-units="mm"
     showgrid="false"
     inkscape:zoom="0.78111095"
     inkscape:cx="420.55485"
     inkscape:cy="212.51782"
     inkscape:window-width="1921"
     inkscape:window-height="1022"
     inkscape:window-x="0"
     inkscape:window-y="0"
     inkscape:window-maximized="1"
     inkscape:current-layer="layer1" />
  <defs
     id="defs1354" />
  <g
     inkscape:label="Capa 1"
     inkscape:groupmode="layer"
     id="layer1">
    <g
       id="g95"
       transform="matrix(0.97229028,0,0,0.97229028,-123.16867,-360.97234)"
       inkscape:export-filename="M8S/Stamp.png"
       inkscape:export-xdpi="150"
       inkscape:export-ydpi="150">
      <path
         style="fill:#1a1a1a;fill-opacity:1;stroke-width:0.154179"
         d="m 148.03086,452.31958 c -0.52861,-0.0277 -1.00975,-0.0993 -1.06919,-0.1592 -0.0594,-0.0598 -0.25003,-0.0419 -0.42352,0.0399 -0.17349,0.0817 -0.48817,0.0766 -0.69931,-0.0115 -0.2111,-0.088 -0.43705,-0.13498 -0.50207,-0.10433 -0.41889,0.19734 -2.99548,-1.35066 -3.29051,-1.9769 -0.0858,-0.18222 -0.34206,-0.44546 -0.56935,-0.58495 -0.28435,-0.17451 -0.62695,-0.64785 -1.09828,-1.51728 -0.66073,-1.21884 -0.67184,-1.25894 -0.31407,-1.13014 0.23363,0.0841 0.6065,0.49035 1.00731,1.09748 0.34999,0.53016 0.76923,1.02239 0.93164,1.09387 0.16238,0.0715 0.37026,0.28917 0.46192,0.48373 0.0917,0.19459 0.36738,0.45422 0.61269,0.57699 0.24532,0.12276 0.48739,0.30667 0.53794,0.40867 0.20062,0.40482 2.20369,0.99375 3.0117,0.88549 0.1543,-0.0207 0.30342,0.011 0.33134,0.0702 0.0279,0.0593 0.37251,0.0581 0.76573,-0.003 0.39324,-0.0607 0.73495,-0.0679 0.75942,-0.016 0.0802,0.17032 1.27953,-0.32446 1.85506,-0.7653 0.79677,-0.61033 1.69875,-1.75155 2.08572,-2.63895 0.18171,-0.41669 0.63194,-1.38392 1.00055,-2.14939 0.36862,-0.76549 0.60861,-1.45376 0.53333,-1.52949 -0.15883,-0.15986 -0.77509,0.17855 -0.74947,0.41156 0.01,0.0865 -0.0905,0.20806 -0.22223,0.27011 -0.30244,0.1425 -0.84188,0.78075 -0.77788,0.92037 0.0271,0.0575 -0.0773,0.16425 -0.23075,0.23652 -0.15344,0.0723 -0.24938,0.1942 -0.21324,0.27091 0.0361,0.0767 -0.0912,0.21339 -0.28299,0.30374 -0.19178,0.0903 -0.31913,0.22703 -0.28299,0.30376 0.0392,0.0832 -0.46893,0.39136 -1.2593,0.7637 -0.79037,0.37234 -1.35153,0.56794 -1.39073,0.48475 -0.0361,-0.0767 -0.2226,-0.0656 -0.4144,0.0248 -0.19176,0.0904 -0.37824,0.1015 -0.4144,0.0248 -0.0361,-0.0767 -0.25399,-0.0508 -0.4841,0.0577 -0.23015,0.10842 -0.44112,0.15028 -0.46881,0.093 -0.0616,-0.12705 -0.89243,-0.13347 -1.15683,-0.009 -0.10528,0.0496 -0.31098,0.0506 -0.45719,0.003 -0.55113,-0.18205 -1.09167,-0.29531 -1.19165,-0.24971 -0.0573,0.0253 -0.35414,-0.0776 -0.66037,-0.23018 -0.30624,-0.15259 -0.6513,-0.31528 -0.76685,-0.36151 -0.29289,-0.11728 -0.96907,-0.78164 -1.45253,-1.42718 -0.22389,-0.29898 -0.66866,-0.77027 -0.98837,-1.04731 -0.31967,-0.27705 -0.70878,-0.77446 -0.86468,-1.10539 -0.1559,-0.33093 -0.36449,-0.61089 -0.46353,-0.62217 -0.25601,-0.0291 -0.51918,-0.66356 -0.59137,-1.42571 -0.034,-0.35891 -0.15625,-0.86009 -0.2716,-1.11369 -0.11537,-0.25359 -0.18812,-0.64113 -0.16171,-0.86118 0.0264,-0.22007 -0.0242,-0.66472 -0.11235,-0.98815 -0.0882,-0.32343 -0.11298,-0.71989 -0.0551,-0.881 0.058,-0.16113 0.0334,-0.44561 -0.0545,-0.63217 -0.0879,-0.1866 -0.14462,-0.63259 -0.12605,-0.99113 0.0186,-0.35852 -0.005,-0.73389 -0.0521,-0.83411 -0.0472,-0.10025 -0.0238,-0.37612 0.0521,-0.61307 0.17677,-0.55238 -0.093,-1.12307 -0.59602,-1.26119 -0.21655,-0.0594 -0.44192,-0.0853 -0.50081,-0.0576 -0.0589,0.0277 -0.25671,-0.0325 -0.43956,-0.13379 -0.18285,-0.10133 -0.39294,-0.15575 -0.46681,-0.12095 -1.75527,-0.28969 -3.29268,-1.32415 -4.42284,-2.66476 -0.73752,-0.9277 -1.81302,-3.93572 -1.7648,-4.93585 0.0147,-0.30696 -0.0744,-0.77324 -0.19828,-1.03612 -0.12385,-0.26291 -0.17084,-0.59412 -0.10442,-0.73603 0.0664,-0.14192 0.046,-0.52515 -0.0454,-0.85165 -0.0914,-0.32649 -0.1114,-0.61943 -0.0445,-0.65094 0.0669,-0.0315 0.0786,-0.34379 0.026,-0.69393 -0.0526,-0.35016 -0.0478,-0.6592 0.0106,-0.68673 0.0585,-0.0275 0.0641,-0.24112 0.0125,-0.47457 -0.0516,-0.23348 0.009,-1.16306 0.13405,-2.06573 0.33881,-2.4403 0.53327,-3.16816 1.04926,-3.92732 0.16759,-0.24657 0.28152,-0.49753 0.25318,-0.5577 -0.0283,-0.0602 0.0426,-0.15376 0.15765,-0.20797 0.11507,-0.0542 0.18516,-0.14961 0.15579,-0.21201 -0.0294,-0.0624 0.1256,-0.30313 0.34448,-0.53496 0.21886,-0.23182 0.38109,-0.45726 0.36052,-0.50092 -0.0205,-0.0437 0.10229,-0.24069 0.27302,-0.4378 0.17075,-0.1971 0.386,-0.54733 0.4784,-0.77825 0.0924,-0.23094 0.23332,-0.45069 0.31322,-0.48834 0.0799,-0.0377 0.11577,-0.13121 0.0796,-0.20792 -0.0361,-0.0767 0.0232,-0.18136 0.13191,-0.23257 0.10868,-0.0512 0.18808,-0.17284 0.17648,-0.27034 -0.0115,-0.0975 0.26576,-0.35412 0.61633,-0.57028 l 0.63744,-0.39302 -0.15156,0.80275 c -0.20261,1.0728 0.036,1.18634 1.23667,0.58852 0.59403,-0.2957 0.95959,-0.40305 1.08815,-0.31938 0.1252,0.0815 0.49214,-0.0199 1.03903,-0.28708 0.465,-0.22724 0.87341,-0.35383 0.90749,-0.28145 0.0341,0.0724 0.25029,0.0429 0.48042,-0.0655 0.33455,-0.15761 0.39025,-0.25695 0.27784,-0.49558 -0.0773,-0.16416 -0.28973,-0.33007 -0.472,-0.36873 -0.31174,-0.0661 -0.31545,-0.0781 -0.0629,-0.20222 0.14976,-0.0736 0.73735,0.0538 1.32874,0.28807 1.18143,0.468 1.26975,0.43387 1.72249,-0.66575 0.15562,-0.37796 0.35332,-0.72034 0.4393,-0.76085 0.086,-0.0405 0.35085,-0.58224 0.58856,-1.20381 0.23768,-0.62157 0.63494,-1.513 0.88279,-1.98092 0.24784,-0.46794 0.599,-1.13678 0.78038,-1.48629 0.18134,-0.34952 0.36904,-0.65401 0.41704,-0.67662 0.0481,-0.0226 0.30698,-0.4994 0.57542,-1.05948 0.26844,-0.56007 0.5666,-1.09648 0.66257,-1.19202 0.0959,-0.0955 0.2805,-0.35558 0.41012,-0.5779 0.57659,-0.98896 1.04582,-1.50749 1.60075,-1.76893 0.55463,-0.26129 0.62486,-0.25033 1.21126,0.18877 0.57313,0.4292 0.61305,0.49247 0.50332,0.79765 -0.0656,0.18234 -0.0917,0.38979 -0.0582,0.46102 0.0336,0.0712 -0.005,0.16042 -0.0848,0.1982 -0.0802,0.0378 -0.22565,0.27888 -0.32325,0.53576 -0.50467,1.32836 -1.21954,2.59994 -1.74581,3.10522 -0.11293,0.10844 -0.1803,0.25035 -0.14967,0.31535 0.0306,0.065 -0.0942,0.37179 -0.27733,0.68178 -0.18318,0.30996 -0.47267,0.90929 -0.64337,1.33181 -0.17071,0.42255 -0.34898,0.78644 -0.39616,0.80868 -0.0472,0.0222 -0.12899,0.16063 -0.18182,0.30758 -0.0529,0.14698 -0.26049,0.6091 -0.46143,1.02694 -0.20094,0.41786 -0.41068,0.87695 -0.4661,1.02023 -0.0554,0.14328 -0.13586,0.27704 -0.17883,0.2973 -0.11507,0.0542 -0.41779,0.70503 -0.7458,1.60339 -0.38641,1.05842 -0.0552,1.49106 0.59535,0.77759 0.1289,-0.14135 0.24922,-0.11913 0.41392,0.0782 0.12761,0.15275 0.19591,0.33582 0.15173,0.40684 -0.2489,0.40035 -0.0957,1.77829 0.32485,2.92083 0.27294,0.74157 0.45998,1.55742 0.46844,2.043 0.0164,0.94142 0.38993,1.69719 0.78803,1.59424 0.17769,-0.046 0.25031,-0.22052 0.21973,-0.52819 -0.0251,-0.25277 -0.0298,-0.58208 -0.0104,-0.7318 0.0571,-0.4417 0.0666,-2.04356 0.0127,-2.16851 -0.1,-0.23251 0.75235,-2.59476 1.12391,-3.11481 0.30356,-0.42486 0.66884,-0.68085 1.75519,-1.23004 0.95843,-0.48451 1.44926,-0.6657 1.62854,-0.6014 0.14116,0.0507 0.40189,0.0237 0.57938,-0.0599 0.17749,-0.0836 0.47693,-0.14799 0.66547,-0.14308 0.18851,0.005 0.4809,0.011 0.64977,0.0136 0.78328,0.0121 1.57542,-0.34443 1.99665,-0.8985 0.37511,-0.49337 0.43813,-0.53053 0.64677,-0.3815 0.32049,0.22898 0.5042,-0.11989 0.23682,-0.44972 -0.16143,-0.19915 -0.14189,-0.5369 0.0744,-1.28776 0.16129,-0.55978 0.26559,-1.07654 0.23179,-1.1483 -0.0338,-0.0718 -0.004,-0.33436 0.0659,-0.58354 0.0701,-0.24919 0.0912,-0.52991 0.0469,-0.62386 -0.0442,-0.0939 -0.0242,-0.29112 0.0447,-0.43818 0.0688,-0.14708 0.0653,-0.49718 -0.008,-0.77805 -0.0732,-0.28085 -0.0807,-0.62241 -0.0169,-0.75905 0.064,-0.13662 0.0518,-0.49599 -0.027,-0.7986 -0.0788,-0.30262 -0.0986,-0.67453 -0.044,-0.82649 0.0546,-0.15197 0.0353,-0.41319 -0.043,-0.58055 -0.0787,-0.16711 -0.12774,-0.54118 -0.10997,-0.83076 0.0177,-0.28958 -0.0421,-0.78194 -0.13301,-1.09411 -0.20192,-0.69313 -0.0132,-0.83907 0.45583,-0.35263 0.1926,0.19965 0.46087,0.40282 0.5962,0.45147 0.33851,0.12171 0.75585,1.05773 0.61028,1.36871 -0.0655,0.13993 -0.081,0.4442 -0.0344,0.67618 0.0466,0.23198 0.0396,0.78817 -0.0156,1.23596 -0.0551,0.44777 -0.13256,1.86475 -0.17206,3.14882 -0.0395,1.28407 -0.10101,2.57849 -0.13665,2.87648 -0.17738,1.48328 -0.23863,1.72929 -0.45637,1.83293 -0.12973,0.0611 -0.24463,0.19312 -0.25591,0.29215 -0.0112,0.0991 -0.26412,0.29488 -0.56191,0.43517 -0.29782,0.14029 -0.54962,0.32689 -0.55962,0.41464 -0.0177,0.15584 -1.00828,0.33467 -1.29088,0.23308 -0.0773,-0.0278 -0.3498,0.048 -0.60553,0.16848 -0.25571,0.12045 -0.49448,0.15625 -0.53064,0.0795 -0.0361,-0.0767 -0.33767,-0.0115 -0.67009,0.14526 -0.33242,0.1566 -0.6651,0.26289 -0.73927,0.23622 -0.0742,-0.0267 -0.50875,0.0955 -0.96568,0.27155 -0.45696,0.17601 -0.87905,0.27188 -0.93799,0.21307 -0.14974,-0.14937 -0.57175,0.0732 -0.93782,0.49453 -0.38012,0.43754 -1.08079,2.15451 -0.97281,2.38377 0.0434,0.092 0.0357,0.37052 -0.0171,0.61893 -0.16809,0.79145 0.0411,2.32587 0.43074,3.15867 0.44796,0.95742 0.45494,1.50252 0.0123,0.9501 -0.63573,-0.79338 -1.07289,-0.59899 -0.82167,0.36535 0.11924,0.45783 0.25333,0.54138 1.87157,1.16453 0.9814,0.37798 1.97014,0.87782 2.26259,1.1438 0.28571,0.25984 0.76121,0.67568 1.05667,0.92409 0.29549,0.24843 0.5461,0.57133 0.5569,0.71762 0.0219,0.29474 -0.28179,0.50554 -0.45879,0.31854 -0.0622,-0.0658 0.32334,0.75371 0.85631,1.82124 0.83079,1.66231 0.99069,2.09242 1.11492,2.99968 0.0798,0.58253 0.23795,1.25625 0.35142,1.49718 0.1135,0.2409 0.17159,0.60326 0.12914,0.80521 -0.0425,0.20199 0.0418,0.62518 0.18739,0.94046 0.18063,0.39138 0.21387,0.69503 0.10464,0.9571 -0.088,0.21114 -0.10788,0.49459 -0.0441,0.62989 0.0638,0.13532 0.0971,0.47829 0.0742,0.76212 -0.0416,0.51402 0.22627,0.9585 0.49992,0.82958 0.0791,-0.0373 0.0404,-0.28744 -0.0861,-0.55593 -0.18618,-0.39518 -0.17684,-0.5132 0.049,-0.61958 0.37206,-0.17529 0.66685,0.43327 0.4195,0.86585 -0.0993,0.17364 -0.15888,0.41349 -0.1324,0.53297 0.0265,0.11948 -0.0154,0.40824 -0.0927,0.64169 -0.0775,0.23347 -0.15024,0.73022 -0.16167,1.1039 -0.0115,0.3737 -0.0597,0.80031 -0.10729,0.94802 -0.0476,0.14771 -0.0622,0.32021 -0.0325,0.38332 0.0297,0.0631 -0.0299,0.38433 -0.13243,0.71379 -0.10256,0.32946 -0.28532,0.959 -0.40613,1.39897 -0.41344,1.50572 -0.71558,2.40385 -0.82869,2.46336 -0.0622,0.0328 -0.1559,0.40281 -0.20816,0.8224 -0.16865,1.35455 -1.38239,5.03364 -1.71182,5.18884 -0.0407,0.0192 -0.14957,0.22383 -0.24197,0.45484 -0.0924,0.23101 -0.27802,0.47183 -0.41243,0.53518 -0.13442,0.0633 -0.25312,0.19149 -0.26373,0.2848 -0.0201,0.17674 -0.56857,0.55081 -1.9394,1.32276 -0.70214,0.39538 -0.9343,0.44851 -1.7693,0.40472 z m 2.14985,-6.26661 c 0.73981,-0.34852 0.9673,-0.52619 1.10059,-0.85936 0.0924,-0.23101 0.23341,-0.45082 0.31333,-0.48847 0.0799,-0.0376 0.11573,-0.13122 0.0796,-0.20793 -0.0362,-0.0767 0.0284,-0.18382 0.1435,-0.23805 0.11505,-0.0542 0.17963,-0.16133 0.14349,-0.23803 -0.0361,-0.0767 0.044,-0.19139 0.17818,-0.25487 0.13425,-0.0632 0.2809,-0.36246 0.32609,-0.66443 0.062,-0.41427 0.18925,-0.59958 0.51817,-0.75492 0.35602,-0.16772 0.50682,-0.43308 0.82147,-1.44233 0.21203,-0.68005 0.43807,-1.57263 0.5023,-1.98353 0.0642,-0.41092 0.19293,-1.18117 0.28597,-1.7117 0.0931,-0.53051 0.1339,-1.14412 0.0907,-1.36354 -0.0432,-0.21947 -0.025,-0.42422 0.0404,-0.45503 0.0654,-0.0308 0.0646,-0.35642 -0.002,-0.7235 -0.0664,-0.36709 -0.0936,-0.77539 -0.0605,-0.90735 0.0332,-0.13193 -0.0596,-0.42053 -0.2061,-0.6413 -0.20869,-0.31437 -0.21817,-0.48008 -0.0435,-0.76456 0.26731,-0.43554 0.0792,-1.34048 -0.31727,-1.52608 -0.36841,-0.17246 -0.56978,-0.0504 -0.77866,0.47172 -0.14775,0.36936 -0.1197,0.52405 0.17099,0.94203 0.3119,0.44849 0.31774,0.51424 0.0566,0.63729 -0.23663,0.11148 -0.25046,0.22367 -0.0738,0.59867 0.11956,0.25384 0.18265,0.62676 0.14018,0.82871 -0.0425,0.20198 -0.0387,0.45417 0.008,0.56043 0.0954,0.21506 0.0336,0.83524 -0.38528,3.8711 -0.30088,2.18089 -0.47112,2.64322 -0.75287,2.04511 -0.0904,-0.19178 -0.0871,-0.42916 0.007,-0.52753 0.0943,-0.0984 0.14066,-0.2441 0.1031,-0.32384 -0.0376,-0.0797 -0.009,-0.56446 0.0641,-1.07716 0.0728,-0.51272 0.0925,-1.12631 0.0437,-1.36356 -0.0488,-0.2373 0.0256,-0.73254 0.16551,-1.10057 0.13982,-0.36804 0.2148,-0.85614 0.1666,-1.08467 -0.0482,-0.22852 -0.0477,-0.53552 0.002,-0.68223 0.0803,-0.24166 -0.0977,-1.56014 -0.25606,-1.8963 -0.0356,-0.0756 -0.28882,-0.0319 -0.56269,0.0971 -0.32507,0.15315 -0.77738,0.18877 -1.30318,0.10264 -0.44289,-0.0725 -0.98305,-0.0482 -1.20033,0.0542 -0.26328,0.12402 -0.54383,0.10744 -0.84102,-0.0497 -0.24527,-0.1297 -0.59608,-0.22519 -0.77954,-0.21219 -0.32044,0.0227 -0.3252,0.0145 -0.12082,-0.2058 0.12002,-0.12942 0.35861,-0.21212 0.54741,-0.18975 0.18406,0.0218 0.42119,0 0.52694,-0.0509 0.10578,-0.0498 0.39727,-0.0438 0.64777,0.0134 0.25052,0.0572 0.86835,0.085 1.37296,0.0618 0.50462,-0.0232 1.04265,0.0177 1.19559,0.0911 0.24799,0.11891 0.29502,0.0863 0.43435,-0.30126 0.28774,-0.80031 -0.62127,-1.29232 -1.56561,-0.84743 -0.17648,0.0831 -0.35047,0.0884 -0.38659,0.0117 -0.0362,-0.0767 -0.18754,-0.0821 -0.33644,-0.0119 -0.14889,0.0702 -0.33907,0.083 -0.42261,0.0287 -0.0836,-0.0544 -0.30773,-0.0254 -0.49822,0.0643 -0.19046,0.0897 -0.54017,0.10109 -0.77712,0.0252 -0.23695,-0.0758 -0.51762,-0.097 -0.6237,-0.047 -0.10611,0.05 -0.33139,0.041 -0.50068,-0.0199 -0.47179,-0.16963 -0.68408,0.0156 -0.62808,0.54788 0.028,0.266 0.0182,0.59652 -0.0216,0.7345 -0.0399,0.13796 -0.0961,0.50059 -0.12493,0.80584 -0.0289,0.30523 -0.18185,0.78542 -0.34005,1.06705 -0.25225,0.44911 -0.31108,0.48962 -0.47837,0.32929 -0.12223,-0.11713 -0.10485,-0.40576 0.0483,-0.8033 0.16221,-0.42101 0.17665,-0.75306 0.0448,-1.03281 -0.12888,-0.27357 -0.12195,-0.50961 0.0205,-0.70143 0.34728,-0.46729 -0.0963,-1.01656 -0.74031,-0.91662 -0.2839,0.0441 -0.53963,0.0303 -0.5683,-0.0305 -0.0286,-0.0608 -0.14625,-0.0663 -0.26132,-0.0121 -0.11506,0.0542 -0.23877,0.0358 -0.27491,-0.0409 -0.0361,-0.0767 -0.15986,-0.0951 -0.27495,-0.0409 -0.11505,0.0542 -0.23876,0.0358 -0.2749,-0.0409 -0.0361,-0.0767 -0.37954,0.008 -0.7631,0.18908 -0.38355,0.18069 -0.66931,0.38811 -0.63498,0.46093 0.10078,0.21393 1.34864,0.56464 1.59656,0.4487 0.12483,-0.0588 0.36231,-0.0431 0.52731,0.0341 0.165,0.0772 0.52698,0.13378 0.80442,0.12568 l 0.50439,-0.0147 -0.45073,0.21899 c -0.24793,0.12037 -0.4803,0.15622 -0.51646,0.0795 -0.0361,-0.0767 -0.24216,-0.0563 -0.45782,0.0453 -0.21566,0.1016 -0.58599,0.12267 -0.82297,0.0468 -0.23694,-0.0758 -0.52759,-0.0923 -0.64588,-0.0366 -0.11827,0.0557 -0.2446,0.0385 -0.28074,-0.0382 -0.0361,-0.0767 -0.15987,-0.0951 -0.27492,-0.0409 -0.11508,0.0542 -0.23879,0.0358 -0.27493,-0.0409 -0.10284,-0.2183 -1.27689,0.39732 -1.35812,0.71211 -0.12689,0.49199 0.47821,1.10902 1.18046,1.20373 0.34802,0.0469 0.6912,0.0578 0.76259,0.0242 0.0714,-0.0336 0.15901,0 0.1947,0.0766 0.0357,0.0758 0.51825,0.2861 1.07236,0.46742 0.89593,0.29317 1.03781,0.39404 1.2815,0.91138 0.15577,0.33063 0.22234,0.69225 0.15422,0.83775 -0.16641,0.3555 -0.36113,0.19022 -0.69223,-0.58755 -0.32072,-0.75341 -0.92766,-1.09173 -1.64128,-0.91493 -0.2358,0.0584 -0.57179,0.0548 -0.74662,-0.008 -0.17481,-0.0629 -0.37104,-0.0935 -0.43604,-0.068 -0.065,0.0255 -0.33803,-0.0636 -0.60674,-0.19783 -0.36741,-0.18354 -0.59932,-0.45884 -0.93544,-1.11028 -0.41081,-0.79616 -0.42786,-0.90818 -0.21594,-1.38325 0.21421,-0.47946 0.25688,-0.5092 0.58651,-0.40893 0.39601,0.12045 1.38066,-0.35596 1.34411,-0.65034 -0.0391,-0.31484 -1.09205,-0.57881 -1.51464,-0.37973 -0.21966,0.10349 -0.42553,0.13271 -0.45746,0.065 -0.0769,-0.16324 -0.62742,-0.0541 -0.90749,0.17989 -0.28472,0.23791 -0.48209,1.64952 -0.26032,1.86204 0.0925,0.0886 0.0814,0.31295 -0.0248,0.49846 -0.29489,0.51564 -0.38976,1.69804 -0.17314,2.15787 0.10657,0.22619 0.14018,0.56027 0.0747,0.74241 -0.0663,0.18445 0.0115,0.72101 0.17535,1.211 0.16191,0.48388 0.25517,0.98889 0.20726,1.1222 -0.10248,0.28495 0.15946,0.89275 0.4697,1.08994 0.14112,0.0897 0.18095,0.23973 0.11352,0.42737 -0.14829,0.41247 1.01738,2.82834 1.65944,3.43919 0.26359,0.25076 0.6577,0.72086 0.87583,1.04465 0.52906,0.78536 1.17926,1.18428 2.86269,1.75625 1.40223,0.47645 1.96946,0.5323 2.77978,0.27372 0.23522,-0.0751 0.48367,-0.11635 0.55212,-0.0917 0.0685,0.0246 0.28831,-0.0766 0.48853,-0.22504 0.20026,-0.14836 0.78378,-0.46746 1.2967,-0.7091 z m 2.43398,-3.80501 c -0.16439,-0.0591 -0.18905,-0.49078 -0.0323,-0.56466 0.0685,-0.0323 0.1837,0.0669 0.25598,0.22029 0.12808,0.27186 0.0233,0.43316 -0.22368,0.34437 z m 1.43146,-12.45034 c 0.10485,-0.29165 0.0387,-0.48591 -0.41263,-1.21166 -0.29561,-0.47539 -0.761,-1.37258 -1.03415,-1.9938 -0.5722,-1.30125 -1.83096,-3.25747 -2.17588,-3.38146 -0.12918,-0.0464 -0.27747,-0.14108 -0.3295,-0.21031 -0.57641,-0.76657 -0.92677,-1.04943 -1.29418,-1.04474 -0.27123,0.003 -0.5537,-0.15724 -0.81214,-0.46199 -0.71344,-0.8414 -1.23751,-0.15744 -0.95284,1.24363 0.0869,0.42774 0.15188,1.05071 0.14443,1.38436 -0.014,0.62926 0.0828,1.08702 0.52611,2.4878 0.27768,0.87726 0.26482,1.01189 -0.22687,2.37943 -0.17246,0.47959 -0.27495,0.9539 -0.22779,1.05402 0.11592,0.24605 1.10617,0.50742 1.39962,0.36944 0.12975,-0.061 0.3043,-0.0664 0.38783,-0.0121 0.0835,0.0543 0.27458,0.041 0.42452,-0.0296 0.14995,-0.0706 0.40729,-0.12525 0.5719,-0.12136 0.16461,0.004 0.70614,0.0173 1.20338,0.0296 0.92224,0.023 1.29767,-0.0628 1.32151,-0.30195 0.007,-0.0738 -0.50833,-1.12823 -1.14605,-2.34323 -1.08046,-2.0587 -1.20077,-2.23405 -1.76746,-2.57594 -1.15534,-0.69704 -1.7201,-1.12121 -1.58045,-1.187 0.27397,-0.12908 1.32219,0.25193 1.97225,0.71686 0.6108,0.43686 0.72144,0.60244 1.48431,2.22181 0.68129,1.44612 0.88645,1.77565 1.18228,1.89898 0.31061,0.12946 0.36505,0.22508 0.41158,0.72252 0.0419,0.44801 0.11123,0.60027 0.3171,0.69661 0.34059,0.15942 0.46039,0.0949 0.61316,-0.33 z m -5.47759,-7.11538 c -0.0698,-0.16565 -0.0524,-0.21426 0.0446,-0.12397 0.0877,0.0817 0.13943,0.20433 0.1149,0.27252 -0.0245,0.0682 -0.0963,0.002 -0.15949,-0.14855 z m -2.69812,6.60141 c -0.31563,-0.66994 -0.49074,-0.88214 -0.84285,-1.02129 -0.30184,-0.11929 -0.46683,-0.29118 -0.51419,-0.5357 -0.0745,-0.38474 0.96687,-3.66051 1.19839,-3.76958 0.076,-0.0358 0.1045,-0.23585 0.0634,-0.44459 -0.0411,-0.20875 0.0319,-0.47838 0.16228,-0.59922 0.33251,-0.3083 0.0871,-0.71509 -0.42743,-0.70852 -0.52969,0.007 -1.23153,0.32213 -1.25926,0.56589 -0.0112,0.099 -0.32691,0.32442 -0.70141,0.50087 -0.3745,0.17644 -0.69014,0.40183 -0.7014,0.50086 -0.0112,0.0991 -0.14233,0.23749 -0.29123,0.30763 -0.14889,0.0702 -0.24114,0.19031 -0.205,0.26702 0.0361,0.0767 -0.14214,0.23738 -0.39618,0.35705 -0.26907,0.12677 -0.53198,0.39292 -0.62987,0.63761 -0.0924,0.231 -0.22154,0.44524 -0.28699,0.47608 -0.0655,0.0308 -0.1983,0.25431 -0.29522,0.4966 -0.0969,0.24229 -0.24441,0.48901 -0.32773,0.54827 -0.44394,0.31567 -0.71215,0.66581 -0.57799,0.83047 0.18121,0.22245 0.23481,0.65939 0.26749,1.29131 0.009,0.16938 -0.24938,0.19417 -0.21326,0.27088 0.0361,0.0767 -0.0636,0.20041 -0.22165,0.27486 -0.24679,0.11629 -0.24644,0.20637 0.003,0.63804 0.28335,0.49165 0.30365,0.49722 0.92961,0.25515 0.38772,-0.14996 0.80534,-0.44118 1.05967,-0.73895 0.41833,-0.48974 0.6815,-0.57709 0.63999,-0.21233 -0.0121,0.10564 -0.17134,0.2625 -0.35406,0.34858 -0.47174,0.22226 -0.44317,0.47204 0.0729,0.63724 0.43048,0.13777 1.56879,-0.22431 1.45854,-0.46394 -0.0849,-0.18447 0.56699,-1.16189 0.87008,-1.30467 0.22074,-0.10398 0.30601,-0.0632 0.34899,0.16719 0.0409,0.2189 -0.0809,0.38433 -0.43186,0.58694 -0.39348,0.22711 -0.46811,0.34895 -0.38286,0.62507 0.13078,0.42358 0.53988,0.63105 0.90503,0.45901 0.15112,-0.0712 0.49402,-0.079 0.76205,-0.0173 0.719,0.16552 0.81037,-0.18503 0.31969,-1.22656 z m -8.21572,3.07081 c -0.0216,-0.27104 0.003,-0.5127 0.0546,-0.53699 0.0516,-0.0243 0.0585,-0.22345 0.0153,-0.44257 -0.0431,-0.21909 0.0343,-0.85209 0.17181,-1.40666 0.3504,-1.41187 1.40977,-4.35691 1.59939,-4.44624 0.13971,-0.0658 1.31466,-1.4069 1.80006,-2.0546 0.0999,-0.13335 0.33577,-0.31504 0.52404,-0.40374 0.18832,-0.0887 0.35159,-0.24234 0.36285,-0.34139 0.0115,-0.10037 0.63009,-0.46727 1.39796,-0.829 1.84124,-0.86744 1.99124,-1.03786 1.70947,-1.94253 -0.12292,-0.39462 -0.1888,-0.8827 -0.14642,-1.08464 0.0424,-0.20194 -0.0143,-0.56085 -0.12572,-0.79763 -0.11155,-0.23676 -0.17105,-0.61461 -0.13223,-0.83967 0.0388,-0.22509 -0.0513,-0.75577 -0.20006,-1.17931 -0.14881,-0.42354 -0.29371,-1.05488 -0.32196,-1.40293 -0.0283,-0.34806 -0.14516,-0.73399 -0.25977,-0.8576 -0.22535,-0.24307 -0.5979,-0.15787 -0.56375,0.12888 0.0291,0.24426 -1.01941,0.75484 -1.18776,0.57843 -0.0743,-0.0778 -0.34946,-0.0405 -0.61159,0.083 -0.26206,0.12348 -0.50608,0.16174 -0.54222,0.085 -0.0361,-0.0767 -0.22262,-0.0656 -0.41438,0.0248 -0.1918,0.0904 -0.37826,0.10152 -0.41442,0.0248 -0.0361,-0.0767 -0.254,-0.0508 -0.48414,0.0577 -0.23013,0.10841 -0.44799,0.13435 -0.48411,0.0576 -0.0362,-0.0767 -0.13067,-0.10889 -0.21006,-0.0715 -0.0794,0.0374 -1.06329,-0.26602 -2.18644,-0.67426 -1.12318,-0.40824 -2.09634,-0.71671 -2.16261,-0.6855 -0.0663,0.0312 -0.41533,-0.18781 -0.77567,-0.48672 -0.51086,-0.42376 -0.72676,-0.50978 -0.98005,-0.39045 -0.17866,0.0842 -0.29527,0.21579 -0.25911,0.29249 0.0361,0.0767 -0.0285,0.18383 -0.14351,0.23806 -0.11509,0.0542 -0.17963,0.16132 -0.14351,0.23803 0.0362,0.0767 -0.0284,0.18382 -0.14352,0.23803 -0.11505,0.0542 -0.17963,0.16133 -0.1435,0.23803 0.0361,0.0767 -0.046,0.19211 -0.18244,0.2564 -0.13651,0.0643 -0.27951,0.28507 -0.3178,0.49057 -0.0383,0.20553 -0.1165,0.39575 -0.1738,0.42275 -0.0573,0.027 -0.38163,0.84907 -0.7208,1.82687 -0.55365,1.59617 -0.59135,1.83161 -0.36872,2.30411 0.23671,0.5025 0.15818,0.76238 -0.16648,0.55108 -0.0836,-0.0544 -0.20556,-0.0736 -0.27109,-0.0427 -0.13777,0.0649 -0.34954,2.33668 -0.26899,2.88524 0.0298,0.20291 0.0322,0.6094 0.005,0.9033 -0.0275,0.30026 0.11432,0.96116 0.32374,1.50855 0.29932,0.78244 0.33453,1.05315 0.17893,1.37541 -0.37874,0.78434 0.59151,3.18766 1.69772,4.20521 0.38265,0.35196 0.7938,0.69512 0.91372,0.76255 0.11991,0.0675 0.44686,0.30091 0.72654,0.51878 0.27973,0.21788 0.77464,0.48323 1.09983,0.58966 0.32523,0.10642 0.74607,0.25482 0.93519,0.32978 0.18914,0.0749 0.50814,0.0589 0.70893,-0.0358 0.254,-0.11967 0.46329,-0.0887 0.68815,0.10187 0.43075,0.36501 0.64087,0.23583 0.59315,-0.36465 z m -1.68721,-1.85324 c -0.37642,-0.15428 -1.033,-0.5544 -1.45905,-0.88913 -0.42603,-0.33473 -0.83354,-0.60641 -0.90555,-0.60376 -0.072,0.003 -0.17168,-0.0816 -0.22152,-0.18739 -0.0498,-0.10573 -0.52828,-0.55158 -1.06324,-0.99073 -0.93518,-0.76769 -1.53886,-1.61039 -1.25083,-1.74608 0.19292,-0.0909 1.33581,0.66028 1.48434,0.97556 0.0675,0.14321 0.3164,0.34599 0.55314,0.4506 0.23678,0.10463 0.48146,0.29846 0.5438,0.43074 0.0623,0.13229 0.23864,0.27289 0.39184,0.3124 0.15321,0.0395 0.40608,0.23734 0.56191,0.43963 0.15583,0.20228 0.39335,0.41104 0.52778,0.46391 0.45181,0.17775 1.50711,0.86129 1.75022,1.13368 0.3783,0.42389 -0.11477,0.53767 -0.91284,0.21057 z m 5.80166,-17.72474 c 0.20118,-0.42285 0.42106,-0.79486 0.4886,-0.82668 0.0675,-0.0319 0.15923,-0.37966 0.20369,-0.77292 0.0445,-0.39331 0.2355,-0.90663 0.42451,-1.14078 0.18901,-0.23412 0.39007,-0.62132 0.44678,-0.86048 0.0567,-0.23913 0.19917,-0.60067 0.31656,-0.80343 0.11738,-0.20275 0.34718,-0.69178 0.51062,-1.08673 0.16344,-0.39495 0.50937,-1.1631 0.76867,-1.70701 0.25932,-0.54389 0.47023,-1.04584 0.46869,-1.11542 -0.002,-0.0696 0.0647,-0.15828 0.14704,-0.19709 0.0824,-0.0388 0.35509,-0.46396 0.60592,-0.94476 0.25085,-0.48078 0.76136,-1.36826 1.13444,-1.97215 0.83055,-1.34434 1.07634,-2.04266 0.80917,-2.29872 -0.24017,-0.23016 -0.72801,0.12134 -1.10835,0.79854 -0.13844,0.24644 -0.28837,0.46536 -0.33319,0.48648 -0.0722,0.034 -0.21225,0.2979 -0.54268,1.02261 -0.0544,0.11937 -0.16853,0.32652 -0.25358,0.46033 -0.0851,0.13379 -0.4142,0.71068 -0.73151,1.282 -0.31729,0.57129 -0.64468,1.14734 -0.72754,1.28011 -0.17933,0.28738 -0.58774,1.16459 -0.81317,1.74654 -0.30445,0.78591 -1.03551,2.27737 -1.14056,2.32684 -0.13498,0.0636 -0.52532,1.22537 -0.45901,1.36612 0.0277,0.0587 -0.11176,0.29183 -0.30983,0.51808 -0.19804,0.22628 -0.40761,0.57382 -0.46569,0.77232 -0.0581,0.19848 -0.2081,0.40917 -0.33335,0.46818 -0.12525,0.059 -0.19815,0.17003 -0.16199,0.24674 0.0361,0.0767 -0.006,0.17302 -0.0925,0.21398 -0.25329,0.11933 -0.46973,1.12423 -0.31362,1.45609 0.13306,0.2828 0.37989,0.31748 0.8936,0.12566 0.11136,-0.0416 0.36707,-0.4216 0.56823,-0.84445 z m -2.51266,33.55146 c -0.0699,-0.16563 -0.0524,-0.21426 0.0446,-0.12396 0.0877,0.0817 0.13944,0.20434 0.1149,0.27251 -0.0245,0.0682 -0.0963,0.002 -0.15946,-0.14855 z m -2.31735,-1.77702 c -0.26864,-0.25744 -0.45452,-0.9604 -0.29395,-1.11224 0.21778,-0.20593 0.77913,0.39045 0.75791,0.80522 -0.0203,0.39789 -0.22669,0.53442 -0.46396,0.30702 z m 19.24102,-10.96766 c -0.32955,-0.31579 -0.44754,-0.71258 -0.24087,-0.80995 0.23998,-0.11306 0.60091,0.24123 0.62873,0.61716 0.0253,0.3421 -0.14417,0.42633 -0.38786,0.19277 z m 0.035,-1.39438 c -0.21813,-0.0784 -0.446,-0.66774 -0.32819,-0.84875 0.17445,-0.26803 0.5279,-0.0435 0.61314,0.38958 0.0781,0.39694 -0.0197,0.55453 -0.28495,0.45917 z m -0.26624,-1.77105 c -0.29079,-0.61722 -0.16431,-1.22286 0.17799,-0.85223 0.25856,0.28001 0.40225,1.0993 0.22283,1.27054 -0.0933,0.089 -0.22815,-0.0518 -0.40082,-0.41831 z m 0.005,-1.6825 c -0.21037,-0.0756 -2.30566,-4.59739 -2.16178,-4.66516 0.23898,-0.11259 0.50812,0.31631 1.43059,2.27992 0.86643,1.84421 1.06953,2.50686 0.73119,2.38524 z m -19.51061,-19.09988 c -0.4313,-0.0201 -0.83418,-0.0885 -0.8953,-0.15184 -0.0647,-0.0672 0.2419,-0.28154 0.73471,-0.51371 0.78064,-0.36778 0.86479,-0.37535 1.09191,-0.098 0.27715,0.33845 0.2889,0.65179 0.0278,0.74064 -0.0962,0.0327 -0.52783,0.0431 -0.95914,0.0229 z"
         id="path3"
         sodipodi:nodetypes="cssscssssssssscsccsssssscssssssssscsccscssssssssssscsssssscsssscsscssssssssssscscscscsssssssssssssssssssccsssssssssssccssssccssssccssssssssccsscsscssscsscsssssscssssscssscsssscsssssssssssscsssssscssssscccssssscscssssscsscssssssssssscscscsssssssscsscsssssssscscssssscsssssssscssccsssssssssscssssssssscsssssscssssssssssssccsssscssscssssssssssscscssssssscccsscsssssscssssssssscscssssscsssssssscssssscsssscsscsssssssssssssssssssssssssssssssssssssssssssscsssssssscsssssssssscssssssssssssssssscssscsscsssssssssssssssssssssssssss" />
      <text
         xml:space="preserve"
         style="font-style:normal;font-variant:normal;font-weight:900;font-stretch:normal;font-size:24.367px;line-height:0.9;font-family:'NEXT ART';-inkscape-font-specification:'NEXT ART, Heavy';font-variant-ligatures:normal;font-variant-caps:normal;font-variant-numeric:normal;font-variant-east-asian:normal;text-align:start;text-anchor:start;fill:#d5cdbc;fill-opacity:1;stroke-width:0.670003"
         x="162.45183"
         y="425.0849"
         id="text28"><tspan
           sodipodi:role="line"
           style="font-style:normal;font-variant:normal;font-weight:900;font-stretch:normal;font-size:24.367px;font-family:'NEXT ART';-inkscape-font-specification:'NEXT ART, Heavy';font-variant-ligatures:normal;font-variant-caps:normal;font-variant-numeric:normal;font-variant-east-asian:normal;text-align:start;text-anchor:start;fill:#d5cdbc;fill-opacity:1;stroke-width:0.670003"
           x="162.45183"
           y="425.0849"
           id="tspan27">M8S</tspan><tspan
           sodipodi:role="line"
           style="font-style:normal;font-variant:normal;font-weight:900;font-stretch:normal;font-size:24.367px;font-family:'NEXT ART';-inkscape-font-specification:'NEXT ART, Heavy';font-variant-ligatures:normal;font-variant-caps:normal;font-variant-numeric:normal;font-variant-east-asian:normal;text-align:start;text-anchor:start;fill:#d5cdbc;fill-opacity:1;stroke-width:0.670003"
           x="162.45183"
           y="447.0152"
           id="tspan28" /></text>
      <text
         xml:space="preserve"
         style="font-style:normal;font-variant:normal;font-weight:900;font-stretch:normal;font-size:13.3394px;line-height:0.9;font-family:'NEXT ART';-inkscape-font-specification:'NEXT ART, Heavy';font-variant-ligatures:normal;font-variant-caps:normal;font-variant-numeric:normal;font-variant-east-asian:normal;text-align:start;text-anchor:start;fill:#71bb43;fill-opacity:1;stroke-width:0.0740191"
         x="163.49709"
         y="425.31418"
         id="text71"><tspan
           sodipodi:role="line"
           style="font-style:normal;font-variant:normal;font-weight:900;font-stretch:normal;font-size:13.3394px;font-family:'NEXT ART';-inkscape-font-specification:'NEXT ART, Heavy';font-variant-ligatures:normal;font-variant-caps:normal;font-variant-numeric:normal;font-variant-east-asian:normal;text-align:start;text-anchor:start;fill:#71bb43;fill-opacity:1;stroke-width:0.0740191"
           x="163.49709"
           y="425.31418"
           id="tspan29" /><tspan
           sodipodi:role="line"
           style="font-style:normal;font-variant:normal;font-weight:900;font-stretch:normal;font-size:13.3394px;font-family:'NEXT ART';-inkscape-font-specification:'NEXT ART, Heavy';font-variant-ligatures:normal;font-variant-caps:normal;font-variant-numeric:normal;font-variant-east-asian:normal;text-align:start;text-anchor:start;fill:#71bb43;fill-opacity:1;stroke-width:0.0740191"
           x="163.49709"
           y="437.31964"
           id="tspan30">design</tspan><tspan
           sodipodi:role="line"
           style="font-style:normal;font-variant:normal;font-weight:900;font-stretch:normal;font-size:13.3394px;font-family:'NEXT ART';-inkscape-font-specification:'NEXT ART, Heavy';font-variant-ligatures:normal;font-variant-caps:normal;font-variant-numeric:normal;font-variant-east-asian:normal;text-align:start;text-anchor:start;fill:#71bb43;fill-opacity:1;stroke-width:0.0740191"
           x="163.49709"
           y="449.3251"
           id="tspan71" /></text>
      <text
         xml:space="preserve"
         style="font-style:normal;font-variant:normal;font-weight:900;font-stretch:normal;font-size:6.49901px;line-height:0.9;font-family:'NEXT ART';-inkscape-font-specification:'NEXT ART, Heavy';font-variant-ligatures:normal;font-variant-caps:normal;font-variant-numeric:normal;font-variant-east-asian:normal;text-align:start;text-anchor:start;fill:#d5cdbc;fill-opacity:1;stroke-width:0.00474038"
         x="163.92545"
         y="433.06644"
         id="text94"><tspan
           sodipodi:role="line"
           style="font-style:normal;font-variant:normal;font-weight:900;font-stretch:normal;font-size:6.49901px;font-family:'NEXT ART';-inkscape-font-specification:'NEXT ART, Heavy';font-variant-ligatures:normal;font-variant-caps:normal;font-variant-numeric:normal;font-variant-east-asian:normal;text-align:start;text-anchor:start;fill:#d5cdbc;fill-opacity:1;stroke-width:0.00474038"
           x="163.92545"
           y="433.06644"
           id="tspan84" /><tspan
           sodipodi:role="line"
           style="font-style:normal;font-variant:normal;font-weight:900;font-stretch:normal;font-size:6.49901px;font-family:'NEXT ART';-inkscape-font-specification:'NEXT ART, Heavy';font-variant-ligatures:normal;font-variant-caps:normal;font-variant-numeric:normal;font-variant-east-asian:normal;text-align:start;text-anchor:start;fill:#d5cdbc;fill-opacity:1;stroke-width:0.00474038"
           x="163.92545"
           y="438.91556"
           id="tspan93" /><tspan
           sodipodi:role="line"
           style="font-style:normal;font-variant:normal;font-weight:900;font-stretch:normal;font-size:6.49901px;font-family:'NEXT ART';-inkscape-font-specification:'NEXT ART, Heavy';font-variant-ligatures:normal;font-variant-caps:normal;font-variant-numeric:normal;font-variant-east-asian:normal;text-align:start;text-anchor:start;fill:#d5cdbc;fill-opacity:1;stroke-width:0.00474038"
           x="163.92545"
           y="444.76465"
           id="tspan94">development</tspan></text>
      <path
         style="fill:#d5cdbc;fill-opacity:1;stroke-width:0.154179"
         d="m 148.03086,452.31958 c -0.52861,-0.0277 -1.00975,-0.0993 -1.06919,-0.1592 -0.0594,-0.0598 -0.25003,-0.0419 -0.42352,0.0399 -0.17349,0.0817 -0.48817,0.0766 -0.69931,-0.0115 -0.2111,-0.088 -0.43705,-0.13498 -0.50207,-0.10433 -0.41889,0.19734 -2.99548,-1.35066 -3.29051,-1.9769 -0.0858,-0.18222 -0.34206,-0.44546 -0.56935,-0.58495 -0.28435,-0.17451 -0.62695,-0.64785 -1.09828,-1.51728 -0.66073,-1.21884 -0.67184,-1.25894 -0.31407,-1.13014 0.23363,0.0841 0.6065,0.49035 1.00731,1.09748 0.34999,0.53016 0.76923,1.02239 0.93164,1.09387 0.16238,0.0715 0.37026,0.28917 0.46192,0.48373 0.0917,0.19459 0.36738,0.45422 0.61269,0.57699 0.24532,0.12276 0.48739,0.30667 0.53794,0.40867 0.20062,0.40482 2.20369,0.99375 3.0117,0.88549 0.1543,-0.0207 0.30342,0.011 0.33134,0.0702 0.0279,0.0593 0.37251,0.0581 0.76573,-0.003 0.39324,-0.0607 0.73495,-0.0679 0.75942,-0.016 0.0802,0.17032 1.27953,-0.32446 1.85506,-0.7653 0.79677,-0.61033 1.69875,-1.75155 2.08572,-2.63895 0.18171,-0.41669 0.63194,-1.38392 1.00055,-2.14939 0.36862,-0.76549 0.60861,-1.45376 0.53333,-1.52949 -0.15883,-0.15986 -0.77509,0.17855 -0.74947,0.41156 0.01,0.0865 -0.0905,0.20806 -0.22223,0.27011 -0.30244,0.1425 -0.84188,0.78075 -0.77788,0.92037 0.0271,0.0575 -0.0773,0.16425 -0.23075,0.23652 -0.15344,0.0723 -0.24938,0.1942 -0.21324,0.27091 0.0361,0.0767 -0.0912,0.21339 -0.28299,0.30374 -0.19178,0.0903 -0.31913,0.22703 -0.28299,0.30376 0.0392,0.0832 -0.46893,0.39136 -1.2593,0.7637 -0.79037,0.37234 -1.35153,0.56794 -1.39073,0.48475 -0.0361,-0.0767 -0.2226,-0.0656 -0.4144,0.0248 -0.19176,0.0904 -0.37824,0.1015 -0.4144,0.0248 -0.0361,-0.0767 -0.25399,-0.0508 -0.4841,0.0577 -0.23015,0.10842 -0.44112,0.15028 -0.46881,0.093 -0.0616,-0.12705 -0.89243,-0.13347 -1.15683,-0.009 -0.10528,0.0496 -0.31098,0.0506 -0.45719,0.003 -0.55113,-0.18205 -1.09167,-0.29531 -1.19165,-0.24971 -0.0573,0.0253 -0.35414,-0.0776 -0.66037,-0.23018 -0.30624,-0.15259 -0.6513,-0.31528 -0.76685,-0.36151 -0.29289,-0.11728 -0.96907,-0.78164 -1.45253,-1.42718 -0.22389,-0.29898 -0.66866,-0.77027 -0.98837,-1.04731 -0.31967,-0.27705 -0.70878,-0.77446 -0.86468,-1.10539 -0.1559,-0.33093 -0.36449,-0.61089 -0.46353,-0.62217 -0.25601,-0.0291 -0.51918,-0.66356 -0.59137,-1.42571 -0.034,-0.35891 -0.15625,-0.86009 -0.2716,-1.11369 -0.11537,-0.25359 -0.18812,-0.64113 -0.16171,-0.86118 0.0264,-0.22007 -0.0242,-0.66472 -0.11235,-0.98815 -0.0882,-0.32343 -0.11298,-0.71989 -0.0551,-0.881 0.058,-0.16113 0.0334,-0.44561 -0.0545,-0.63217 -0.0879,-0.1866 -0.14462,-0.63259 -0.12605,-0.99113 0.0186,-0.35852 -0.005,-0.73389 -0.0521,-0.83411 -0.0472,-0.10025 -0.0238,-0.37612 0.0521,-0.61307 0.17677,-0.55238 -0.093,-1.12307 -0.59602,-1.26119 -0.21655,-0.0594 -0.44192,-0.0853 -0.50081,-0.0576 -0.0589,0.0277 -0.25671,-0.0325 -0.43956,-0.13379 -0.18285,-0.10133 -0.39294,-0.15575 -0.46681,-0.12095 -1.75527,-0.28969 -3.29268,-1.32415 -4.42284,-2.66476 -0.73752,-0.9277 -1.81302,-3.93572 -1.7648,-4.93585 0.0147,-0.30696 -0.0744,-0.77324 -0.19828,-1.03612 -0.12385,-0.26291 -0.17084,-0.59412 -0.10442,-0.73603 0.0664,-0.14192 0.046,-0.52515 -0.0454,-0.85165 -0.0914,-0.32649 -0.1114,-0.61943 -0.0445,-0.65094 0.0669,-0.0315 0.0786,-0.34379 0.026,-0.69393 -0.0526,-0.35016 -0.0478,-0.6592 0.0106,-0.68673 0.0585,-0.0275 0.0641,-0.24112 0.0125,-0.47457 -0.0516,-0.23348 0.009,-1.16306 0.13405,-2.06573 0.33881,-2.4403 0.53327,-3.16816 1.04926,-3.92732 0.16759,-0.24657 0.28152,-0.49753 0.25318,-0.5577 -0.0283,-0.0602 0.0426,-0.15376 0.15765,-0.20797 0.11507,-0.0542 0.18516,-0.14961 0.15579,-0.21201 -0.0294,-0.0624 0.1256,-0.30313 0.34448,-0.53496 0.21886,-0.23182 0.38109,-0.45726 0.36052,-0.50092 -0.0205,-0.0437 0.10229,-0.24069 0.27302,-0.4378 0.17075,-0.1971 0.386,-0.54733 0.4784,-0.77825 0.0924,-0.23094 0.23332,-0.45069 0.31322,-0.48834 0.0799,-0.0377 0.11577,-0.13121 0.0796,-0.20792 -0.0361,-0.0767 0.0232,-0.18136 0.13191,-0.23257 0.10868,-0.0512 0.18808,-0.17284 0.17648,-0.27034 -0.0115,-0.0975 0.26576,-0.35412 0.61633,-0.57028 l 0.63744,-0.39302 -0.15156,0.80275 c -0.20261,1.0728 0.036,1.18634 1.23667,0.58852 0.59403,-0.2957 0.95959,-0.40305 1.08815,-0.31938 0.1252,0.0815 0.49214,-0.0199 1.03903,-0.28708 0.465,-0.22724 0.87341,-0.35383 0.90749,-0.28145 0.0341,0.0724 0.25029,0.0429 0.48042,-0.0655 0.33455,-0.15761 0.39025,-0.25695 0.27784,-0.49558 -0.0773,-0.16416 -0.28973,-0.33007 -0.472,-0.36873 -0.31174,-0.0661 -0.31545,-0.0781 -0.0629,-0.20222 0.14976,-0.0736 0.73735,0.0538 1.32874,0.28807 1.18143,0.468 1.26975,0.43387 1.72249,-0.66575 0.15562,-0.37796 0.35332,-0.72034 0.4393,-0.76085 0.086,-0.0405 0.35085,-0.58224 0.58856,-1.20381 0.23768,-0.62157 0.63494,-1.513 0.88279,-1.98092 0.24784,-0.46794 0.599,-1.13678 0.78038,-1.48629 0.18134,-0.34952 0.36904,-0.65401 0.41704,-0.67662 0.0481,-0.0226 0.30698,-0.4994 0.57542,-1.05948 0.26844,-0.56007 0.5666,-1.09648 0.66257,-1.19202 0.0959,-0.0955 0.2805,-0.35558 0.41012,-0.5779 0.57659,-0.98896 1.04582,-1.50749 1.60075,-1.76893 0.55463,-0.26129 0.62486,-0.25033 1.21126,0.18877 0.57313,0.4292 0.61305,0.49247 0.50332,0.79765 -0.0656,0.18234 -0.0917,0.38979 -0.0582,0.46102 0.0336,0.0712 -0.005,0.16042 -0.0848,0.1982 -0.0802,0.0378 -0.22565,0.27888 -0.32325,0.53576 -0.50467,1.32836 -1.21954,2.59994 -1.74581,3.10522 -0.11293,0.10844 -0.1803,0.25035 -0.14967,0.31535 0.0306,0.065 -0.0942,0.37179 -0.27733,0.68178 -0.18318,0.30996 -0.47267,0.90929 -0.64337,1.33181 -0.17071,0.42255 -0.34898,0.78644 -0.39616,0.80868 -0.0472,0.0222 -0.12899,0.16063 -0.18182,0.30758 -0.0529,0.14698 -0.26049,0.6091 -0.46143,1.02694 -0.20094,0.41786 -0.41068,0.87695 -0.4661,1.02023 -0.0554,0.14328 -0.13586,0.27704 -0.17883,0.2973 -0.11507,0.0542 -0.41779,0.70503 -0.7458,1.60339 -0.38641,1.05842 -0.0552,1.49106 0.59535,0.77759 0.1289,-0.14135 0.24922,-0.11913 0.41392,0.0782 0.12761,0.15275 0.19591,0.33582 0.15173,0.40684 -0.2489,0.40035 -0.0957,1.77829 0.32485,2.92083 0.27294,0.74157 0.45998,1.55742 0.46844,2.043 0.0164,0.94142 0.38993,1.69719 0.78803,1.59424 0.17769,-0.046 0.25031,-0.22052 0.21973,-0.52819 -0.0251,-0.25277 -0.0298,-0.58208 -0.0104,-0.7318 0.0571,-0.4417 0.0666,-2.04356 0.0127,-2.16851 -0.1,-0.23251 0.75235,-2.59476 1.12391,-3.11481 0.30356,-0.42486 0.66884,-0.68085 1.75519,-1.23004 0.95843,-0.48451 1.44926,-0.6657 1.62854,-0.6014 0.14116,0.0507 0.40189,0.0237 0.57938,-0.0599 0.17749,-0.0836 0.47693,-0.14799 0.66547,-0.14308 0.18851,0.005 0.4809,0.011 0.64977,0.0136 0.78328,0.0121 1.57542,-0.34443 1.99665,-0.8985 0.37511,-0.49337 0.43813,-0.53053 0.64677,-0.3815 0.32049,0.22898 0.5042,-0.11989 0.23682,-0.44972 -0.16143,-0.19915 -0.14189,-0.5369 0.0744,-1.28776 0.16129,-0.55978 0.26559,-1.07654 0.23179,-1.1483 -0.0338,-0.0718 -0.004,-0.33436 0.0659,-0.58354 0.0701,-0.24919 0.0912,-0.52991 0.0469,-0.62386 -0.0442,-0.0939 -0.0242,-0.29112 0.0447,-0.43818 0.0688,-0.14708 0.0653,-0.49718 -0.008,-0.77805 -0.0732,-0.28085 -0.0807,-0.62241 -0.0169,-0.75905 0.064,-0.13662 0.0518,-0.49599 -0.027,-0.7986 -0.0788,-0.30262 -0.0986,-0.67453 -0.044,-0.82649 0.0546,-0.15197 0.0353,-0.41319 -0.043,-0.58055 -0.0787,-0.16711 -0.12774,-0.54118 -0.10997,-0.83076 0.0177,-0.28958 -0.0421,-0.78194 -0.13301,-1.09411 -0.20192,-0.69313 -0.0132,-0.83907 0.45583,-0.35263 0.1926,0.19965 0.46087,0.40282 0.5962,0.45147 0.33851,0.12171 0.75585,1.05773 0.61028,1.36871 -0.0655,0.13993 -0.081,0.4442 -0.0344,0.67618 0.0466,0.23198 0.0396,0.78817 -0.0156,1.23596 -0.0551,0.44777 -0.13256,1.86475 -0.17206,3.14882 -0.0395,1.28407 -0.10101,2.57849 -0.13665,2.87648 -0.17738,1.48328 -0.23863,1.72929 -0.45637,1.83293 -0.12973,0.0611 -0.24463,0.19312 -0.25591,0.29215 -0.0112,0.0991 -0.26412,0.29488 -0.56191,0.43517 -0.29782,0.14029 -0.54962,0.32689 -0.55962,0.41464 -0.0177,0.15584 -1.00828,0.33467 -1.29088,0.23308 -0.0773,-0.0278 -0.3498,0.048 -0.60553,0.16848 -0.25571,0.12045 -0.49448,0.15625 -0.53064,0.0795 -0.0361,-0.0767 -0.33767,-0.0115 -0.67009,0.14526 -0.33242,0.1566 -0.6651,0.26289 -0.73927,0.23622 -0.0742,-0.0267 -0.50875,0.0955 -0.96568,0.27155 -0.45696,0.17601 -0.87905,0.27188 -0.93799,0.21307 -0.14974,-0.14937 -0.57175,0.0732 -0.93782,0.49453 -0.38012,0.43754 -1.08079,2.15451 -0.97281,2.38377 0.0434,0.092 0.0357,0.37052 -0.0171,0.61893 -0.16809,0.79145 0.0411,2.32587 0.43074,3.15867 0.44796,0.95742 0.45494,1.50252 0.0123,0.9501 -0.63573,-0.79338 -1.07289,-0.59899 -0.82167,0.36535 0.11924,0.45783 0.25333,0.54138 1.87157,1.16453 0.9814,0.37798 1.97014,0.87782 2.26259,1.1438 0.28571,0.25984 0.76121,0.67568 1.05667,0.92409 0.29549,0.24843 0.5461,0.57133 0.5569,0.71762 0.0219,0.29474 -0.28179,0.50554 -0.45879,0.31854 -0.0622,-0.0658 0.32334,0.75371 0.85631,1.82124 0.83079,1.66231 0.99069,2.09242 1.11492,2.99968 0.0798,0.58253 0.23795,1.25625 0.35142,1.49718 0.1135,0.2409 0.17159,0.60326 0.12914,0.80521 -0.0425,0.20199 0.0418,0.62518 0.18739,0.94046 0.18063,0.39138 0.21387,0.69503 0.10464,0.9571 -0.088,0.21114 -0.10788,0.49459 -0.0441,0.62989 0.0638,0.13532 0.0971,0.47829 0.0742,0.76212 -0.0416,0.51402 0.22627,0.9585 0.49992,0.82958 0.0791,-0.0373 0.0404,-0.28744 -0.0861,-0.55593 -0.18618,-0.39518 -0.17684,-0.5132 0.049,-0.61958 0.37206,-0.17529 0.66685,0.43327 0.4195,0.86585 -0.0993,0.17364 -0.15888,0.41349 -0.1324,0.53297 0.0265,0.11948 -0.0154,0.40824 -0.0927,0.64169 -0.0775,0.23347 -0.15024,0.73022 -0.16167,1.1039 -0.0115,0.3737 -0.0597,0.80031 -0.10729,0.94802 -0.0476,0.14771 -0.0622,0.32021 -0.0325,0.38332 0.0297,0.0631 -0.0299,0.38433 -0.13243,0.71379 -0.10256,0.32946 -0.28532,0.959 -0.40613,1.39897 -0.41344,1.50572 -0.71558,2.40385 -0.82869,2.46336 -0.0622,0.0328 -0.1559,0.40281 -0.20816,0.8224 -0.16865,1.35455 -1.38239,5.03364 -1.71182,5.18884 -0.0407,0.0192 -0.14957,0.22383 -0.24197,0.45484 -0.0924,0.23101 -0.27802,0.47183 -0.41243,0.53518 -0.13442,0.0633 -0.25312,0.19149 -0.26373,0.2848 -0.0201,0.17674 -0.56857,0.55081 -1.9394,1.32276 -0.70214,0.39538 -0.9343,0.44851 -1.7693,0.40472 z m 2.14985,-6.26661 c 0.73981,-0.34852 0.9673,-0.52619 1.10059,-0.85936 0.0924,-0.23101 0.23341,-0.45082 0.31333,-0.48847 0.0799,-0.0376 0.11573,-0.13122 0.0796,-0.20793 -0.0362,-0.0767 0.0284,-0.18382 0.1435,-0.23805 0.11505,-0.0542 0.17963,-0.16133 0.14349,-0.23803 -0.0361,-0.0767 0.044,-0.19139 0.17818,-0.25487 0.13425,-0.0632 0.2809,-0.36246 0.32609,-0.66443 0.062,-0.41427 0.18925,-0.59958 0.51817,-0.75492 0.35602,-0.16772 0.50682,-0.43308 0.82147,-1.44233 0.21203,-0.68005 0.43807,-1.57263 0.5023,-1.98353 0.0642,-0.41092 0.19293,-1.18117 0.28597,-1.7117 0.0931,-0.53051 0.1339,-1.14412 0.0907,-1.36354 -0.0432,-0.21947 -0.025,-0.42422 0.0404,-0.45503 0.0654,-0.0308 0.0646,-0.35642 -0.002,-0.7235 -0.0664,-0.36709 -0.0936,-0.77539 -0.0605,-0.90735 0.0332,-0.13193 -0.0596,-0.42053 -0.2061,-0.6413 -0.20869,-0.31437 -0.21817,-0.48008 -0.0435,-0.76456 0.26731,-0.43554 0.0792,-1.34048 -0.31727,-1.52608 -0.36841,-0.17246 -0.56978,-0.0504 -0.77866,0.47172 -0.14775,0.36936 -0.1197,0.52405 0.17099,0.94203 0.3119,0.44849 0.31774,0.51424 0.0566,0.63729 -0.23663,0.11148 -0.25046,0.22367 -0.0738,0.59867 0.11956,0.25384 0.18265,0.62676 0.14018,0.82871 -0.0425,0.20198 -0.0387,0.45417 0.008,0.56043 0.0954,0.21506 0.0336,0.83524 -0.38528,3.8711 -0.30088,2.18089 -0.47112,2.64322 -0.75287,2.04511 -0.0904,-0.19178 -0.0871,-0.42916 0.007,-0.52753 0.0943,-0.0984 0.14066,-0.2441 0.1031,-0.32384 -0.0376,-0.0797 -0.009,-0.56446 0.0641,-1.07716 0.0728,-0.51272 0.0925,-1.12631 0.0437,-1.36356 -0.0488,-0.2373 0.0256,-0.73254 0.16551,-1.10057 0.13982,-0.36804 0.2148,-0.85614 0.1666,-1.08467 -0.0482,-0.22852 -0.0477,-0.53552 0.002,-0.68223 0.0803,-0.24166 -0.0977,-1.56014 -0.25606,-1.8963 -0.0356,-0.0756 -0.28882,-0.0319 -0.56269,0.0971 -0.32507,0.15315 -0.77738,0.18877 -1.30318,0.10264 -0.44289,-0.0725 -0.98305,-0.0482 -1.20033,0.0542 -0.26328,0.12402 -0.54383,0.10744 -0.84102,-0.0497 -0.24527,-0.1297 -0.59608,-0.22519 -0.77954,-0.21219 -0.32044,0.0227 -0.3252,0.0145 -0.12082,-0.2058 0.12002,-0.12942 0.35861,-0.21212 0.54741,-0.18975 0.18406,0.0218 0.42119,0 0.52694,-0.0509 0.10578,-0.0498 0.39727,-0.0438 0.64777,0.0134 0.25052,0.0572 0.86835,0.085 1.37296,0.0618 0.50462,-0.0232 1.04265,0.0177 1.19559,0.0911 0.24799,0.11891 0.29502,0.0863 0.43435,-0.30126 0.28774,-0.80031 -0.62127,-1.29232 -1.56561,-0.84743 -0.17648,0.0831 -0.35047,0.0884 -0.38659,0.0117 -0.0362,-0.0767 -0.18754,-0.0821 -0.33644,-0.0119 -0.14889,0.0702 -0.33907,0.083 -0.42261,0.0287 -0.0836,-0.0544 -0.30773,-0.0254 -0.49822,0.0643 -0.19046,0.0897 -0.54017,0.10109 -0.77712,0.0252 -0.23695,-0.0758 -0.51762,-0.097 -0.6237,-0.047 -0.10611,0.05 -0.33139,0.041 -0.50068,-0.0199 -0.47179,-0.16963 -0.68408,0.0156 -0.62808,0.54788 0.028,0.266 0.0182,0.59652 -0.0216,0.7345 -0.0399,0.13796 -0.0961,0.50059 -0.12493,0.80584 -0.0289,0.30523 -0.18185,0.78542 -0.34005,1.06705 -0.25225,0.44911 -0.31108,0.48962 -0.47837,0.32929 -0.12223,-0.11713 -0.10485,-0.40576 0.0483,-0.8033 0.16221,-0.42101 0.17665,-0.75306 0.0448,-1.03281 -0.12888,-0.27357 -0.12195,-0.50961 0.0205,-0.70143 0.34728,-0.46729 -0.0963,-1.01656 -0.74031,-0.91662 -0.2839,0.0441 -0.53963,0.0303 -0.5683,-0.0305 -0.0286,-0.0608 -0.14625,-0.0663 -0.26132,-0.0121 -0.11506,0.0542 -0.23877,0.0358 -0.27491,-0.0409 -0.0361,-0.0767 -0.15986,-0.0951 -0.27495,-0.0409 -0.11505,0.0542 -0.23876,0.0358 -0.2749,-0.0409 -0.0361,-0.0767 -0.37954,0.008 -0.7631,0.18908 -0.38355,0.18069 -0.66931,0.38811 -0.63498,0.46093 0.10078,0.21393 1.34864,0.56464 1.59656,0.4487 0.12483,-0.0588 0.36231,-0.0431 0.52731,0.0341 0.165,0.0772 0.52698,0.13378 0.80442,0.12568 l 0.50439,-0.0147 -0.45073,0.21899 c -0.24793,0.12037 -0.4803,0.15622 -0.51646,0.0795 -0.0361,-0.0767 -0.24216,-0.0563 -0.45782,0.0453 -0.21566,0.1016 -0.58599,0.12267 -0.82297,0.0468 -0.23694,-0.0758 -0.52759,-0.0923 -0.64588,-0.0366 -0.11827,0.0557 -0.2446,0.0385 -0.28074,-0.0382 -0.0361,-0.0767 -0.15987,-0.0951 -0.27492,-0.0409 -0.11508,0.0542 -0.23879,0.0358 -0.27493,-0.0409 -0.10284,-0.2183 -1.27689,0.39732 -1.35812,0.71211 -0.12689,0.49199 0.47821,1.10902 1.18046,1.20373 0.34802,0.0469 0.6912,0.0578 0.76259,0.0242 0.0714,-0.0336 0.15901,0 0.1947,0.0766 0.0357,0.0758 0.51825,0.2861 1.07236,0.46742 0.89593,0.29317 1.03781,0.39404 1.2815,0.91138 0.15577,0.33063 0.22234,0.69225 0.15422,0.83775 -0.16641,0.3555 -0.36113,0.19022 -0.69223,-0.58755 -0.32072,-0.75341 -0.92766,-1.09173 -1.64128,-0.91493 -0.2358,0.0584 -0.57179,0.0548 -0.74662,-0.008 -0.17481,-0.0629 -0.37104,-0.0935 -0.43604,-0.068 -0.065,0.0255 -0.33803,-0.0636 -0.60674,-0.19783 -0.36741,-0.18354 -0.59932,-0.45884 -0.93544,-1.11028 -0.41081,-0.79616 -0.42786,-0.90818 -0.21594,-1.38325 0.21421,-0.47946 0.25688,-0.5092 0.58651,-0.40893 0.39601,0.12045 1.38066,-0.35596 1.34411,-0.65034 -0.0391,-0.31484 -1.09205,-0.57881 -1.51464,-0.37973 -0.21966,0.10349 -0.42553,0.13271 -0.45746,0.065 -0.0769,-0.16324 -0.62742,-0.0541 -0.90749,0.17989 -0.28472,0.23791 -0.48209,1.64952 -0.26032,1.86204 0.0925,0.0886 0.0814,0.31295 -0.0248,0.49846 -0.29489,0.51564 -0.38976,1.69804 -0.17314,2.15787 0.10657,0.22619 0.14018,0.56027 0.0747,0.74241 -0.0663,0.18445 0.0115,0.72101 0.17535,1.211 0.16191,0.48388 0.25517,0.98889 0.20726,1.1222 -0.10248,0.28495 0.15946,0.89275 0.4697,1.08994 0.14112,0.0897 0.18095,0.23973 0.11352,0.42737 -0.14829,0.41247 1.01738,2.82834 1.65944,3.43919 0.26359,0.25076 0.6577,0.72086 0.87583,1.04465 0.52906,0.78536 1.17926,1.18428 2.86269,1.75625 1.40223,0.47645 1.96946,0.5323 2.77978,0.27372 0.23522,-0.0751 0.48367,-0.11635 0.55212,-0.0917 0.0685,0.0246 0.28831,-0.0766 0.48853,-0.22504 0.20026,-0.14836 0.78378,-0.46746 1.2967,-0.7091 z m 2.43398,-3.80501 c -0.16439,-0.0591 -0.18905,-0.49078 -0.0323,-0.56466 0.0685,-0.0323 0.1837,0.0669 0.25598,0.22029 0.12808,0.27186 0.0233,0.43316 -0.22368,0.34437 z m 1.43146,-12.45034 c 0.10485,-0.29165 0.0387,-0.48591 -0.41263,-1.21166 -0.29561,-0.47539 -0.761,-1.37258 -1.03415,-1.9938 -0.5722,-1.30125 -1.83096,-3.25747 -2.17588,-3.38146 -0.12918,-0.0464 -0.27747,-0.14108 -0.3295,-0.21031 -0.57641,-0.76657 -0.92677,-1.04943 -1.29418,-1.04474 -0.27123,0.003 -0.5537,-0.15724 -0.81214,-0.46199 -0.71344,-0.8414 -1.23751,-0.15744 -0.95284,1.24363 0.0869,0.42774 0.15188,1.05071 0.14443,1.38436 -0.014,0.62926 0.0828,1.08702 0.52611,2.4878 0.27768,0.87726 0.26482,1.01189 -0.22687,2.37943 -0.17246,0.47959 -0.27495,0.9539 -0.22779,1.05402 0.11592,0.24605 1.10617,0.50742 1.39962,0.36944 0.12975,-0.061 0.3043,-0.0664 0.38783,-0.0121 0.0835,0.0543 0.27458,0.041 0.42452,-0.0296 0.14995,-0.0706 0.40729,-0.12525 0.5719,-0.12136 0.16461,0.004 0.70614,0.0173 1.20338,0.0296 0.92224,0.023 1.29767,-0.0628 1.32151,-0.30195 0.007,-0.0738 -0.50833,-1.12823 -1.14605,-2.34323 -1.08046,-2.0587 -1.20077,-2.23405 -1.76746,-2.57594 -1.15534,-0.69704 -1.7201,-1.12121 -1.58045,-1.187 0.27397,-0.12908 1.32219,0.25193 1.97225,0.71686 0.6108,0.43686 0.72144,0.60244 1.48431,2.22181 0.68129,1.44612 0.88645,1.77565 1.18228,1.89898 0.31061,0.12946 0.36505,0.22508 0.41158,0.72252 0.0419,0.44801 0.11123,0.60027 0.3171,0.69661 0.34059,0.15942 0.46039,0.0949 0.61316,-0.33 z m -5.47759,-7.11538 c -0.0698,-0.16565 -0.0524,-0.21426 0.0446,-0.12397 0.0877,0.0817 0.13943,0.20433 0.1149,0.27252 -0.0245,0.0682 -0.0963,0.002 -0.15949,-0.14855 z m -2.69812,6.60141 c -0.31563,-0.66994 -0.49074,-0.88214 -0.84285,-1.02129 -0.30184,-0.11929 -0.46683,-0.29118 -0.51419,-0.5357 -0.0745,-0.38474 0.96687,-3.66051 1.19839,-3.76958 0.076,-0.0358 0.1045,-0.23585 0.0634,-0.44459 -0.0411,-0.20875 0.0319,-0.47838 0.16228,-0.59922 0.33251,-0.3083 0.0871,-0.71509 -0.42743,-0.70852 -0.52969,0.007 -1.23153,0.32213 -1.25926,0.56589 -0.0112,0.099 -0.32691,0.32442 -0.70141,0.50087 -0.3745,0.17644 -0.69014,0.40183 -0.7014,0.50086 -0.0112,0.0991 -0.14233,0.23749 -0.29123,0.30763 -0.14889,0.0702 -0.24114,0.19031 -0.205,0.26702 0.0361,0.0767 -0.14214,0.23738 -0.39618,0.35705 -0.26907,0.12677 -0.53198,0.39292 -0.62987,0.63761 -0.0924,0.231 -0.22154,0.44524 -0.28699,0.47608 -0.0655,0.0308 -0.1983,0.25431 -0.29522,0.4966 -0.0969,0.24229 -0.24441,0.48901 -0.32773,0.54827 -0.44394,0.31567 -0.71215,0.66581 -0.57799,0.83047 0.18121,0.22245 0.23481,0.65939 0.26749,1.29131 0.009,0.16938 -0.24938,0.19417 -0.21326,0.27088 0.0361,0.0767 -0.0636,0.20041 -0.22165,0.27486 -0.24679,0.11629 -0.24644,0.20637 0.003,0.63804 0.28335,0.49165 0.30365,0.49722 0.92961,0.25515 0.38772,-0.14996 0.80534,-0.44118 1.05967,-0.73895 0.41833,-0.48974 0.6815,-0.57709 0.63999,-0.21233 -0.0121,0.10564 -0.17134,0.2625 -0.35406,0.34858 -0.47174,0.22226 -0.44317,0.47204 0.0729,0.63724 0.43048,0.13777 1.56879,-0.22431 1.45854,-0.46394 -0.0849,-0.18447 0.56699,-1.16189 0.87008,-1.30467 0.22074,-0.10398 0.30601,-0.0632 0.34899,0.16719 0.0409,0.2189 -0.0809,0.38433 -0.43186,0.58694 -0.39348,0.22711 -0.46811,0.34895 -0.38286,0.62507 0.13078,0.42358 0.53988,0.63105 0.90503,0.45901 0.15112,-0.0712 0.49402,-0.079 0.76205,-0.0173 0.719,0.16552 0.81037,-0.18503 0.31969,-1.22656 z m -8.21572,3.07081 c -0.0216,-0.27104 0.003,-0.5127 0.0546,-0.53699 0.0516,-0.0243 0.0585,-0.22345 0.0153,-0.44257 -0.0431,-0.21909 0.0343,-0.85209 0.17181,-1.40666 0.3504,-1.41187 1.40977,-4.35691 1.59939,-4.44624 0.13971,-0.0658 1.31466,-1.4069 1.80006,-2.0546 0.0999,-0.13335 0.33577,-0.31504 0.52404,-0.40374 0.18832,-0.0887 0.35159,-0.24234 0.36285,-0.34139 0.0115,-0.10037 0.63009,-0.46727 1.39796,-0.829 1.84124,-0.86744 1.99124,-1.03786 1.70947,-1.94253 -0.12292,-0.39462 -0.1888,-0.8827 -0.14642,-1.08464 0.0424,-0.20194 -0.0143,-0.56085 -0.12572,-0.79763 -0.11155,-0.23676 -0.17105,-0.61461 -0.13223,-0.83967 0.0388,-0.22509 -0.0513,-0.75577 -0.20006,-1.17931 -0.14881,-0.42354 -0.29371,-1.05488 -0.32196,-1.40293 -0.0283,-0.34806 -0.14516,-0.73399 -0.25977,-0.8576 -0.22535,-0.24307 -0.5979,-0.15787 -0.56375,0.12888 0.0291,0.24426 -1.01941,0.75484 -1.18776,0.57843 -0.0743,-0.0778 -0.34946,-0.0405 -0.61159,0.083 -0.26206,0.12348 -0.50608,0.16174 -0.54222,0.085 -0.0361,-0.0767 -0.22262,-0.0656 -0.41438,0.0248 -0.1918,0.0904 -0.37826,0.10152 -0.41442,0.0248 -0.0361,-0.0767 -0.254,-0.0508 -0.48414,0.0577 -0.23013,0.10841 -0.44799,0.13435 -0.48411,0.0576 -0.0362,-0.0767 -0.13067,-0.10889 -0.21006,-0.0715 -0.0794,0.0374 -1.06329,-0.26602 -2.18644,-0.67426 -1.12318,-0.40824 -2.09634,-0.71671 -2.16261,-0.6855 -0.0663,0.0312 -0.41533,-0.18781 -0.77567,-0.48672 -0.51086,-0.42376 -0.72676,-0.50978 -0.98005,-0.39045 -0.17866,0.0842 -0.29527,0.21579 -0.25911,0.29249 0.0361,0.0767 -0.0285,0.18383 -0.14351,0.23806 -0.11509,0.0542 -0.17963,0.16132 -0.14351,0.23803 0.0362,0.0767 -0.0284,0.18382 -0.14352,0.23803 -0.11505,0.0542 -0.17963,0.16133 -0.1435,0.23803 0.0361,0.0767 -0.046,0.19211 -0.18244,0.2564 -0.13651,0.0643 -0.27951,0.28507 -0.3178,0.49057 -0.0383,0.20553 -0.1165,0.39575 -0.1738,0.42275 -0.0573,0.027 -0.38163,0.84907 -0.7208,1.82687 -0.55365,1.59617 -0.59135,1.83161 -0.36872,2.30411 0.23671,0.5025 0.15818,0.76238 -0.16648,0.55108 -0.0836,-0.0544 -0.20556,-0.0736 -0.27109,-0.0427 -0.13777,0.0649 -0.34954,2.33668 -0.26899,2.88524 0.0298,0.20291 0.0322,0.6094 0.005,0.9033 -0.0275,0.30026 0.11432,0.96116 0.32374,1.50855 0.29932,0.78244 0.33453,1.05315 0.17893,1.37541 -0.37874,0.78434 0.59151,3.18766 1.69772,4.20521 0.38265,0.35196 0.7938,0.69512 0.91372,0.76255 0.11991,0.0675 0.44686,0.30091 0.72654,0.51878 0.27973,0.21788 0.77464,0.48323 1.09983,0.58966 0.32523,0.10642 0.74607,0.25482 0.93519,0.32978 0.18914,0.0749 0.50814,0.0589 0.70893,-0.0358 0.254,-0.11967 0.46329,-0.0887 0.68815,0.10187 0.43075,0.36501 0.64087,0.23583 0.59315,-0.36465 z m -1.68721,-1.85324 c -0.37642,-0.15428 -1.033,-0.5544 -1.45905,-0.88913 -0.42603,-0.33473 -0.83354,-0.60641 -0.90555,-0.60376 -0.072,0.003 -0.17168,-0.0816 -0.22152,-0.18739 -0.0498,-0.10573 -0.52828,-0.55158 -1.06324,-0.99073 -0.93518,-0.76769 -1.53886,-1.61039 -1.25083,-1.74608 0.19292,-0.0909 1.33581,0.66028 1.48434,0.97556 0.0675,0.14321 0.3164,0.34599 0.55314,0.4506 0.23678,0.10463 0.48146,0.29846 0.5438,0.43074 0.0623,0.13229 0.23864,0.27289 0.39184,0.3124 0.15321,0.0395 0.40608,0.23734 0.56191,0.43963 0.15583,0.20228 0.39335,0.41104 0.52778,0.46391 0.45181,0.17775 1.50711,0.86129 1.75022,1.13368 0.3783,0.42389 -0.11477,0.53767 -0.91284,0.21057 z m 5.80166,-17.72474 c 0.20118,-0.42285 0.42106,-0.79486 0.4886,-0.82668 0.0675,-0.0319 0.15923,-0.37966 0.20369,-0.77292 0.0445,-0.39331 0.2355,-0.90663 0.42451,-1.14078 0.18901,-0.23412 0.39007,-0.62132 0.44678,-0.86048 0.0567,-0.23913 0.19917,-0.60067 0.31656,-0.80343 0.11738,-0.20275 0.34718,-0.69178 0.51062,-1.08673 0.16344,-0.39495 0.50937,-1.1631 0.76867,-1.70701 0.25932,-0.54389 0.47023,-1.04584 0.46869,-1.11542 -0.002,-0.0696 0.0647,-0.15828 0.14704,-0.19709 0.0824,-0.0388 0.35509,-0.46396 0.60592,-0.94476 0.25085,-0.48078 0.76136,-1.36826 1.13444,-1.97215 0.83055,-1.34434 1.07634,-2.04266 0.80917,-2.29872 -0.24017,-0.23016 -0.72801,0.12134 -1.10835,0.79854 -0.13844,0.24644 -0.28837,0.46536 -0.33319,0.48648 -0.0722,0.034 -0.21225,0.2979 -0.54268,1.02261 -0.0544,0.11937 -0.16853,0.32652 -0.25358,0.46033 -0.0851,0.13379 -0.4142,0.71068 -0.73151,1.282 -0.31729,0.57129 -0.64468,1.14734 -0.72754,1.28011 -0.17933,0.28738 -0.58774,1.16459 -0.81317,1.74654 -0.30445,0.78591 -1.03551,2.27737 -1.14056,2.32684 -0.13498,0.0636 -0.52532,1.22537 -0.45901,1.36612 0.0277,0.0587 -0.11176,0.29183 -0.30983,0.51808 -0.19804,0.22628 -0.40761,0.57382 -0.46569,0.77232 -0.0581,0.19848 -0.2081,0.40917 -0.33335,0.46818 -0.12525,0.059 -0.19815,0.17003 -0.16199,0.24674 0.0361,0.0767 -0.006,0.17302 -0.0925,0.21398 -0.25329,0.11933 -0.46973,1.12423 -0.31362,1.45609 0.13306,0.2828 0.37989,0.31748 0.8936,0.12566 0.11136,-0.0416 0.36707,-0.4216 0.56823,-0.84445 z m -2.51266,33.55146 c -0.0699,-0.16563 -0.0524,-0.21426 0.0446,-0.12396 0.0877,0.0817 0.13944,0.20434 0.1149,0.27251 -0.0245,0.0682 -0.0963,0.002 -0.15946,-0.14855 z m -2.31735,-1.77702 c -0.26864,-0.25744 -0.45452,-0.9604 -0.29395,-1.11224 0.21778,-0.20593 0.77913,0.39045 0.75791,0.80522 -0.0203,0.39789 -0.22669,0.53442 -0.46396,0.30702 z m 19.24102,-10.96766 c -0.32955,-0.31579 -0.44754,-0.71258 -0.24087,-0.80995 0.23998,-0.11306 0.60091,0.24123 0.62873,0.61716 0.0253,0.3421 -0.14417,0.42633 -0.38786,0.19277 z m 0.035,-1.39438 c -0.21813,-0.0784 -0.446,-0.66774 -0.32819,-0.84875 0.17445,-0.26803 0.5279,-0.0435 0.61314,0.38958 0.0781,0.39694 -0.0197,0.55453 -0.28495,0.45917 z m -0.26624,-1.77105 c -0.29079,-0.61722 -0.16431,-1.22286 0.17799,-0.85223 0.25856,0.28001 0.40225,1.0993 0.22283,1.27054 -0.0933,0.089 -0.22815,-0.0518 -0.40082,-0.41831 z m 0.005,-1.6825 c -0.21037,-0.0756 -2.30566,-4.59739 -2.16178,-4.66516 0.23898,-0.11259 0.50812,0.31631 1.43059,2.27992 0.86643,1.84421 1.06953,2.50686 0.73119,2.38524 z m -19.51061,-19.09988 c -0.4313,-0.0201 -0.83418,-0.0885 -0.8953,-0.15184 -0.0647,-0.0672 0.2419,-0.28154 0.73471,-0.51371 0.78064,-0.36778 0.86479,-0.37535 1.09191,-0.098 0.27715,0.33845 0.2889,0.65179 0.0278,0.74064 -0.0962,0.0327 -0.52783,0.0431 -0.95914,0.0229 z"
         id="path94"
         sodipodi:nodetypes="cssscssssssssscsccsssssscssssssssscsccscssssssssssscsssssscsssscsscssssssssssscscscscsssssssssssssssssssccsssssssssssccssssccssssccssssssssccsscsscssscsscsssssscssssscssscsssscsssssssssssscsssssscssssscccssssscscssssscsscssssssssssscscscsssssssscsscsssssssscscssssscsssssssscssccsssssssssscssssssssscsssssscssssssssssssccsssscssscssssssssssscscssssssscccsscsssssscssssssssscscssssscsssssssscssssscsssscsscsssssssssssssssssssssssssssssssssssssssssssscsssssssscsssssssssscssssssssssssssssscssscsscsssssssssssssssssssssssssss" />
    </g>
  </g>
</svg>
