<?xml version="1.0" encoding="UTF-8" standalone="no"?>
<!-- Created with Inkscape (http://www.inkscape.org/) -->

<svg
   width="86mm"
   height="105mm"
   viewBox="0 0 86 105"
   version="1.1"
   id="svg1357"
   inkscape:version="1.3.2 (091e20ef0f, 2023-11-25, custom)"
   sodipodi:docname="LogoSVG.svg"
   xmlns:inkscape="http://www.inkscape.org/namespaces/inkscape"
   xmlns:sodipodi="http://sodipodi.sourceforge.net/DTD/sodipodi-0.dtd"
   xmlns="http://www.w3.org/2000/svg"
   xmlns:svg="http://www.w3.org/2000/svg">
  <sodipodi:namedview
     id="namedview1359"
     pagecolor="#505050"
     bordercolor="#eeeeee"
     borderopacity="1"
     inkscape:showpageshadow="0"
     inkscape:pageopacity="0"
     inkscape:pagecheckerboard="0"
     inkscape:deskcolor="#505050"
     inkscape:document-units="mm"
     showgrid="false"
     inkscape:zoom="1.1046577"
     inkscape:cx="220.8829"
     inkscape:cy="170.18847"
     inkscape:window-width="1920"
     inkscape:window-height="1052"
     inkscape:window-x="1920"
     inkscape:window-y="0"
     inkscape:window-maximized="1"
     inkscape:current-layer="layer1" />
  <defs
     id="defs1354" />
  <g
     inkscape:label="Capa 1"
     inkscape:groupmode="layer"
     id="layer1">
    <path
       style="fill:#1a1a1a;fill-opacity:1;stroke-width:0.15159"
       d="m 20.341206,81.21241 c -0.519732,-0.02724 -0.992791,-0.09763 -1.051233,-0.156526 -0.0584,-0.0588 -0.245831,-0.0412 -0.416407,0.03923 -0.170576,0.08033 -0.479971,0.07531 -0.687565,-0.01131 -0.207555,-0.08652 -0.42971,-0.132713 -0.493638,-0.102578 -0.411855,0.194026 -2.945172,-1.327976 -3.235247,-1.943699 -0.08436,-0.179159 -0.336316,-0.437978 -0.559788,-0.575126 -0.279575,-0.171579 -0.616421,-0.636969 -1.079835,-1.491798 -0.649633,-1.19837 -0.660557,-1.237796 -0.308795,-1.111159 0.229706,0.08269 0.596314,0.482114 0.990392,1.079048 0.344112,0.521256 0.756311,1.005219 0.915994,1.075499 0.159652,0.0703 0.364041,0.284313 0.454162,0.475606 0.09016,0.191322 0.36121,0.446591 0.6024,0.567299 0.2412,0.120699 0.479204,0.30152 0.528905,0.401807 0.197251,0.398021 2.16668,0.97706 2.96112,0.870618 0.151709,-0.02035 0.298324,0.01082 0.325775,0.06902 0.02743,0.0583 0.366254,0.05712 0.75287,-0.0029 0.386636,-0.05968 0.722607,-0.06676 0.746666,-0.01573 0.07885,0.167459 1.258041,-0.319011 1.823905,-0.752448 0.783388,-0.600079 1.67022,-1.722133 2.050691,-2.594629 0.178658,-0.409692 0.621327,-1.360678 0.983746,-2.113292 0.362429,-0.752634 0.598389,-1.429345 0.524373,-1.503803 -0.156162,-0.157175 -0.762073,0.175551 -0.736883,0.404648 0.0098,0.08505 -0.08898,0.204566 -0.218498,0.265574 -0.29736,0.140106 -0.827741,0.767637 -0.764815,0.904912 0.02664,0.05653 -0.076,0.161492 -0.226875,0.232548 -0.150863,0.07109 -0.245192,0.190939 -0.209659,0.26636 0.03549,0.07541 -0.08967,0.209807 -0.278237,0.298639 -0.188559,0.08878 -0.31377,0.223217 -0.278237,0.298659 0.03854,0.0818 -0.461055,0.384787 -1.238151,0.750874 -0.777096,0.366086 -1.328831,0.558401 -1.367373,0.476608 -0.03549,-0.07541 -0.218862,-0.0645 -0.40744,0.02438 -0.18854,0.08888 -0.371888,0.0998 -0.407441,0.02438 -0.03549,-0.07541 -0.249724,-0.04995 -0.475969,0.05673 -0.226285,0.106599 -0.433712,0.147756 -0.460937,0.09144 -0.06057,-0.124916 -0.877442,-0.131228 -1.137401,-0.0088 -0.103512,0.04877 -0.305758,0.04975 -0.449512,0.0029 -0.541874,-0.178992 -1.073336,-0.29035 -1.171637,-0.245516 -0.05634,0.02487 -0.348192,-0.0763 -0.649279,-0.226314 -0.301097,-0.150028 -0.640362,-0.309985 -0.753971,-0.355439 -0.287971,-0.11531 -0.952795,-0.768512 -1.428135,-1.403211 -0.22013,-0.293959 -0.65743,-0.757333 -0.971771,-1.029721 -0.314301,-0.272397 -0.696876,-0.761453 -0.850158,-1.086825 -0.153282,-0.325372 -0.358369,-0.60063 -0.455745,-0.611721 -0.251711,-0.02861 -0.510461,-0.652416 -0.581438,-1.401766 -0.03343,-0.352882 -0.153626,-0.845645 -0.267039,-1.094986 -0.113432,-0.249331 -0.184961,-0.630362 -0.158994,-0.846716 0.02596,-0.216374 -0.02379,-0.653557 -0.110463,-0.971555 -0.08672,-0.317998 -0.111083,-0.7078 -0.05417,-0.866204 0.05703,-0.158424 0.03284,-0.438126 -0.05358,-0.621553 -0.086423,-0.183466 -0.1421907,-0.621966 -0.1239326,-0.974484 0.018288,-0.352499 -0.00492,-0.721565 -0.051225,-0.820102 -0.046407,-0.09857 -0.0234,-0.369803 0.051225,-0.602773 C 10.055748,63.803363 9.7905083,63.242257 9.2959363,63.106457 9.0830232,63.048055 8.8614382,63.02259 8.8035373,63.049824 8.7456265,63.077059 8.5511386,63.01787 8.3713595,62.918281 8.1915804,62.818653 7.9850188,62.765147 7.9123894,62.799363 6.1865985,62.514538 4.6750088,61.497451 3.5638294,60.179356 2.8386957,59.267237 1.7812584,56.309735 1.8286685,55.326402 c 0.014453,-0.301805 -0.07315,-0.760254 -0.1949499,-1.018719 -0.12177,-0.258494 -0.1679708,-0.584142 -0.1026663,-0.723668 0.065285,-0.139537 0.045227,-0.516331 -0.044638,-0.837347 -0.089865,-0.321007 -0.109529,-0.609027 -0.043753,-0.640008 0.065776,-0.03097 0.07728,-0.338016 0.025563,-0.682276 -0.051717,-0.344279 -0.046997,-0.648129 0.010422,-0.675196 0.057517,-0.02704 0.063023,-0.237071 0.01229,-0.4666 -0.050733,-0.229559 0.00885,-1.143527 0.1317987,-2.031037 0.3331198,-2.399316 0.5243139,-3.114952 1.031638,-3.861362 0.1647754,-0.242429 0.276792,-0.489174 0.248928,-0.548334 -0.027825,-0.05919 0.041884,-0.151177 0.1550023,-0.204477 0.1131374,-0.05329 0.1820503,-0.147097 0.1531736,-0.208449 -0.028906,-0.06135 0.1234906,-0.298039 0.3386945,-0.525976 0.2151844,-0.227926 0.3746898,-0.44958 0.3544652,-0.492507 -0.020156,-0.04297 0.1005721,-0.236648 0.2684348,-0.430447 0.1678823,-0.19379 0.3795173,-0.538138 0.4703654,-0.76518 0.090848,-0.227061 0.2294015,-0.443121 0.3079596,-0.480138 0.078558,-0.03707 0.1138257,-0.129007 0.078263,-0.204428 -0.035494,-0.07541 0.02281,-0.178315 0.1296946,-0.228664 0.1068547,-0.05034 0.1849212,-0.169938 0.1735161,-0.2658 -0.011307,-0.09586 0.2612966,-0.348173 0.6059789,-0.560703 l 0.6267345,-0.386419 -0.1490146,0.789268 c -0.1992073,1.054783 0.035395,1.166416 1.2159005,0.578636 0.5840535,-0.290734 0.9434741,-0.396281 1.069875,-0.314016 0.1230973,0.08013 0.4838747,-0.01957 1.0215798,-0.282259 0.4571908,-0.223423 0.8587418,-0.347887 0.8922498,-0.276723 0.03353,0.07118 0.246086,0.04218 0.472351,-0.0644 0.328932,-0.154963 0.383696,-0.252634 0.273174,-0.487257 -0.076,-0.161403 -0.284864,-0.324526 -0.464073,-0.362537 -0.306504,-0.06499 -0.310152,-0.07679 -0.06184,-0.198824 0.147245,-0.07236 0.724967,0.0529 1.306425,0.283232 1.161588,0.46014 1.248425,0.426584 1.693561,-0.654569 0.153007,-0.371612 0.347386,-0.708242 0.431922,-0.748071 0.08456,-0.03982 0.344958,-0.572462 0.578676,-1.183593 0.233688,-0.611131 0.624276,-1.48759 0.867963,-1.947651 0.243678,-0.460081 0.588941,-1.117688 0.767274,-1.461328 0.178295,-0.34365 0.362842,-0.643027 0.410036,-0.665257 0.04729,-0.02222 0.301825,-0.491013 0.565756,-1.041686 0.263932,-0.550664 0.557084,-1.078065 0.651443,-1.172001 0.09429,-0.0939 0.275789,-0.349608 0.403232,-0.568194 0.566906,-0.972351 1.028256,-1.482172 1.573866,-1.739222 0.545315,-0.256901 0.614366,-0.246125 1.190917,0.1856 0.563505,0.421992 0.602754,0.484199 0.494867,0.784254 -0.0645,0.179278 -0.09016,0.383243 -0.05722,0.453277 0.03304,0.07 -0.0049,0.157726 -0.08338,0.194871 -0.07885,0.03717 -0.221861,0.274197 -0.317821,0.526763 -0.496195,1.30605 -1.199059,2.556275 -1.71649,3.053069 -0.111034,0.106618 -0.177272,0.246145 -0.147156,0.310053 0.03009,0.06391 -0.09262,0.365546 -0.272673,0.67033 -0.180103,0.304754 -0.464732,0.894019 -0.632565,1.309443 -0.167843,0.415453 -0.343119,0.773232 -0.389506,0.795098 -0.04641,0.02183 -0.126824,0.157933 -0.178767,0.302415 -0.05201,0.144511 -0.256115,0.59887 -0.45368,1.009693 -0.197565,0.410842 -0.403783,0.862222 -0.458272,1.003095 -0.05447,0.140874 -0.133578,0.272387 -0.175827,0.292307 -0.113137,0.05329 -0.410773,0.693189 -0.733274,1.576462 -0.379921,1.040644 -0.05427,1.466018 0.585351,0.764531 0.126735,-0.138977 0.245034,-0.11713 0.406968,0.07689 0.125467,0.150185 0.19262,0.33018 0.149182,0.400007 -0.24472,0.393627 -0.09409,1.748425 0.319394,2.871776 0.268356,0.729116 0.452255,1.531264 0.460573,2.008689 0.01612,0.925609 0.383381,1.668686 0.774795,1.567465 0.174706,-0.04523 0.246107,-0.216816 0.21604,-0.519319 -0.02468,-0.248525 -0.0293,-0.572304 -0.01023,-0.71951 0.05614,-0.434282 0.06548,-2.009239 0.01249,-2.132091 -0.09832,-0.228605 0.739715,-2.551181 1.105035,-3.062497 0.298462,-0.417725 0.657607,-0.669416 1.725712,-1.209382 0.942334,-0.476373 1.42492,-0.65452 1.601189,-0.5913 0.13879,0.04985 0.395141,0.0233 0.56965,-0.05889 0.174509,-0.0822 0.46892,-0.145505 0.654294,-0.140677 0.185344,0.0049 0.472823,0.01082 0.638857,0.01337 0.770125,0.0119 1.548961,-0.338646 1.963117,-0.883411 0.36881,-0.485084 0.430772,-0.521619 0.635908,-0.375092 0.315107,0.225134 0.495732,-0.117877 0.232842,-0.442167 -0.158719,-0.195806 -0.139507,-0.527883 0.07315,-1.266133 0.158581,-0.550379 0.261129,-1.05846 0.227897,-1.129015 -0.03323,-0.07059 -0.0039,-0.328744 0.06479,-0.573739 0.06892,-0.245005 0.08967,-0.521011 0.04611,-0.613383 -0.04346,-0.09232 -0.02379,-0.286231 0.04395,-0.430821 0.06764,-0.14461 0.0642,-0.48883 -0.0079,-0.764983 -0.07197,-0.276133 -0.07935,-0.611957 -0.01662,-0.746302 0.06292,-0.134325 0.05093,-0.48766 -0.02655,-0.785188 -0.07748,-0.297537 -0.09694,-0.663201 -0.04326,-0.812609 0.05368,-0.149418 0.03471,-0.406251 -0.04228,-0.5708 -0.07738,-0.164303 -0.125595,-0.532091 -0.108124,-0.816808 0.0174,-0.284716 -0.04139,-0.768807 -0.130776,-1.075734 -0.198528,-0.68149 -0.01298,-0.824979 0.448175,-0.346708 0.189365,0.196297 0.45313,0.396055 0.586187,0.443888 0.332825,0.119665 0.743156,1.039965 0.60003,1.345723 -0.0644,0.13758 -0.07964,0.436739 -0.03382,0.664823 0.04582,0.228084 0.03894,0.774933 -0.01534,1.215203 -0.05417,0.44025 -0.130334,1.833432 -0.16917,3.095937 -0.03884,1.262504 -0.09931,2.535185 -0.134355,2.82817 -0.174401,1.458369 -0.234622,1.700247 -0.448706,1.802147 -0.127551,0.06007 -0.240521,0.189876 -0.251612,0.287243 -0.01101,0.09744 -0.259684,0.289928 -0.552473,0.427862 -0.292818,0.137934 -0.540389,0.3214 -0.550221,0.407676 -0.0174,0.153223 -0.991346,0.329049 -1.2692,0.229166 -0.076,-0.02733 -0.343925,0.04719 -0.59536,0.16565 -0.251416,0.118427 -0.486176,0.153626 -0.521729,0.07816 -0.03549,-0.07541 -0.331999,-0.01131 -0.658836,0.14282 -0.326837,0.15397 -0.65393,0.258475 -0.726854,0.232253 -0.07295,-0.02625 -0.500206,0.0939 -0.949462,0.266989 -0.449285,0.173054 -0.864286,0.267314 -0.922236,0.209492 -0.147226,-0.146861 -0.562148,0.07197 -0.92207,0.486225 -0.373736,0.430191 -1.062639,2.118325 -0.956472,2.343735 0.04267,0.09045 0.0351,0.364297 -0.01681,0.608535 -0.165267,0.778158 0.04041,2.286808 0.423506,3.105622 0.440437,0.94134 0.447299,1.477285 0.01209,0.934143 -0.625053,-0.780055 -1.054871,-0.58893 -0.80787,0.359214 0.117237,0.450141 0.249075,0.532288 1.840138,1.144972 0.964917,0.371632 1.937052,0.863078 2.22459,1.124591 0.280912,0.255476 0.748426,0.664332 1.038924,0.90857 0.290527,0.244258 0.536928,0.561735 0.547547,0.705568 0.02153,0.28979 -0.277057,0.497049 -0.451085,0.31319 -0.06115,-0.0647 0.31791,0.741052 0.841929,1.790653 0.816837,1.634392 0.974052,2.057278 1.096195,2.949301 0.07846,0.572747 0.233954,1.235152 0.345518,1.472036 0.111594,0.236854 0.168708,0.593128 0.126971,0.791687 -0.04179,0.198597 0.0411,0.61468 0.184243,0.924665 0.177597,0.384807 0.210278,0.683357 0.102883,0.941026 -0.08652,0.207594 -0.106068,0.486283 -0.04336,0.619311 0.06273,0.133047 0.09547,0.470257 0.07295,0.74932 -0.0409,0.505388 0.22247,0.942403 0.491524,0.815648 0.07777,-0.03667 0.03972,-0.282613 -0.08465,-0.546593 -0.183053,-0.388544 -0.17387,-0.504581 0.04818,-0.609175 0.365812,-0.172346 0.655651,0.425994 0.412455,0.851309 -0.09763,0.170723 -0.156212,0.406545 -0.130176,0.524019 0.02605,0.117473 -0.01514,0.401383 -0.09114,0.630913 -0.0762,0.229549 -0.147716,0.717956 -0.158954,1.08536 -0.01131,0.367424 -0.0587,0.786869 -0.105488,0.932098 -0.0468,0.14523 -0.06116,0.314833 -0.03195,0.376883 0.0292,0.06204 -0.0294,0.377875 -0.130205,0.701802 -0.100838,0.323927 -0.280529,0.942894 -0.39931,1.375475 -0.406496,1.480432 -0.703562,2.363478 -0.814772,2.421988 -0.06116,0.03225 -0.153282,0.396045 -0.204664,0.808588 -0.165818,1.331801 -1.359173,4.949102 -1.683071,5.101696 -0.04002,0.01888 -0.147058,0.220071 -0.237906,0.447201 -0.09085,0.22713 -0.273351,0.463906 -0.405503,0.526192 -0.132163,0.06224 -0.248869,0.188274 -0.259301,0.280017 -0.01976,0.173771 -0.559021,0.541559 -1.906829,1.300544 -0.690347,0.38874 -0.918608,0.440978 -1.739585,0.397923 z m 2.113745,-6.161365 c 0.727385,-0.342666 0.951054,-0.517352 1.082106,-0.844927 0.09085,-0.22713 0.22949,-0.443249 0.308067,-0.480266 0.07856,-0.03697 0.113787,-0.129016 0.07826,-0.204438 -0.03559,-0.07541 0.02792,-0.180733 0.14109,-0.234052 0.113118,-0.05329 0.176614,-0.158621 0.141081,-0.234033 -0.03549,-0.07541 0.04326,-0.188175 0.175187,-0.250589 0.131995,-0.06214 0.276182,-0.356373 0.320614,-0.653271 0.06096,-0.407313 0.186071,-0.589511 0.509467,-0.742242 0.350041,-0.164903 0.498308,-0.425806 0.807674,-1.418106 0.208469,-0.668629 0.430713,-1.546219 0.493864,-1.950218 0.06312,-0.404018 0.18969,-1.161332 0.281167,-1.682952 0.09154,-0.521601 0.131651,-1.124905 0.08918,-1.34064 -0.04247,-0.215784 -0.02458,-0.417095 0.03972,-0.447388 0.0643,-0.03028 0.06351,-0.350434 -0.002,-0.711349 -0.06529,-0.360925 -0.09203,-0.762368 -0.05948,-0.892112 0.03264,-0.129714 -0.0586,-0.413467 -0.202639,-0.630529 -0.205185,-0.30909 -0.214506,-0.472017 -0.04277,-0.75172 0.262821,-0.428225 0.07787,-1.317967 -0.311942,-1.50045 -0.362222,-0.169563 -0.56021,-0.04955 -0.765582,0.463798 -0.145269,0.363157 -0.11769,0.515249 0.168118,0.926209 0.306662,0.440958 0.312404,0.505603 0.05565,0.626587 -0.232656,0.109608 -0.246253,0.219913 -0.07256,0.588615 0.117552,0.249577 0.179582,0.616234 0.137825,0.814793 -0.04179,0.198587 -0.03805,0.446542 0.0079,0.551017 0.0938,0.211448 0.03304,0.821213 -0.378809,3.806087 -0.295827,2.144262 -0.463208,2.598828 -0.740226,2.010763 -0.08888,-0.188559 -0.08564,-0.421953 0.0069,-0.518671 0.09272,-0.09675 0.138298,-0.24 0.101369,-0.318401 -0.03697,-0.07836 -0.0088,-0.55498 0.06302,-1.059069 0.07158,-0.504109 0.09095,-1.107394 0.04297,-1.34066 -0.04798,-0.233314 0.02517,-0.720237 0.162731,-1.082086 0.137471,-0.361859 0.211192,-0.841762 0.163802,-1.066454 -0.04739,-0.224682 -0.0469,-0.526526 0.002,-0.670772 0.07895,-0.237601 -0.09606,-1.533938 -0.251759,-1.864452 -0.035,-0.07433 -0.28397,-0.03136 -0.55324,0.09547 -0.319611,0.150578 -0.764324,0.1856 -1.281294,0.100916 -0.435452,-0.07128 -0.96654,-0.04739 -1.180171,0.05329 -0.258858,0.121937 -0.534696,0.105636 -0.826895,-0.04887 -0.241151,-0.127522 -0.586069,-0.221408 -0.766448,-0.208627 -0.315058,0.02232 -0.319738,0.01426 -0.118791,-0.202343 0.118004,-0.127247 0.352587,-0.208558 0.538217,-0.186563 0.180968,0.02143 0.414116,0 0.51809,-0.05005 0.104003,-0.04896 0.390598,-0.04306 0.636891,0.01317 0.246312,0.05624 0.853766,0.08357 1.349901,0.06076 0.496145,-0.02281 1.025139,0.0174 1.175511,0.08957 0.243825,0.116913 0.290065,0.08485 0.427055,-0.2962 0.282908,-0.786869 -0.610836,-1.270616 -1.539316,-0.833198 -0.173516,0.08171 -0.344584,0.08692 -0.380097,0.0115 -0.03559,-0.07541 -0.184391,-0.08072 -0.33079,-0.0117 -0.146389,0.06902 -0.333375,0.08161 -0.415512,0.02822 -0.0822,-0.05349 -0.302562,-0.02497 -0.489853,0.06322 -0.187261,0.08819 -0.531098,0.09939 -0.764069,0.02478 -0.23297,-0.07453 -0.508926,-0.09537 -0.613225,-0.04621 -0.104328,0.04916 -0.325824,0.04031 -0.492271,-0.01957 -0.463866,-0.166781 -0.672591,0.01534 -0.617532,0.538679 0.02753,0.261532 0.01789,0.586501 -0.02124,0.722164 -0.03923,0.135643 -0.09449,0.492183 -0.122832,0.792306 -0.02841,0.300104 -0.178796,0.772229 -0.334339,1.04913 -0.248013,0.441567 -0.305855,0.481397 -0.470336,0.323759 -0.120177,-0.115163 -0.103089,-0.398945 0.04749,-0.789809 0.159486,-0.413939 0.173683,-0.740412 0.04405,-1.015464 -0.126716,-0.268975 -0.119902,-0.501051 0.02015,-0.68965 0.341448,-0.459442 -0.09468,-0.999487 -0.727876,-0.901225 -0.279132,0.04336 -0.530567,0.02979 -0.558756,-0.02999 -0.02812,-0.05978 -0.143794,-0.06519 -0.256931,-0.0119 -0.113128,0.05329 -0.23476,0.0352 -0.270293,-0.04021 -0.03549,-0.07541 -0.157175,-0.0935 -0.270332,-0.04021 -0.113118,0.05329 -0.234751,0.0352 -0.270284,-0.04021 -0.03549,-0.07541 -0.373165,0.0079 -0.750284,0.185904 -0.377108,0.177656 -0.658069,0.381592 -0.624315,0.453189 0.09909,0.210337 1.32599,0.555157 1.569746,0.441164 0.122734,-0.05781 0.356225,-0.04238 0.518454,0.03353 0.162229,0.0759 0.51813,0.131533 0.79091,0.123569 l 0.495919,-0.01445 -0.44316,0.215312 c -0.243766,0.118348 -0.472234,0.153596 -0.507786,0.07816 -0.03549,-0.07541 -0.238093,-0.05535 -0.450131,0.04454 -0.212039,0.09989 -0.576149,0.12061 -0.809149,0.04601 -0.232961,-0.07453 -0.518729,-0.09075 -0.635033,-0.03599 -0.116283,0.05476 -0.240492,0.03785 -0.276025,-0.03756 -0.03549,-0.07541 -0.157185,-0.0935 -0.270303,-0.04021 -0.113147,0.05329 -0.234779,0.0352 -0.270312,-0.04021 -0.101113,-0.214634 -1.255445,0.390647 -1.335311,0.70015 -0.124759,0.483728 0.470179,1.090395 1.160635,1.183514 0.342175,0.04611 0.679591,0.05683 0.749782,0.02379 0.0702,-0.03304 0.15634,0 0.19143,0.07531 0.0351,0.07453 0.509546,0.281295 1.05435,0.45957 0.880884,0.288246 1.020381,0.387422 1.259978,0.896074 0.153154,0.325077 0.218606,0.680624 0.15163,0.82368 -0.163615,0.34953 -0.355065,0.187025 -0.680604,-0.577682 -0.315334,-0.740757 -0.912081,-1.073395 -1.613716,-0.899564 -0.231839,0.05742 -0.562187,0.05388 -0.73408,-0.0079 -0.171875,-0.06184 -0.364809,-0.09193 -0.428717,-0.06686 -0.06391,0.02507 -0.332353,-0.06253 -0.59655,-0.194507 -0.36124,-0.180458 -0.589255,-0.451134 -0.91973,-1.091634 -0.403911,-0.782789 -0.420674,-0.892927 -0.212313,-1.360019 0.210612,-0.471407 0.252565,-0.500648 0.576659,-0.402062 0.38936,0.118427 1.357473,-0.349982 1.321537,-0.639417 -0.03844,-0.309553 -1.07371,-0.56909 -1.489203,-0.373353 -0.21597,0.101752 -0.418383,0.130481 -0.449777,0.06391 -0.07561,-0.160498 -0.616882,-0.05319 -0.892249,0.176869 -0.279938,0.233914 -0.473993,1.621817 -0.255948,1.830768 0.09095,0.08711 0.08003,0.307694 -0.02438,0.490088 -0.289938,0.50698 -0.383214,1.669522 -0.170232,2.12163 0.10478,0.222391 0.137825,0.55086 0.07344,0.729941 -0.06519,0.181352 0.01131,0.708901 0.172405,1.190662 0.159191,0.475753 0.250885,0.972282 0.203779,1.103353 -0.100759,0.280164 0.156782,0.877757 0.461812,1.071635 0.13875,0.08819 0.177911,0.235704 0.111613,0.420192 -0.145799,0.405543 1.000294,2.780839 1.631571,3.38143 0.259163,0.246549 0.646654,0.708754 0.86112,1.027106 0.520175,0.77217 1.159455,1.16439 2.814613,1.726754 1.37868,0.468449 1.936383,0.523361 2.733094,0.269123 0.23127,-0.07384 0.475547,-0.114396 0.542848,-0.09016 0.06735,0.02419 0.283467,-0.07531 0.480325,-0.22126 0.196897,-0.145869 0.770617,-0.459609 1.274922,-0.697191 z m 2.393102,-3.741106 c -0.161629,-0.05811 -0.185875,-0.482537 -0.03176,-0.555177 0.06735,-0.03176 0.180615,0.06578 0.251681,0.216591 0.125929,0.267294 0.02291,0.425885 -0.219923,0.338586 z m 1.407419,-12.241241 c 0.103089,-0.286752 0.03805,-0.477749 -0.4057,-1.191311 -0.290645,-0.467406 -0.748219,-1.349528 -1.016782,-1.960314 -0.56259,-1.279396 -1.80021,-3.202762 -2.139337,-3.32467 -0.12701,-0.04562 -0.27281,-0.138711 -0.323966,-0.206778 -0.566729,-0.753696 -0.911205,-1.031805 -1.272445,-1.027194 -0.266675,0.0029 -0.544401,-0.154599 -0.7985,-0.454231 -0.701458,-0.827269 -1.216727,-0.154796 -0.936838,1.222744 0.08544,0.420556 0.14933,1.033063 0.142005,1.36111 -0.01376,0.618692 0.08141,1.068764 0.517274,2.446018 0.273016,0.862527 0.260372,0.994896 -0.22306,2.339468 -0.169563,0.471536 -0.270332,0.93788 -0.223964,1.036319 0.113973,0.241917 1.087592,0.498898 1.376114,0.363235 0.127571,-0.05998 0.299189,-0.06528 0.381316,-0.0119 0.0821,0.05339 0.269969,0.04031 0.417391,-0.0291 0.147431,-0.06941 0.400449,-0.123146 0.562295,-0.119321 0.161845,0.0039 0.69428,0.01701 1.183169,0.0291 0.906752,0.02261 1.275877,-0.06174 1.299316,-0.296878 0.0069,-0.07256 -0.499793,-1.109282 -1.126802,-2.303877 -1.062314,-2.024125 -1.180604,-2.19653 -1.737777,-2.532678 -1.135936,-0.685333 -1.691211,-1.10238 -1.553906,-1.167065 0.269368,-0.126912 1.299984,0.247699 1.939126,0.704821 0.600542,0.429523 0.709324,0.592322 1.459382,2.184496 0.669848,1.421832 0.871562,1.745828 1.162424,1.867087 0.305393,0.127286 0.358919,0.2213 0.404668,0.710385 0.0412,0.440486 0.109362,0.590189 0.311774,0.684911 0.33487,0.156743 0.452658,0.09331 0.602862,-0.324458 z m -5.385596,-6.99588 c -0.06863,-0.162868 -0.05152,-0.210661 0.04385,-0.121888 0.08623,0.08033 0.137088,0.200899 0.11297,0.267943 -0.02409,0.06705 -0.09468,0.002 -0.156811,-0.146055 z M 18.21707,58.56336 c -0.310329,-0.658689 -0.482498,-0.867325 -0.828695,-1.004138 -0.29677,-0.117286 -0.458989,-0.28629 -0.505554,-0.526703 -0.07325,-0.378278 0.950632,-3.599033 1.178263,-3.706271 0.07472,-0.0352 0.102745,-0.231889 0.06234,-0.437124 -0.04041,-0.205244 0.03136,-0.470345 0.159554,-0.589156 0.326926,-0.303122 0.08564,-0.70308 -0.420251,-0.696621 -0.520794,0.0069 -1.210847,0.31672 -1.238111,0.556387 -0.01101,0.09734 -0.32142,0.318971 -0.689631,0.492458 -0.36821,0.173476 -0.678549,0.395081 -0.68962,0.492448 -0.01101,0.09743 -0.139939,0.233501 -0.286339,0.302463 -0.146389,0.06902 -0.23709,0.187114 -0.201557,0.262536 0.03549,0.07541 -0.139753,0.233393 -0.389526,0.351053 -0.264551,0.124641 -0.523046,0.386321 -0.619292,0.626902 -0.09085,0.22712 -0.217819,0.437762 -0.28217,0.468084 -0.0644,0.03028 -0.194969,0.250039 -0.290262,0.48826 -0.09527,0.238221 -0.240305,0.480797 -0.322226,0.539062 -0.436484,0.310369 -0.700189,0.654628 -0.568282,0.816523 0.178166,0.218714 0.230866,0.648315 0.262997,1.269623 0.0088,0.166535 -0.245192,0.190909 -0.209678,0.26633 0.03549,0.07541 -0.06253,0.197044 -0.217928,0.270244 -0.242645,0.114337 -0.242301,0.202904 0.003,0.627324 0.278591,0.483393 0.29855,0.48887 0.913997,0.250865 0.381209,-0.147441 0.791815,-0.43377 1.041874,-0.726539 0.411304,-0.481515 0.670054,-0.567398 0.629241,-0.208764 -0.0119,0.103865 -0.168462,0.258091 -0.348113,0.342725 -0.463818,0.218528 -0.435728,0.464113 0.07168,0.626538 0.423251,0.135456 1.542443,-0.220543 1.434045,-0.456148 -0.08347,-0.181372 0.557467,-1.142377 0.855467,-1.282759 0.217033,-0.102233 0.300871,-0.06214 0.343129,0.164382 0.04021,0.215224 -0.07954,0.377876 -0.424607,0.577083 -0.386872,0.223296 -0.460249,0.34309 -0.37643,0.614572 0.128583,0.416466 0.530813,0.620452 0.88983,0.451301 0.148582,-0.07 0.485723,-0.07767 0.749252,-0.01701 0.706924,0.16274 0.79676,-0.181923 0.314321,-1.205961 z m -8.07774,3.019237 c -0.02124,-0.266488 0.003,-0.50409 0.05368,-0.527972 0.05073,-0.02389 0.05752,-0.219697 0.01504,-0.435137 -0.04238,-0.21541 0.03372,-0.837779 0.168924,-1.383036 0.344516,-1.388158 1.386094,-4.283737 1.572529,-4.371567 0.137364,-0.06469 1.292581,-1.383271 1.769829,-2.020093 0.09822,-0.131111 0.330131,-0.309749 0.515239,-0.39696 0.185157,-0.08721 0.345685,-0.23827 0.356756,-0.335656 0.01131,-0.09868 0.619508,-0.459422 1.374482,-0.815077 1.810317,-0.852872 1.957798,-1.02043 1.68076,-1.909906 -0.120856,-0.387993 -0.185629,-0.867876 -0.143961,-1.066424 0.04169,-0.198549 -0.01406,-0.551431 -0.123609,-0.784234 -0.109676,-0.232784 -0.168177,-0.604288 -0.130009,-0.825568 0.03815,-0.22131 -0.05044,-0.743077 -0.1967,-1.159504 -0.146311,-0.416427 -0.288777,-1.037164 -0.316553,-1.379369 -0.02782,-0.342214 -0.142722,-0.721662 -0.255407,-0.843196 -0.221565,-0.238988 -0.587859,-0.155219 -0.554282,0.126715 0.02861,0.240158 -1.002289,0.742163 -1.167812,0.568716 -0.07305,-0.07649 -0.343591,-0.03982 -0.601319,0.08161 -0.257658,0.121406 -0.49758,0.159023 -0.533113,0.08357 -0.03549,-0.07541 -0.218881,-0.0645 -0.407421,0.02438 -0.188579,0.08888 -0.371907,0.09982 -0.40746,0.02438 -0.03549,-0.07541 -0.249734,-0.04995 -0.476009,0.05673 -0.226265,0.106589 -0.440466,0.132094 -0.475979,0.05663 -0.03559,-0.07541 -0.128476,-0.107062 -0.206533,-0.0703 -0.07807,0.03677 -1.045432,-0.261552 -2.1497191,-0.662936 C 8.3963723,43.217019 7.4395561,42.913729 7.3743991,42.944415 7.3092126,42.975091 6.9660444,42.759759 6.6117562,42.465869 6.1094759,42.049226 5.8972019,41.964651 5.6481658,42.081977 c -0.1756595,0.08279 -0.2903111,0.212166 -0.2547584,0.287578 0.035494,0.07541 -0.028021,0.180742 -0.1410998,0.234061 -0.1131571,0.05329 -0.1766132,0.158611 -0.1410998,0.234033 0.035592,0.07541 -0.027923,0.180733 -0.1411096,0.234032 -0.1131178,0.05329 -0.1766132,0.158621 -0.14109,0.234033 0.035494,0.07541 -0.045227,0.188883 -0.179376,0.252093 -0.1342173,0.06322 -0.2748157,0.280283 -0.3124626,0.482331 -0.037657,0.202079 -0.1145435,0.389104 -0.1708811,0.415651 -0.056338,0.02655 -0.3752207,0.83481 -0.7086945,1.796188 -0.5443516,1.569363 -0.5814185,1.800849 -0.3625275,2.265413 0.2327346,0.494061 0.1555235,0.749576 -0.163684,0.541825 -0.082196,-0.05349 -0.2021077,-0.07236 -0.2665371,-0.04198 -0.1354562,0.06381 -0.3436696,2.297437 -0.2644724,2.836784 0.0293,0.199502 0.031659,0.599165 0.00492,0.888129 -0.027038,0.295217 0.1124,0.945018 0.3183029,1.483215 0.294293,0.769299 0.3289117,1.035462 0.1759249,1.35231 -0.3723792,0.771167 0.5815758,3.134124 1.6692075,4.134585 0.3762235,0.346049 0.7804684,0.683446 0.8983744,0.749743 0.1178961,0.06637 0.4393551,0.295857 0.714338,0.510068 0.275032,0.21422 0.7616302,0.475114 1.0813588,0.579756 0.3197678,0.104633 0.73354,0.250541 0.9194838,0.324242 0.1859634,0.07364 0.499606,0.05791 0.6970238,-0.0352 0.2497341,-0.11766 0.4555092,-0.08721 0.6765927,0.100159 0.4235158,0.35888 0.6301072,0.23187 0.5831882,-0.358526 z M 8.480456,59.760481 C 8.1103578,59.608792 7.4648048,59.215392 7.0459102,58.886284 6.6270352,58.557176 6.2263692,58.290058 6.1555686,58.292664 6.0847778,58.295613 5.9867719,58.212434 5.9377689,58.108421 5.8888053,58.004467 5.4183612,57.566105 4.8923856,57.13433 3.9729116,56.379533 3.3793702,55.550986 3.6625629,55.417575 c 0.1896799,-0.08937 1.3133755,0.649191 1.459411,0.959176 0.066366,0.140804 0.3110862,0.340179 0.5438502,0.443032 0.2328034,0.102873 0.4733741,0.293447 0.5346671,0.423506 0.061254,0.130068 0.2346321,0.268307 0.3852592,0.307153 0.1506369,0.03884 0.39926,0.233354 0.5524729,0.432247 0.1532129,0.198882 0.3867439,0.404136 0.5189162,0.456118 0.444222,0.174765 1.4817986,0.846825 1.7208257,1.114641 0.3719466,0.416771 -0.1128425,0.52864 -0.8975092,0.207033 z m 5.704223,-17.427059 c 0.197802,-0.415749 0.413989,-0.781511 0.480394,-0.812796 0.06637,-0.03137 0.156556,-0.373284 0.200269,-0.75994 0.04375,-0.386704 0.231545,-0.891403 0.417381,-1.121621 0.185836,-0.230188 0.383519,-0.610885 0.439276,-0.846028 0.05575,-0.235114 0.195826,-0.590582 0.311244,-0.789937 0.115409,-0.199345 0.341349,-0.680162 0.502044,-1.068479 0.160695,-0.388317 0.500816,-1.143566 0.755761,-1.678341 0.254965,-0.534756 0.462332,-1.028276 0.460818,-1.096687 -0.002,-0.06843 0.06361,-0.155622 0.144571,-0.19378 0.08102,-0.03815 0.349126,-0.456168 0.595744,-0.928893 0.246637,-0.472705 0.748573,-1.345281 1.115387,-1.939028 0.816601,-1.321763 1.058263,-2.008355 0.79558,-2.260114 -0.236136,-0.226295 -0.715783,0.119302 -1.089735,0.785129 -0.136115,0.242301 -0.283527,0.457544 -0.327594,0.478309 -0.07099,0.03343 -0.208686,0.292897 -0.533566,1.005436 -0.05349,0.117365 -0.1657,0.321036 -0.249322,0.452599 -0.08367,0.131543 -0.407243,0.698744 -0.719224,1.260469 -0.311961,0.561696 -0.633853,1.128071 -0.715321,1.258611 -0.176319,0.282554 -0.577869,1.145031 -0.799513,1.717208 -0.299337,0.772711 -1.018119,2.239122 -1.121405,2.287761 -0.132713,0.06253 -0.516498,1.204791 -0.451301,1.343177 0.02723,0.05771 -0.109883,0.286929 -0.304627,0.509379 -0.194714,0.222479 -0.400764,0.564183 -0.457869,0.759349 -0.05712,0.195147 -0.204605,0.402298 -0.327751,0.460317 -0.123147,0.05801 -0.194822,0.167174 -0.15927,0.242596 0.03549,0.07541 -0.0059,0.170114 -0.09095,0.210386 -0.249036,0.117326 -0.461841,1.105349 -0.308353,1.431636 0.130825,0.27805 0.37351,0.312148 0.878592,0.12355 0.10949,-0.0409 0.360905,-0.41452 0.558687,-0.830268 z m -2.470461,32.987975 c -0.06873,-0.162848 -0.05152,-0.210661 0.04385,-0.121878 0.08623,0.08033 0.137099,0.200908 0.112971,0.267934 -0.02409,0.06705 -0.09468,0.002 -0.156782,-0.146056 z M 9.4357875,73.574222 C 9.1716592,73.321105 8.988901,72.629951 9.1467743,72.480661 9.3608967,72.27819 9.9128191,72.864554 9.8919554,73.272358 9.8719964,73.663566 9.6690726,73.797803 9.4357875,73.574222 Z M 28.353662,62.79076 c -0.324016,-0.310487 -0.440024,-0.700613 -0.236825,-0.796348 0.23595,-0.111161 0.590818,0.237179 0.618171,0.606795 0.02487,0.336355 -0.141749,0.41917 -0.381346,0.189533 z m 0.03441,-1.370962 c -0.214467,-0.07708 -0.43851,-0.656526 -0.322678,-0.834496 0.17152,-0.263528 0.519034,-0.04277 0.602842,0.383037 0.07679,0.390274 -0.01937,0.545217 -0.280164,0.451459 z m -0.261769,-1.741306 c -0.285906,-0.606854 -0.16155,-1.202323 0.175001,-0.837917 0.254218,0.275307 0.395494,1.080837 0.219088,1.249201 -0.09173,0.08751 -0.224319,-0.05093 -0.394089,-0.411284 z m 0.0049,-1.654243 c -0.206837,-0.07433 -2.266937,-4.520179 -2.125473,-4.586811 0.234966,-0.110699 0.499586,0.310998 1.406563,2.24163 0.851879,1.813237 1.051568,2.464758 0.71891,2.345181 z M 8.9482848,39.245144 c -0.4240565,-0.01976 -0.8201703,-0.08701 -0.8802638,-0.14929 -0.063613,-0.06607 0.2378374,-0.276811 0.7223708,-0.505082 0.7675294,-0.361603 0.8502662,-0.369046 1.0735718,-0.09635 0.2724954,0.332766 0.2840484,0.640843 0.027333,0.728201 -0.094584,0.03215 -0.5189653,0.04238 -0.9430316,0.02251 z"
       id="path95"
       sodipodi:nodetypes="cssscssssssssscsccsssssscssssssssscsccscssssssssssscsssssscsssscsscssssssssssscscscscsssssssssssssssssssccsssssssssssccssssccssssccssssssssccsscsscssscsscsssssscssssscssscsssscsssssssssssscsssssscssssscccssssscscssssscsscssssssssssscscscsssssssscsscsssssssscscssssscsssssssscssccsssssssssscssssssssscsssssscssssssssssssccsssscssscssssssssssscscssssssscccsscsssssscssssssssscscssssscsssssssscssssscsssscsscsssssssssssssssssssssssssssssssssssssssssssscsssssssscsssssssssscssssssssssssssssscssscsscsssssssssssssssssssssssssss" />
    <path
       d="m 36.04074,37.659988 v 16.775139 h 4.176238 v -9.101156 l 5.065296,5.790581 5.065297,-5.790581 v 9.101156 H 54.51211 V 37.659988 H 52.149085 L 45.282274,45.46265 38.43886,37.659988 Z m 27.537433,3.825293 c 1.00604,0 2.187553,0.280756 2.187553,1.356985 0,1.099626 -1.2634,1.380381 -2.187553,1.380381 -0.970946,0 -2.175855,-0.31585 -2.175855,-1.380381 0,-1.099626 1.263399,-1.356985 2.175855,-1.356985 z m 0,5.966054 c 1.19321,0 2.433214,0.421133 2.433214,1.57925 0,1.204908 -1.321891,1.579249 -2.433214,1.579249 -1.169815,0 -2.433215,-0.421133 -2.433215,-1.579249 0,-1.204909 1.345287,-1.57925 2.433215,-1.57925 z m 4.72605,-1.836609 c 1.2634,-0.924153 1.473966,-2.070571 1.473966,-3.170197 0,-3.240386 -3.298877,-4.784541 -6.200016,-4.784541 -3.018122,0 -6.188319,1.661137 -6.188319,4.784541 0,1.099626 0.210567,2.246044 1.473966,3.170197 -1.438871,1.216607 -1.895099,2.433214 -1.895099,3.708312 0,3.474349 3.556236,5.112089 6.609452,5.112089 3.240386,0 6.621149,-1.743023 6.621149,-5.112089 0,-1.275098 -0.456227,-2.491705 -1.895099,-3.708312 z m 3.333971,5.872469 c 2.480007,2.14076 5.123787,2.947932 7.334737,2.947932 3.673217,0 6.562659,-2.199251 6.562659,-5.240768 0,-4.012464 -3.450953,-4.924919 -6.328697,-5.392845 -2.035477,-0.339246 -3.333971,-0.561511 -3.333971,-1.380381 0,-0.76038 1.146418,-0.982644 2.035477,-0.982644 1.368683,0 2.947933,0.538114 4.094351,1.45057 l 2.363025,-3.006423 c -2.000382,-1.509061 -4.269823,-2.222648 -6.410583,-2.222648 -3.965671,0 -6.164922,2.26944 -6.164922,5.135485 0,3.1585 2.77246,4.16454 5.509826,4.726051 2.129062,0.432831 4.117747,0.608303 4.117747,1.743023 0,0.994343 -1.45057,1.310193 -2.503403,1.310193 -1.707929,0 -3.392462,-0.900758 -4.784541,-2.117365 z"
       id="text104"
       style="font-weight:900;font-size:23.9578px;line-height:0.9;font-family:'NEXT ART';-inkscape-font-specification:'NEXT ART, Heavy';fill:#1a1a1a;stroke-width:0.658751"
       aria-label="M8S&#10;" />
    <g
       id="text107"
       style="font-weight:900;font-size:13.1154px;line-height:0.9;font-family:'NEXT ART';-inkscape-font-specification:'NEXT ART, Heavy';fill:#71bb43;stroke-width:0.072776"
       aria-label="&#10;design&#10;">
      <path
         d="m 39.71669,64.351092 h -1.043852 v -4.969508 h 1.043852 c 0.595573,0 0.934985,0.08325 1.248781,0.230545 0.845329,0.397048 1.357649,1.24878 1.357649,2.241401 0,0.992621 -0.51232,1.863565 -1.364053,2.260613 -0.307392,0.147293 -0.646804,0.236949 -1.242377,0.236949 z m -0.0064,-7.070021 h -3.330082 v 9.183342 h 3.330082 c 0.723653,0 1.197549,-0.08325 1.645829,-0.217736 1.882778,-0.576361 3.259638,-2.267018 3.259638,-4.367531 0,-2.100513 -1.383264,-3.79117 -3.266042,-4.373935 -0.441876,-0.134484 -0.915772,-0.22414 -1.639425,-0.22414 z"
         id="path1" />
      <path
         d="m 45.832514,57.281071 v 9.183342 h 6.647356 v -2.113321 h -4.354723 v -1.863566 h 3.291658 v -2.055685 h -3.291658 v -1.063065 h 4.354723 v -2.087705 z m 7.441452,7.569533 c 1.357649,1.171933 2.804954,1.613809 4.015311,1.613809 2.010857,0 3.592646,-1.203953 3.592646,-2.868994 0,-2.196573 -1.889181,-2.696086 -3.464566,-2.952246 -1.114297,-0.185716 -1.825141,-0.307392 -1.825141,-0.755672 0,-0.41626 0.627592,-0.537937 1.114297,-0.537937 0.749268,0 1.613809,0.294585 2.241401,0.794097 l 1.293609,-1.645829 c -1.095085,-0.826117 -2.337462,-1.216761 -3.509394,-1.216761 -2.170958,0 -3.37491,1.242377 -3.37491,2.811358 0,1.729081 1.517748,2.279825 3.016285,2.587218 1.165529,0.236948 2.25421,0.333008 2.25421,0.954196 0,0.54434 -0.794097,0.717249 -1.370457,0.717249 -0.934985,0 -1.857161,-0.493109 -2.619238,-1.159125 z m 8.71585,1.613809 h 2.305441 V 57.281071 H 61.989816 Z M 73.119974,58.22246 c -0.999024,-0.678825 -1.934009,-0.941389 -2.901014,-0.941389 -2.696085,0 -4.706943,1.998049 -4.706943,4.598075 0,2.70249 2.132534,4.585267 4.706943,4.585267 2.689682,0 4.681327,-1.978837 4.681327,-4.559651 0,-0.473896 -0.07044,-0.967005 -0.22414,-1.479325 H 69.89876 v 2.113321 h 2.683278 c -0.339412,1.191145 -1.293609,1.825142 -2.363078,1.825142 -1.460113,0 -2.388693,-1.165529 -2.388693,-2.484754 0,-1.402477 0.947792,-2.503966 2.388693,-2.503966 0.486705,0 1.011833,0.153697 1.626617,0.608381 z m 11.456763,8.241953 v -9.183342 h -2.292634 v 5.180839 l -4.873447,-5.180839 h -1.293609 v 9.183342 h 2.292634 v -5.180839 l 4.867043,5.180839 z"
         id="path2" />
    </g>
    <g
       id="text110"
       style="font-weight:900;font-size:6.38986px;line-height:0.9;font-family:'NEXT ART';-inkscape-font-specification:'NEXT ART, Heavy';fill:#1a1a1a;stroke-width:0.00466077"
       aria-label="&#10;&#10;development">
      <path
         d="M 38.000001,72.754747 H 37.491433 V 70.33359 h 0.508568 c 0.290165,0 0.455527,0.04056 0.60841,0.112321 0.411846,0.193443 0.66145,0.60841 0.66145,1.092017 0,0.483608 -0.249604,0.907935 -0.66457,1.101378 -0.149763,0.07176 -0.315125,0.115441 -0.60529,0.115441 z m -0.0031,-3.444533 h -1.622425 v 4.47415 h 1.622425 c 0.352565,0 0.583449,-0.04056 0.801853,-0.106082 0.917294,-0.280804 1.588104,-1.104497 1.588104,-2.127873 0,-1.023376 -0.67393,-1.847069 -1.591225,-2.130994 -0.215283,-0.06552 -0.446167,-0.109201 -0.798732,-0.109201 z"
         id="path3" />
      <path
         d="m 40.979648,69.310214 v 4.47415 h 3.23861 v -1.029617 h -2.121633 v -0.907934 h 1.603705 v -1.001535 h -1.603705 v -0.517929 h 2.121633 v -1.017135 z m 6.998269,0 -1.138817,3.004607 -1.141938,-3.004607 h -1.2293 l 1.812749,4.47415 h 1.116977 l 1.809629,-4.47415 z m 1.600586,0 v 4.47415 h 3.238611 V 72.754747 H 50.69548 v -0.907934 h 1.603705 V 70.845278 H 50.69548 v -0.517929 h 2.121634 v -1.017135 z m 3.928141,0 v 4.47415 h 3.229251 v -1.038977 h -2.106033 v -3.435173 z m 5.572407,4.47415 c 1.322901,0 2.286996,-0.976576 2.286996,-2.237075 0,-1.2605 -0.964095,-2.237075 -2.286996,-2.237075 -1.3229,0 -2.286995,0.976575 -2.286995,2.237075 0,1.260499 0.964095,2.237075 2.286995,2.237075 z m 0,-3.450774 c 0.711372,0 1.151299,0.536648 1.151299,1.213699 0,0.67705 -0.439927,1.210579 -1.151299,1.210579 -0.711371,0 -1.151298,-0.533529 -1.151298,-1.210579 0,-0.677051 0.439927,-1.213699 1.151298,-1.213699 z m 6.034176,-0.808093 c -0.224643,-0.143522 -0.496088,-0.215283 -0.889214,-0.215283 h -2.265155 v 4.47415 h 1.123217 v -1.716027 h 1.141938 c 0.393126,0 0.66145,-0.07488 0.882974,-0.215284 0.377526,-0.240243 0.62089,-0.65521 0.62089,-1.160658 0,-0.524168 -0.243364,-0.932894 -0.61465,-1.166898 z m -0.723851,1.488263 c -0.05928,0.02496 -0.121682,0.03432 -0.255844,0.03432 H 63.078955 V 70.33671 h 1.054577 c 0.134162,0 0.199683,0.0094 0.255844,0.03432 0.134162,0.05616 0.234003,0.165363 0.234003,0.321365 0,0.162243 -0.106081,0.268324 -0.234003,0.321365 z m 1.856429,-1.703546 v 4.47415 h 1.113857 v -2.427398 l 1.350982,1.544424 1.350981,-1.544424 v 2.427398 h 1.110737 v -4.47415 h -0.63025 l -1.831468,2.081072 -1.825229,-2.081072 z m 5.73777,0 v 4.47415 h 3.238611 v -1.029617 h -2.121634 v -0.907934 h 1.603706 v -1.001535 h -1.603706 v -0.517929 h 2.121634 v -1.017135 z m 8.049727,4.47415 v -4.47415 h -1.116977 v 2.524119 l -2.374358,-2.524119 h -0.630249 v 4.47415 h 1.116977 v -2.52412 l 2.371237,2.52412 z m 0.592809,-4.47415 v 1.029616 h 1.413382 v 3.444534 H 83.16271 V 70.33983 h 1.419623 v -1.029616 z"
         id="path4" />
    </g>
    <path
       style="fill:#1a1a1a;fill-opacity:1;stroke-width:0.15159"
       d="m 20.341206,81.21241 c -0.519732,-0.02724 -0.992791,-0.09763 -1.051233,-0.156526 -0.0584,-0.0588 -0.245831,-0.0412 -0.416407,0.03923 -0.170576,0.08033 -0.479971,0.07531 -0.687565,-0.01131 -0.207555,-0.08652 -0.42971,-0.132713 -0.493638,-0.102578 -0.411855,0.194026 -2.945172,-1.327976 -3.235247,-1.943699 -0.08436,-0.179159 -0.336316,-0.437978 -0.559788,-0.575126 -0.279575,-0.171579 -0.616421,-0.636969 -1.079835,-1.491798 -0.649633,-1.19837 -0.660557,-1.237796 -0.308795,-1.111159 0.229706,0.08269 0.596314,0.482114 0.990392,1.079048 0.344112,0.521256 0.756311,1.005219 0.915994,1.075499 0.159652,0.0703 0.364041,0.284313 0.454162,0.475606 0.09016,0.191322 0.36121,0.446591 0.6024,0.567299 0.2412,0.120699 0.479204,0.30152 0.528905,0.401807 0.197251,0.398021 2.16668,0.97706 2.96112,0.870618 0.151709,-0.02035 0.298324,0.01082 0.325775,0.06902 0.02743,0.0583 0.366254,0.05712 0.75287,-0.0029 0.386636,-0.05968 0.722607,-0.06676 0.746666,-0.01573 0.07885,0.167459 1.258041,-0.319011 1.823905,-0.752448 0.783388,-0.600079 1.67022,-1.722133 2.050691,-2.594629 0.178658,-0.409692 0.621327,-1.360678 0.983746,-2.113292 0.362429,-0.752634 0.598389,-1.429345 0.524373,-1.503803 -0.156162,-0.157175 -0.762073,0.175551 -0.736883,0.404648 0.0098,0.08505 -0.08898,0.204566 -0.218498,0.265574 -0.29736,0.140106 -0.827741,0.767637 -0.764815,0.904912 0.02664,0.05653 -0.076,0.161492 -0.226875,0.232548 -0.150863,0.07109 -0.245192,0.190939 -0.209659,0.26636 0.03549,0.07541 -0.08967,0.209807 -0.278237,0.298639 -0.188559,0.08878 -0.31377,0.223217 -0.278237,0.298659 0.03854,0.0818 -0.461055,0.384787 -1.238151,0.750874 -0.777096,0.366086 -1.328831,0.558401 -1.367373,0.476608 -0.03549,-0.07541 -0.218862,-0.0645 -0.40744,0.02438 -0.18854,0.08888 -0.371888,0.0998 -0.407441,0.02438 -0.03549,-0.07541 -0.249724,-0.04995 -0.475969,0.05673 -0.226285,0.106599 -0.433712,0.147756 -0.460937,0.09144 -0.06057,-0.124916 -0.877442,-0.131228 -1.137401,-0.0088 -0.103512,0.04877 -0.305758,0.04975 -0.449512,0.0029 -0.541874,-0.178992 -1.073336,-0.29035 -1.171637,-0.245516 -0.05634,0.02487 -0.348192,-0.0763 -0.649279,-0.226314 -0.301097,-0.150028 -0.640362,-0.309985 -0.753971,-0.355439 -0.287971,-0.11531 -0.952795,-0.768512 -1.428135,-1.403211 -0.22013,-0.293959 -0.65743,-0.757333 -0.971771,-1.029721 -0.314301,-0.272397 -0.696876,-0.761453 -0.850158,-1.086825 -0.153282,-0.325372 -0.358369,-0.60063 -0.455745,-0.611721 -0.251711,-0.02861 -0.510461,-0.652416 -0.581438,-1.401766 -0.03343,-0.352882 -0.153626,-0.845645 -0.267039,-1.094986 -0.113432,-0.249331 -0.184961,-0.630362 -0.158994,-0.846716 0.02596,-0.216374 -0.02379,-0.653557 -0.110463,-0.971555 -0.08672,-0.317998 -0.111083,-0.7078 -0.05417,-0.866204 0.05703,-0.158424 0.03284,-0.438126 -0.05358,-0.621553 -0.086423,-0.183466 -0.1421907,-0.621966 -0.1239326,-0.974484 0.018288,-0.352499 -0.00492,-0.721565 -0.051225,-0.820102 -0.046407,-0.09857 -0.0234,-0.369803 0.051225,-0.602773 C 10.055748,63.803363 9.7905083,63.242257 9.2959363,63.106457 9.0830232,63.048055 8.8614382,63.02259 8.8035373,63.049824 8.7456265,63.077059 8.5511386,63.01787 8.3713595,62.918281 8.1915804,62.818653 7.9850188,62.765147 7.9123894,62.799363 6.1865985,62.514538 4.6750088,61.497451 3.5638294,60.179356 2.8386957,59.267237 1.7812584,56.309735 1.8286685,55.326402 c 0.014453,-0.301805 -0.07315,-0.760254 -0.1949499,-1.018719 -0.12177,-0.258494 -0.1679708,-0.584142 -0.1026663,-0.723668 0.065285,-0.139537 0.045227,-0.516331 -0.044638,-0.837347 -0.089865,-0.321007 -0.109529,-0.609027 -0.043753,-0.640008 0.065776,-0.03097 0.07728,-0.338016 0.025563,-0.682276 -0.051717,-0.344279 -0.046997,-0.648129 0.010422,-0.675196 0.057517,-0.02704 0.063023,-0.237071 0.01229,-0.4666 -0.050733,-0.229559 0.00885,-1.143527 0.1317987,-2.031037 0.3331198,-2.399316 0.5243139,-3.114952 1.031638,-3.861362 0.1647754,-0.242429 0.276792,-0.489174 0.248928,-0.548334 -0.027825,-0.05919 0.041884,-0.151177 0.1550023,-0.204477 0.1131374,-0.05329 0.1820503,-0.147097 0.1531736,-0.208449 -0.028906,-0.06135 0.1234906,-0.298039 0.3386945,-0.525976 0.2151844,-0.227926 0.3746898,-0.44958 0.3544652,-0.492507 -0.020156,-0.04297 0.1005721,-0.236648 0.2684348,-0.430447 0.1678823,-0.19379 0.3795173,-0.538138 0.4703654,-0.76518 0.090848,-0.227061 0.2294015,-0.443121 0.3079596,-0.480138 0.078558,-0.03707 0.1138257,-0.129007 0.078263,-0.204428 -0.035494,-0.07541 0.02281,-0.178315 0.1296946,-0.228664 0.1068547,-0.05034 0.1849212,-0.169938 0.1735161,-0.2658 -0.011307,-0.09586 0.2612966,-0.348173 0.6059789,-0.560703 l 0.6267345,-0.386419 -0.1490146,0.789268 c -0.1992073,1.054783 0.035395,1.166416 1.2159005,0.578636 0.5840535,-0.290734 0.9434741,-0.396281 1.069875,-0.314016 0.1230973,0.08013 0.4838747,-0.01957 1.0215798,-0.282259 0.4571908,-0.223423 0.8587418,-0.347887 0.8922498,-0.276723 0.03353,0.07118 0.246086,0.04218 0.472351,-0.0644 0.328932,-0.154963 0.383696,-0.252634 0.273174,-0.487257 -0.076,-0.161403 -0.284864,-0.324526 -0.464073,-0.362537 -0.306504,-0.06499 -0.310152,-0.07679 -0.06184,-0.198824 0.147245,-0.07236 0.724967,0.0529 1.306425,0.283232 1.161588,0.46014 1.248425,0.426584 1.693561,-0.654569 0.153007,-0.371612 0.347386,-0.708242 0.431922,-0.748071 0.08456,-0.03982 0.344958,-0.572462 0.578676,-1.183593 0.233688,-0.611131 0.624276,-1.48759 0.867963,-1.947651 0.243678,-0.460081 0.588941,-1.117688 0.767274,-1.461328 0.178295,-0.34365 0.362842,-0.643027 0.410036,-0.665257 0.04729,-0.02222 0.301825,-0.491013 0.565756,-1.041686 0.263932,-0.550664 0.557084,-1.078065 0.651443,-1.172001 0.09429,-0.0939 0.275789,-0.349608 0.403232,-0.568194 0.566906,-0.972351 1.028256,-1.482172 1.573866,-1.739222 0.545315,-0.256901 0.614366,-0.246125 1.190917,0.1856 0.563505,0.421992 0.602754,0.484199 0.494867,0.784254 -0.0645,0.179278 -0.09016,0.383243 -0.05722,0.453277 0.03304,0.07 -0.0049,0.157726 -0.08338,0.194871 -0.07885,0.03717 -0.221861,0.274197 -0.317821,0.526763 -0.496195,1.30605 -1.199059,2.556275 -1.71649,3.053069 -0.111034,0.106618 -0.177272,0.246145 -0.147156,0.310053 0.03009,0.06391 -0.09262,0.365546 -0.272673,0.67033 -0.180103,0.304754 -0.464732,0.894019 -0.632565,1.309443 -0.167843,0.415453 -0.343119,0.773232 -0.389506,0.795098 -0.04641,0.02183 -0.126824,0.157933 -0.178767,0.302415 -0.05201,0.144511 -0.256115,0.59887 -0.45368,1.009693 -0.197565,0.410842 -0.403783,0.862222 -0.458272,1.003095 -0.05447,0.140874 -0.133578,0.272387 -0.175827,0.292307 -0.113137,0.05329 -0.410773,0.693189 -0.733274,1.576462 -0.379921,1.040644 -0.05427,1.466018 0.585351,0.764531 0.126735,-0.138977 0.245034,-0.11713 0.406968,0.07689 0.125467,0.150185 0.19262,0.33018 0.149182,0.400007 -0.24472,0.393627 -0.09409,1.748425 0.319394,2.871776 0.268356,0.729116 0.452255,1.531264 0.460573,2.008689 0.01612,0.925609 0.383381,1.668686 0.774795,1.567465 0.174706,-0.04523 0.246107,-0.216816 0.21604,-0.519319 -0.02468,-0.248525 -0.0293,-0.572304 -0.01023,-0.71951 0.05614,-0.434282 0.06548,-2.009239 0.01249,-2.132091 -0.09832,-0.228605 0.739715,-2.551181 1.105035,-3.062497 0.298462,-0.417725 0.657607,-0.669416 1.725712,-1.209382 0.942334,-0.476373 1.42492,-0.65452 1.601189,-0.5913 0.13879,0.04985 0.395141,0.0233 0.56965,-0.05889 0.174509,-0.0822 0.46892,-0.145505 0.654294,-0.140677 0.185344,0.0049 0.472823,0.01082 0.638857,0.01337 0.770125,0.0119 1.548961,-0.338646 1.963117,-0.883411 0.36881,-0.485084 0.430772,-0.521619 0.635908,-0.375092 0.315107,0.225134 0.495732,-0.117877 0.232842,-0.442167 -0.158719,-0.195806 -0.139507,-0.527883 0.07315,-1.266133 0.158581,-0.550379 0.261129,-1.05846 0.227897,-1.129015 -0.03323,-0.07059 -0.0039,-0.328744 0.06479,-0.573739 0.06892,-0.245005 0.08967,-0.521011 0.04611,-0.613383 -0.04346,-0.09232 -0.02379,-0.286231 0.04395,-0.430821 0.06764,-0.14461 0.0642,-0.48883 -0.0079,-0.764983 -0.07197,-0.276133 -0.07935,-0.611957 -0.01662,-0.746302 0.06292,-0.134325 0.05093,-0.48766 -0.02655,-0.785188 -0.07748,-0.297537 -0.09694,-0.663201 -0.04326,-0.812609 0.05368,-0.149418 0.03471,-0.406251 -0.04228,-0.5708 -0.07738,-0.164303 -0.125595,-0.532091 -0.108124,-0.816808 0.0174,-0.284716 -0.04139,-0.768807 -0.130776,-1.075734 -0.198528,-0.68149 -0.01298,-0.824979 0.448175,-0.346708 0.189365,0.196297 0.45313,0.396055 0.586187,0.443888 0.332825,0.119665 0.743156,1.039965 0.60003,1.345723 -0.0644,0.13758 -0.07964,0.436739 -0.03382,0.664823 0.04582,0.228084 0.03894,0.774933 -0.01534,1.215203 -0.05417,0.44025 -0.130334,1.833432 -0.16917,3.095937 -0.03884,1.262504 -0.09931,2.535185 -0.134355,2.82817 -0.174401,1.458369 -0.234622,1.700247 -0.448706,1.802147 -0.127551,0.06007 -0.240521,0.189876 -0.251612,0.287243 -0.01101,0.09744 -0.259684,0.289928 -0.552473,0.427862 -0.292818,0.137934 -0.540389,0.3214 -0.550221,0.407676 -0.0174,0.153223 -0.991346,0.329049 -1.2692,0.229166 -0.076,-0.02733 -0.343925,0.04719 -0.59536,0.16565 -0.251416,0.118427 -0.486176,0.153626 -0.521729,0.07816 -0.03549,-0.07541 -0.331999,-0.01131 -0.658836,0.14282 -0.326837,0.15397 -0.65393,0.258475 -0.726854,0.232253 -0.07295,-0.02625 -0.500206,0.0939 -0.949462,0.266989 -0.449285,0.173054 -0.864286,0.267314 -0.922236,0.209492 -0.147226,-0.146861 -0.562148,0.07197 -0.92207,0.486225 -0.373736,0.430191 -1.062639,2.118325 -0.956472,2.343735 0.04267,0.09045 0.0351,0.364297 -0.01681,0.608535 -0.165267,0.778158 0.04041,2.286808 0.423506,3.105622 0.440437,0.94134 0.447299,1.477285 0.01209,0.934143 -0.625053,-0.780055 -1.054871,-0.58893 -0.80787,0.359214 0.117237,0.450141 0.249075,0.532288 1.840138,1.144972 0.964917,0.371632 1.937052,0.863078 2.22459,1.124591 0.280912,0.255476 0.748426,0.664332 1.038924,0.90857 0.290527,0.244258 0.536928,0.561735 0.547547,0.705568 0.02153,0.28979 -0.277057,0.497049 -0.451085,0.31319 -0.06115,-0.0647 0.31791,0.741052 0.841929,1.790653 0.816837,1.634392 0.974052,2.057278 1.096195,2.949301 0.07846,0.572747 0.233954,1.235152 0.345518,1.472036 0.111594,0.236854 0.168708,0.593128 0.126971,0.791687 -0.04179,0.198597 0.0411,0.61468 0.184243,0.924665 0.177597,0.384807 0.210278,0.683357 0.102883,0.941026 -0.08652,0.207594 -0.106068,0.486283 -0.04336,0.619311 0.06273,0.133047 0.09547,0.470257 0.07295,0.74932 -0.0409,0.505388 0.22247,0.942403 0.491524,0.815648 0.07777,-0.03667 0.03972,-0.282613 -0.08465,-0.546593 -0.183053,-0.388544 -0.17387,-0.504581 0.04818,-0.609175 0.365812,-0.172346 0.655651,0.425994 0.412455,0.851309 -0.09763,0.170723 -0.156212,0.406545 -0.130176,0.524019 0.02605,0.117473 -0.01514,0.401383 -0.09114,0.630913 -0.0762,0.229549 -0.147716,0.717956 -0.158954,1.08536 -0.01131,0.367424 -0.0587,0.786869 -0.105488,0.932098 -0.0468,0.14523 -0.06116,0.314833 -0.03195,0.376883 0.0292,0.06204 -0.0294,0.377875 -0.130205,0.701802 -0.100838,0.323927 -0.280529,0.942894 -0.39931,1.375475 -0.406496,1.480432 -0.703562,2.363478 -0.814772,2.421988 -0.06116,0.03225 -0.153282,0.396045 -0.204664,0.808588 -0.165818,1.331801 -1.359173,4.949102 -1.683071,5.101696 -0.04002,0.01888 -0.147058,0.220071 -0.237906,0.447201 -0.09085,0.22713 -0.273351,0.463906 -0.405503,0.526192 -0.132163,0.06224 -0.248869,0.188274 -0.259301,0.280017 -0.01976,0.173771 -0.559021,0.541559 -1.906829,1.300544 -0.690347,0.38874 -0.918608,0.440978 -1.739585,0.397923 z m 2.113745,-6.161365 c 0.727385,-0.342666 0.951054,-0.517352 1.082106,-0.844927 0.09085,-0.22713 0.22949,-0.443249 0.308067,-0.480266 0.07856,-0.03697 0.113787,-0.129016 0.07826,-0.204438 -0.03559,-0.07541 0.02792,-0.180733 0.14109,-0.234052 0.113118,-0.05329 0.176614,-0.158621 0.141081,-0.234033 -0.03549,-0.07541 0.04326,-0.188175 0.175187,-0.250589 0.131995,-0.06214 0.276182,-0.356373 0.320614,-0.653271 0.06096,-0.407313 0.186071,-0.589511 0.509467,-0.742242 0.350041,-0.164903 0.498308,-0.425806 0.807674,-1.418106 0.208469,-0.668629 0.430713,-1.546219 0.493864,-1.950218 0.06312,-0.404018 0.18969,-1.161332 0.281167,-1.682952 0.09154,-0.521601 0.131651,-1.124905 0.08918,-1.34064 -0.04247,-0.215784 -0.02458,-0.417095 0.03972,-0.447388 0.0643,-0.03028 0.06351,-0.350434 -0.002,-0.711349 -0.06529,-0.360925 -0.09203,-0.762368 -0.05948,-0.892112 0.03264,-0.129714 -0.0586,-0.413467 -0.202639,-0.630529 -0.205185,-0.30909 -0.214506,-0.472017 -0.04277,-0.75172 0.262821,-0.428225 0.07787,-1.317967 -0.311942,-1.50045 -0.362222,-0.169563 -0.56021,-0.04955 -0.765582,0.463798 -0.145269,0.363157 -0.11769,0.515249 0.168118,0.926209 0.306662,0.440958 0.312404,0.505603 0.05565,0.626587 -0.232656,0.109608 -0.246253,0.219913 -0.07256,0.588615 0.117552,0.249577 0.179582,0.616234 0.137825,0.814793 -0.04179,0.198587 -0.03805,0.446542 0.0079,0.551017 0.0938,0.211448 0.03304,0.821213 -0.378809,3.806087 -0.295827,2.144262 -0.463208,2.598828 -0.740226,2.010763 -0.08888,-0.188559 -0.08564,-0.421953 0.0069,-0.518671 0.09272,-0.09675 0.138298,-0.24 0.101369,-0.318401 -0.03697,-0.07836 -0.0088,-0.55498 0.06302,-1.059069 0.07158,-0.504109 0.09095,-1.107394 0.04297,-1.34066 -0.04798,-0.233314 0.02517,-0.720237 0.162731,-1.082086 0.137471,-0.361859 0.211192,-0.841762 0.163802,-1.066454 -0.04739,-0.224682 -0.0469,-0.526526 0.002,-0.670772 0.07895,-0.237601 -0.09606,-1.533938 -0.251759,-1.864452 -0.035,-0.07433 -0.28397,-0.03136 -0.55324,0.09547 -0.319611,0.150578 -0.764324,0.1856 -1.281294,0.100916 -0.435452,-0.07128 -0.96654,-0.04739 -1.180171,0.05329 -0.258858,0.121937 -0.534696,0.105636 -0.826895,-0.04887 -0.241151,-0.127522 -0.586069,-0.221408 -0.766448,-0.208627 -0.315058,0.02232 -0.319738,0.01426 -0.118791,-0.202343 0.118004,-0.127247 0.352587,-0.208558 0.538217,-0.186563 0.180968,0.02143 0.414116,0 0.51809,-0.05005 0.104003,-0.04896 0.390598,-0.04306 0.636891,0.01317 0.246312,0.05624 0.853766,0.08357 1.349901,0.06076 0.496145,-0.02281 1.025139,0.0174 1.175511,0.08957 0.243825,0.116913 0.290065,0.08485 0.427055,-0.2962 0.282908,-0.786869 -0.610836,-1.270616 -1.539316,-0.833198 -0.173516,0.08171 -0.344584,0.08692 -0.380097,0.0115 -0.03559,-0.07541 -0.184391,-0.08072 -0.33079,-0.0117 -0.146389,0.06902 -0.333375,0.08161 -0.415512,0.02822 -0.0822,-0.05349 -0.302562,-0.02497 -0.489853,0.06322 -0.187261,0.08819 -0.531098,0.09939 -0.764069,0.02478 -0.23297,-0.07453 -0.508926,-0.09537 -0.613225,-0.04621 -0.104328,0.04916 -0.325824,0.04031 -0.492271,-0.01957 -0.463866,-0.166781 -0.672591,0.01534 -0.617532,0.538679 0.02753,0.261532 0.01789,0.586501 -0.02124,0.722164 -0.03923,0.135643 -0.09449,0.492183 -0.122832,0.792306 -0.02841,0.300104 -0.178796,0.772229 -0.334339,1.04913 -0.248013,0.441567 -0.305855,0.481397 -0.470336,0.323759 -0.120177,-0.115163 -0.103089,-0.398945 0.04749,-0.789809 0.159486,-0.413939 0.173683,-0.740412 0.04405,-1.015464 -0.126716,-0.268975 -0.119902,-0.501051 0.02015,-0.68965 0.341448,-0.459442 -0.09468,-0.999487 -0.727876,-0.901225 -0.279132,0.04336 -0.530567,0.02979 -0.558756,-0.02999 -0.02812,-0.05978 -0.143794,-0.06519 -0.256931,-0.0119 -0.113128,0.05329 -0.23476,0.0352 -0.270293,-0.04021 -0.03549,-0.07541 -0.157175,-0.0935 -0.270332,-0.04021 -0.113118,0.05329 -0.234751,0.0352 -0.270284,-0.04021 -0.03549,-0.07541 -0.373165,0.0079 -0.750284,0.185904 -0.377108,0.177656 -0.658069,0.381592 -0.624315,0.453189 0.09909,0.210337 1.32599,0.555157 1.569746,0.441164 0.122734,-0.05781 0.356225,-0.04238 0.518454,0.03353 0.162229,0.0759 0.51813,0.131533 0.79091,0.123569 l 0.495919,-0.01445 -0.44316,0.215312 c -0.243766,0.118348 -0.472234,0.153596 -0.507786,0.07816 -0.03549,-0.07541 -0.238093,-0.05535 -0.450131,0.04454 -0.212039,0.09989 -0.576149,0.12061 -0.809149,0.04601 -0.232961,-0.07453 -0.518729,-0.09075 -0.635033,-0.03599 -0.116283,0.05476 -0.240492,0.03785 -0.276025,-0.03756 -0.03549,-0.07541 -0.157185,-0.0935 -0.270303,-0.04021 -0.113147,0.05329 -0.234779,0.0352 -0.270312,-0.04021 -0.101113,-0.214634 -1.255445,0.390647 -1.335311,0.70015 -0.124759,0.483728 0.470179,1.090395 1.160635,1.183514 0.342175,0.04611 0.679591,0.05683 0.749782,0.02379 0.0702,-0.03304 0.15634,0 0.19143,0.07531 0.0351,0.07453 0.509546,0.281295 1.05435,0.45957 0.880884,0.288246 1.020381,0.387422 1.259978,0.896074 0.153154,0.325077 0.218606,0.680624 0.15163,0.82368 -0.163615,0.34953 -0.355065,0.187025 -0.680604,-0.577682 -0.315334,-0.740757 -0.912081,-1.073395 -1.613716,-0.899564 -0.231839,0.05742 -0.562187,0.05388 -0.73408,-0.0079 -0.171875,-0.06184 -0.364809,-0.09193 -0.428717,-0.06686 -0.06391,0.02507 -0.332353,-0.06253 -0.59655,-0.194507 -0.36124,-0.180458 -0.589255,-0.451134 -0.91973,-1.091634 -0.403911,-0.782789 -0.420674,-0.892927 -0.212313,-1.360019 0.210612,-0.471407 0.252565,-0.500648 0.576659,-0.402062 0.38936,0.118427 1.357473,-0.349982 1.321537,-0.639417 -0.03844,-0.309553 -1.07371,-0.56909 -1.489203,-0.373353 -0.21597,0.101752 -0.418383,0.130481 -0.449777,0.06391 -0.07561,-0.160498 -0.616882,-0.05319 -0.892249,0.176869 -0.279938,0.233914 -0.473993,1.621817 -0.255948,1.830768 0.09095,0.08711 0.08003,0.307694 -0.02438,0.490088 -0.289938,0.50698 -0.383214,1.669522 -0.170232,2.12163 0.10478,0.222391 0.137825,0.55086 0.07344,0.729941 -0.06519,0.181352 0.01131,0.708901 0.172405,1.190662 0.159191,0.475753 0.250885,0.972282 0.203779,1.103353 -0.100759,0.280164 0.156782,0.877757 0.461812,1.071635 0.13875,0.08819 0.177911,0.235704 0.111613,0.420192 -0.145799,0.405543 1.000294,2.780839 1.631571,3.38143 0.259163,0.246549 0.646654,0.708754 0.86112,1.027106 0.520175,0.77217 1.159455,1.16439 2.814613,1.726754 1.37868,0.468449 1.936383,0.523361 2.733094,0.269123 0.23127,-0.07384 0.475547,-0.114396 0.542848,-0.09016 0.06735,0.02419 0.283467,-0.07531 0.480325,-0.22126 0.196897,-0.145869 0.770617,-0.459609 1.274922,-0.697191 z m 2.393102,-3.741106 c -0.161629,-0.05811 -0.185875,-0.482537 -0.03176,-0.555177 0.06735,-0.03176 0.180615,0.06578 0.251681,0.216591 0.125929,0.267294 0.02291,0.425885 -0.219923,0.338586 z m 1.407419,-12.241241 c 0.103089,-0.286752 0.03805,-0.477749 -0.4057,-1.191311 -0.290645,-0.467406 -0.748219,-1.349528 -1.016782,-1.960314 -0.56259,-1.279396 -1.80021,-3.202762 -2.139337,-3.32467 -0.12701,-0.04562 -0.27281,-0.138711 -0.323966,-0.206778 -0.566729,-0.753696 -0.911205,-1.031805 -1.272445,-1.027194 -0.266675,0.0029 -0.544401,-0.154599 -0.7985,-0.454231 -0.701458,-0.827269 -1.216727,-0.154796 -0.936838,1.222744 0.08544,0.420556 0.14933,1.033063 0.142005,1.36111 -0.01376,0.618692 0.08141,1.068764 0.517274,2.446018 0.273016,0.862527 0.260372,0.994896 -0.22306,2.339468 -0.169563,0.471536 -0.270332,0.93788 -0.223964,1.036319 0.113973,0.241917 1.087592,0.498898 1.376114,0.363235 0.127571,-0.05998 0.299189,-0.06528 0.381316,-0.0119 0.0821,0.05339 0.269969,0.04031 0.417391,-0.0291 0.147431,-0.06941 0.400449,-0.123146 0.562295,-0.119321 0.161845,0.0039 0.69428,0.01701 1.183169,0.0291 0.906752,0.02261 1.275877,-0.06174 1.299316,-0.296878 0.0069,-0.07256 -0.499793,-1.109282 -1.126802,-2.303877 -1.062314,-2.024125 -1.180604,-2.19653 -1.737777,-2.532678 -1.135936,-0.685333 -1.691211,-1.10238 -1.553906,-1.167065 0.269368,-0.126912 1.299984,0.247699 1.939126,0.704821 0.600542,0.429523 0.709324,0.592322 1.459382,2.184496 0.669848,1.421832 0.871562,1.745828 1.162424,1.867087 0.305393,0.127286 0.358919,0.2213 0.404668,0.710385 0.0412,0.440486 0.109362,0.590189 0.311774,0.684911 0.33487,0.156743 0.452658,0.09331 0.602862,-0.324458 z m -5.385596,-6.99588 c -0.06863,-0.162868 -0.05152,-0.210661 0.04385,-0.121888 0.08623,0.08033 0.137088,0.200899 0.11297,0.267943 -0.02409,0.06705 -0.09468,0.002 -0.156811,-0.146055 z M 18.21707,58.56336 c -0.310329,-0.658689 -0.482498,-0.867325 -0.828695,-1.004138 -0.29677,-0.117286 -0.458989,-0.28629 -0.505554,-0.526703 -0.07325,-0.378278 0.950632,-3.599033 1.178263,-3.706271 0.07472,-0.0352 0.102745,-0.231889 0.06234,-0.437124 -0.04041,-0.205244 0.03136,-0.470345 0.159554,-0.589156 0.326926,-0.303122 0.08564,-0.70308 -0.420251,-0.696621 -0.520794,0.0069 -1.210847,0.31672 -1.238111,0.556387 -0.01101,0.09734 -0.32142,0.318971 -0.689631,0.492458 -0.36821,0.173476 -0.678549,0.395081 -0.68962,0.492448 -0.01101,0.09743 -0.139939,0.233501 -0.286339,0.302463 -0.146389,0.06902 -0.23709,0.187114 -0.201557,0.262536 0.03549,0.07541 -0.139753,0.233393 -0.389526,0.351053 -0.264551,0.124641 -0.523046,0.386321 -0.619292,0.626902 -0.09085,0.22712 -0.217819,0.437762 -0.28217,0.468084 -0.0644,0.03028 -0.194969,0.250039 -0.290262,0.48826 -0.09527,0.238221 -0.240305,0.480797 -0.322226,0.539062 -0.436484,0.310369 -0.700189,0.654628 -0.568282,0.816523 0.178166,0.218714 0.230866,0.648315 0.262997,1.269623 0.0088,0.166535 -0.245192,0.190909 -0.209678,0.26633 0.03549,0.07541 -0.06253,0.197044 -0.217928,0.270244 -0.242645,0.114337 -0.242301,0.202904 0.003,0.627324 0.278591,0.483393 0.29855,0.48887 0.913997,0.250865 0.381209,-0.147441 0.791815,-0.43377 1.041874,-0.726539 0.411304,-0.481515 0.670054,-0.567398 0.629241,-0.208764 -0.0119,0.103865 -0.168462,0.258091 -0.348113,0.342725 -0.463818,0.218528 -0.435728,0.464113 0.07168,0.626538 0.423251,0.135456 1.542443,-0.220543 1.434045,-0.456148 -0.08347,-0.181372 0.557467,-1.142377 0.855467,-1.282759 0.217033,-0.102233 0.300871,-0.06214 0.343129,0.164382 0.04021,0.215224 -0.07954,0.377876 -0.424607,0.577083 -0.386872,0.223296 -0.460249,0.34309 -0.37643,0.614572 0.128583,0.416466 0.530813,0.620452 0.88983,0.451301 0.148582,-0.07 0.485723,-0.07767 0.749252,-0.01701 0.706924,0.16274 0.79676,-0.181923 0.314321,-1.205961 z m -8.07774,3.019237 c -0.02124,-0.266488 0.003,-0.50409 0.05368,-0.527972 0.05073,-0.02389 0.05752,-0.219697 0.01504,-0.435137 -0.04238,-0.21541 0.03372,-0.837779 0.168924,-1.383036 0.344516,-1.388158 1.386094,-4.283737 1.572529,-4.371567 0.137364,-0.06469 1.292581,-1.383271 1.769829,-2.020093 0.09822,-0.131111 0.330131,-0.309749 0.515239,-0.39696 0.185157,-0.08721 0.345685,-0.23827 0.356756,-0.335656 0.01131,-0.09868 0.619508,-0.459422 1.374482,-0.815077 1.810317,-0.852872 1.957798,-1.02043 1.68076,-1.909906 -0.120856,-0.387993 -0.185629,-0.867876 -0.143961,-1.066424 0.04169,-0.198549 -0.01406,-0.551431 -0.123609,-0.784234 -0.109676,-0.232784 -0.168177,-0.604288 -0.130009,-0.825568 0.03815,-0.22131 -0.05044,-0.743077 -0.1967,-1.159504 -0.146311,-0.416427 -0.288777,-1.037164 -0.316553,-1.379369 -0.02782,-0.342214 -0.142722,-0.721662 -0.255407,-0.843196 -0.221565,-0.238988 -0.587859,-0.155219 -0.554282,0.126715 0.02861,0.240158 -1.002289,0.742163 -1.167812,0.568716 -0.07305,-0.07649 -0.343591,-0.03982 -0.601319,0.08161 -0.257658,0.121406 -0.49758,0.159023 -0.533113,0.08357 -0.03549,-0.07541 -0.218881,-0.0645 -0.407421,0.02438 -0.188579,0.08888 -0.371907,0.09982 -0.40746,0.02438 -0.03549,-0.07541 -0.249734,-0.04995 -0.476009,0.05673 -0.226265,0.106589 -0.440466,0.132094 -0.475979,0.05663 -0.03559,-0.07541 -0.128476,-0.107062 -0.206533,-0.0703 -0.07807,0.03677 -1.045432,-0.261552 -2.1497191,-0.662936 C 8.3963723,43.217019 7.4395561,42.913729 7.3743991,42.944415 7.3092126,42.975091 6.9660444,42.759759 6.6117562,42.465869 6.1094759,42.049226 5.8972019,41.964651 5.6481658,42.081977 c -0.1756595,0.08279 -0.2903111,0.212166 -0.2547584,0.287578 0.035494,0.07541 -0.028021,0.180742 -0.1410998,0.234061 -0.1131571,0.05329 -0.1766132,0.158611 -0.1410998,0.234033 0.035592,0.07541 -0.027923,0.180733 -0.1411096,0.234032 -0.1131178,0.05329 -0.1766132,0.158621 -0.14109,0.234033 0.035494,0.07541 -0.045227,0.188883 -0.179376,0.252093 -0.1342173,0.06322 -0.2748157,0.280283 -0.3124626,0.482331 -0.037657,0.202079 -0.1145435,0.389104 -0.1708811,0.415651 -0.056338,0.02655 -0.3752207,0.83481 -0.7086945,1.796188 -0.5443516,1.569363 -0.5814185,1.800849 -0.3625275,2.265413 0.2327346,0.494061 0.1555235,0.749576 -0.163684,0.541825 -0.082196,-0.05349 -0.2021077,-0.07236 -0.2665371,-0.04198 -0.1354562,0.06381 -0.3436696,2.297437 -0.2644724,2.836784 0.0293,0.199502 0.031659,0.599165 0.00492,0.888129 -0.027038,0.295217 0.1124,0.945018 0.3183029,1.483215 0.294293,0.769299 0.3289117,1.035462 0.1759249,1.35231 -0.3723792,0.771167 0.5815758,3.134124 1.6692075,4.134585 0.3762235,0.346049 0.7804684,0.683446 0.8983744,0.749743 0.1178961,0.06637 0.4393551,0.295857 0.714338,0.510068 0.275032,0.21422 0.7616302,0.475114 1.0813588,0.579756 0.3197678,0.104633 0.73354,0.250541 0.9194838,0.324242 0.1859634,0.07364 0.499606,0.05791 0.6970238,-0.0352 0.2497341,-0.11766 0.4555092,-0.08721 0.6765927,0.100159 0.4235158,0.35888 0.6301072,0.23187 0.5831882,-0.358526 z M 8.480456,59.760481 C 8.1103578,59.608792 7.4648048,59.215392 7.0459102,58.886284 6.6270352,58.557176 6.2263692,58.290058 6.1555686,58.292664 6.0847778,58.295613 5.9867719,58.212434 5.9377689,58.108421 5.8888053,58.004467 5.4183612,57.566105 4.8923856,57.13433 3.9729116,56.379533 3.3793702,55.550986 3.6625629,55.417575 c 0.1896799,-0.08937 1.3133755,0.649191 1.459411,0.959176 0.066366,0.140804 0.3110862,0.340179 0.5438502,0.443032 0.2328034,0.102873 0.4733741,0.293447 0.5346671,0.423506 0.061254,0.130068 0.2346321,0.268307 0.3852592,0.307153 0.1506369,0.03884 0.39926,0.233354 0.5524729,0.432247 0.1532129,0.198882 0.3867439,0.404136 0.5189162,0.456118 0.444222,0.174765 1.4817986,0.846825 1.7208257,1.114641 0.3719466,0.416771 -0.1128425,0.52864 -0.8975092,0.207033 z m 5.704223,-17.427059 c 0.197802,-0.415749 0.413989,-0.781511 0.480394,-0.812796 0.06637,-0.03137 0.156556,-0.373284 0.200269,-0.75994 0.04375,-0.386704 0.231545,-0.891403 0.417381,-1.121621 0.185836,-0.230188 0.383519,-0.610885 0.439276,-0.846028 0.05575,-0.235114 0.195826,-0.590582 0.311244,-0.789937 0.115409,-0.199345 0.341349,-0.680162 0.502044,-1.068479 0.160695,-0.388317 0.500816,-1.143566 0.755761,-1.678341 0.254965,-0.534756 0.462332,-1.028276 0.460818,-1.096687 -0.002,-0.06843 0.06361,-0.155622 0.144571,-0.19378 0.08102,-0.03815 0.349126,-0.456168 0.595744,-0.928893 0.246637,-0.472705 0.748573,-1.345281 1.115387,-1.939028 0.816601,-1.321763 1.058263,-2.008355 0.79558,-2.260114 -0.236136,-0.226295 -0.715783,0.119302 -1.089735,0.785129 -0.136115,0.242301 -0.283527,0.457544 -0.327594,0.478309 -0.07099,0.03343 -0.208686,0.292897 -0.533566,1.005436 -0.05349,0.117365 -0.1657,0.321036 -0.249322,0.452599 -0.08367,0.131543 -0.407243,0.698744 -0.719224,1.260469 -0.311961,0.561696 -0.633853,1.128071 -0.715321,1.258611 -0.176319,0.282554 -0.577869,1.145031 -0.799513,1.717208 -0.299337,0.772711 -1.018119,2.239122 -1.121405,2.287761 -0.132713,0.06253 -0.516498,1.204791 -0.451301,1.343177 0.02723,0.05771 -0.109883,0.286929 -0.304627,0.509379 -0.194714,0.222479 -0.400764,0.564183 -0.457869,0.759349 -0.05712,0.195147 -0.204605,0.402298 -0.327751,0.460317 -0.123147,0.05801 -0.194822,0.167174 -0.15927,0.242596 0.03549,0.07541 -0.0059,0.170114 -0.09095,0.210386 -0.249036,0.117326 -0.461841,1.105349 -0.308353,1.431636 0.130825,0.27805 0.37351,0.312148 0.878592,0.12355 0.10949,-0.0409 0.360905,-0.41452 0.558687,-0.830268 z m -2.470461,32.987975 c -0.06873,-0.162848 -0.05152,-0.210661 0.04385,-0.121878 0.08623,0.08033 0.137099,0.200908 0.112971,0.267934 -0.02409,0.06705 -0.09468,0.002 -0.156782,-0.146056 z M 9.4357875,73.574222 C 9.1716592,73.321105 8.988901,72.629951 9.1467743,72.480661 9.3608967,72.27819 9.9128191,72.864554 9.8919554,73.272358 9.8719964,73.663566 9.6690726,73.797803 9.4357875,73.574222 Z M 28.353662,62.79076 c -0.324016,-0.310487 -0.440024,-0.700613 -0.236825,-0.796348 0.23595,-0.111161 0.590818,0.237179 0.618171,0.606795 0.02487,0.336355 -0.141749,0.41917 -0.381346,0.189533 z m 0.03441,-1.370962 c -0.214467,-0.07708 -0.43851,-0.656526 -0.322678,-0.834496 0.17152,-0.263528 0.519034,-0.04277 0.602842,0.383037 0.07679,0.390274 -0.01937,0.545217 -0.280164,0.451459 z m -0.261769,-1.741306 c -0.285906,-0.606854 -0.16155,-1.202323 0.175001,-0.837917 0.254218,0.275307 0.395494,1.080837 0.219088,1.249201 -0.09173,0.08751 -0.224319,-0.05093 -0.394089,-0.411284 z m 0.0049,-1.654243 c -0.206837,-0.07433 -2.266937,-4.520179 -2.125473,-4.586811 0.234966,-0.110699 0.499586,0.310998 1.406563,2.24163 0.851879,1.813237 1.051568,2.464758 0.71891,2.345181 z M 8.9482848,39.245144 c -0.4240565,-0.01976 -0.8201703,-0.08701 -0.8802638,-0.14929 -0.063613,-0.06607 0.2378374,-0.276811 0.7223708,-0.505082 0.7675294,-0.361603 0.8502662,-0.369046 1.0735718,-0.09635 0.2724954,0.332766 0.2840484,0.640843 0.027333,0.728201 -0.094584,0.03215 -0.5189653,0.04238 -0.9430316,0.02251 z"
       id="path110"
       sodipodi:nodetypes="cssscssssssssscsccsssssscssssssssscsccscssssssssssscsssssscsssscsscssssssssssscscscscsssssssssssssssssssccsssssssssssccssssccssssccssssssssccsscsscssscsscsssssscssssscssscsssscsssssssssssscsssssscssssscccssssscscssssscsscssssssssssscscscsssssssscsscsssssssscscssssscsssssssscssccsssssssssscssssssssscsssssscssssssssssssccsssscssscssssssssssscscssssssscccsscsssssscssssssssscscssssscsssssssscssssscsssscsscsssssssssssssssssssssssssssssssssssssssssssscsssssssscsssssssssscssssssssssssssssscssscsscsssssssssssssssssssssssssss" />
  </g>
</svg>
