<?xml version="1.0" encoding="UTF-8" standalone="no"?>
<!-- Created with Inkscape (http://www.inkscape.org/) -->

<svg
   width="86mm"
   height="105mm"
   viewBox="0 0 86 105"
   version="1.1"
   id="svg1357"
   inkscape:version="1.2.2 (b0a8486541, 2022-12-01)"
   sodipodi:docname="LogoSVG.svg"
   xmlns:inkscape="http://www.inkscape.org/namespaces/inkscape"
   xmlns:sodipodi="http://sodipodi.sourceforge.net/DTD/sodipodi-0.dtd"
   xmlns="http://www.w3.org/2000/svg"
   xmlns:svg="http://www.w3.org/2000/svg">
  <sodipodi:namedview
     id="namedview1359"
     pagecolor="#505050"
     bordercolor="#eeeeee"
     borderopacity="1"
     inkscape:showpageshadow="0"
     inkscape:pageopacity="0"
     inkscape:pagecheckerboard="0"
     inkscape:deskcolor="#505050"
     inkscape:document-units="mm"
     showgrid="false"
     inkscape:zoom="1.5622219"
     inkscape:cx="110.41965"
     inkscape:cy="253.48512"
     inkscape:window-width="1920"
     inkscape:window-height="1058"
     inkscape:window-x="566"
     inkscape:window-y="1277"
     inkscape:window-maximized="1"
     inkscape:current-layer="layer1" />
  <defs
     id="defs1354" />
  <g
     inkscape:label="Capa 1"
     inkscape:groupmode="layer"
     id="layer1">
    <g
       id="g2158"
       style="fill:#1a1a1a;fill-opacity:1"
       transform="translate(-36.391057,-347.65632)">
      <path
         d="m 61.177784,409.92998 v -5.23954 c 1.16435,0 2.0085,-0.21831 2.53245,-0.65494 0.52395,-0.43663 0.78593,-1.25167 0.78593,-2.44512 v -27.5825 h 5.9818 l 0.0437,27.84448 c 0,3.17283 -0.71316,5.31231 -2.13947,6.41843 -1.39721,1.10613 -3.79867,1.65919 -7.20437,1.65919 z"
         id="path1325"
         style="font-weight:bold;font-size:43.6628px;font-family:'Titillium Web';-inkscape-font-specification:'Titillium Web, Bold';letter-spacing:-1.98438px;fill:#1a1a1a;fill-opacity:1;stroke-width:5.45781"
         sodipodi:nodetypes="ccssccccsc" />
      <path
         d="m 84.779814,406.87358 h -9.99878 v -29.6907 h 9.99878 q 3.84232,0 6.3311,0.82959 2.48878,0.78593 3.84233,2.66343 1.39721,1.83384 1.92116,4.36628 0.52396,2.48878 0.52396,6.50576 0,4.01698 -0.48029,6.68041 -0.48029,2.61976 -1.83384,4.71558 -1.30989,2.05215 -3.84233,3.01273 -2.53244,0.91692 -6.46209,0.91692 z m 6.3311,-11.78895 q 0.0873,-1.39721 0.0873,-3.84233 0,-2.48878 -0.17465,-3.97332 -0.17465,-1.48453 -0.82959,-2.70709 -0.65495,-1.22256 -1.96483,-1.65919 -1.26622,-0.48029 -3.44936,-0.48029 h -3.97332 v 19.21164 h 3.97332 q 3.27471,0 4.75924,-1.65919 1.26622,-1.35355 1.57186,-4.89023 z"
         id="path1327"
         style="font-weight:bold;font-size:43.6628px;font-family:'Titillium Web';-inkscape-font-specification:'Titillium Web, Bold';letter-spacing:-1.98438px;fill:#1a1a1a;fill-opacity:1;stroke-width:5.45781" />
      <path
         d="m 100.65353,377.18288 h 11.65797 q 4.62826,0 6.94239,1.8775 2.31413,1.83384 2.31413,5.9818 0,2.48878 -0.74227,3.97332 -0.74227,1.44087 -2.53244,2.5761 1.96482,0.82959 2.88174,2.40146 0.96058,1.57186 0.96058,4.36628 0,4.32261 -2.53244,6.41843 -2.53244,2.09581 -7.11704,2.09581 h -11.83262 z m 11.52698,17.29047 H 106.679 v 7.24802 h 5.50151 q 1.96483,0 2.88175,-0.78593 0.96058,-0.78593 0.96058,-2.88174 0,-3.58035 -3.84233,-3.58035 z m -0.17465,-12.13826 H 106.679 v 7.07337 h 5.37052 q 3.4057,0 3.4057,-3.53669 0,-3.53668 -3.44936,-3.53668 z"
         id="path1329"
         style="font-weight:bold;font-size:43.6628px;font-family:'Titillium Web';-inkscape-font-specification:'Titillium Web, Bold';letter-spacing:-1.98438px;fill:#1a1a1a;fill-opacity:1;stroke-width:5.45781" />
      <path
         d="m 56.433044,435.08362 q 0,1.1565 -0.28913,2.26044 -0.26284,1.07765 -0.91994,1.94503 -0.63082,0.86737 -1.73475,1.39306 -1.07765,0.52568 -2.70727,0.52568 h -5.54596 v -37.6915 h 5.54596 q 1.62962,0 2.70727,0.52569 1.10393,0.52568 1.73475,1.39306 0.6571,0.86738 0.91994,1.97131 0.28913,1.10394 0.28913,2.26044 z m -5.65109,5.04656 q 1.34049,0 2.20787,-0.44683 0.89366,-0.44683 1.41934,-1.1565 0.52569,-0.70968 0.73596,-1.60334 0.21027,-0.91994 0.21027,-1.83989 v -25.41679 q 0,-0.91995 -0.21027,-1.81361 -0.21027,-0.91994 -0.73596,-1.62962 -0.52568,-0.73595 -1.41934,-1.18278 -0.86738,-0.44683 -2.20787,-0.44683 h -4.46831 v 35.53619 z"
         id="path1333"
         style="font-size:56.6863px;font-family:'Wire One';-inkscape-font-specification:'Wire One, Normal';fill:#1a1a1a;fill-opacity:1;stroke-width:6.72868" />
      <path
         d="m 71.572724,426.09443 h -10.01426 v 9.4623 q 0,0.94623 0.21027,1.86618 0.23656,0.91995 0.73596,1.6559 0.52568,0.70968 1.39306,1.15651 0.86738,0.44683 2.12901,0.44683 1.23536,0 2.07645,-0.39427 0.8411,-0.39426 1.3405,-1.02508 0.52568,-0.6571 0.76223,-1.4982 0.23656,-0.84109 0.28913,-1.73475 -0.0788,-0.0789 -0.13141,-0.21027 -0.0526,-0.13142 -0.0526,-0.21028 0,-0.28912 0.21027,-0.4994 0.21027,-0.21027 0.4994,-0.21027 0.28912,0 0.4994,0.21027 0.21027,0.21028 0.21027,0.4994 0,0.0789 -0.0526,0.21028 -0.0263,0.13142 -0.10514,0.21027 -0.0788,1.10394 -0.39426,2.12902 -0.28913,1.02508 -0.91995,1.8136 -0.63082,0.78853 -1.68219,1.26164 -1.02508,0.4994 -2.54957,0.4994 -1.57704,0 -2.65469,-0.52568 -1.05136,-0.55197 -1.70848,-1.41934 -0.63081,-0.86738 -0.91994,-1.97132 -0.26284,-1.10393 -0.26284,-2.26044 v -15.61279 q 0,-1.1565 0.26284,-2.26044 0.28913,-1.10393 0.91994,-1.97131 0.65712,-0.86738 1.70848,-1.39306 1.07765,-0.55197 2.65469,-0.55197 1.57706,0 2.62843,0.55197 1.05136,0.52568 1.70847,1.39306 0.6571,0.86738 0.91995,1.97131 0.28912,1.10394 0.28912,2.26044 z m -1.07765,-1.07765 v -5.07284 q 0,-0.91995 -0.21027,-1.83989 -0.21027,-0.91995 -0.73596,-1.62962 -0.4994,-0.73596 -1.36677,-1.18279 -0.86738,-0.47311 -2.15531,-0.47311 -1.26163,0 -2.12901,0.47311 -0.86738,0.44683 -1.39306,1.18279 -0.4994,0.70967 -0.73596,1.62962 -0.21027,0.91994 -0.21027,1.83989 v 5.07284 z"
         id="path1335"
         style="font-size:56.6863px;font-family:'Wire One';-inkscape-font-specification:'Wire One, Normal';fill:#1a1a1a;fill-opacity:1;stroke-width:6.72868" />
      <path
         d="m 83.768584,429.8005 q 0.68338,0.63082 1.13021,1.28793 0.44683,0.6571 0.68339,1.34049 0.26284,0.68339 0.3417,1.36678 0.10513,0.68338 0.10513,1.34049 0,1.36677 -0.28912,2.57585 -0.26284,1.20907 -0.94623,2.10273 -0.6571,0.89366 -1.78732,1.39306 -1.13023,0.52568 -2.83869,0.52568 -1.62962,0 -2.73355,-0.4994 -1.10394,-0.49939 -1.81361,-1.3142 -0.68339,-0.8411 -1.02509,-1.91875 -0.34169,-1.07765 -0.39426,-2.23415 -0.0788,-0.0789 -0.13142,-0.21028 -0.0263,-0.13142 -0.0263,-0.26284 0,-0.28912 0.184,-0.4994 0.21027,-0.21027 0.4994,-0.21027 0.28912,0 0.49939,0.21027 0.21027,0.21028 0.21027,0.4994 0,0.10514 -0.10513,0.31541 0.0263,0.94623 0.28913,1.86618 0.28912,0.91995 0.84109,1.6559 0.57825,0.70967 1.47192,1.1565 0.91994,0.44684 2.23415,0.44684 1.52448,0 2.47071,-0.47312 0.94623,-0.4994 1.47192,-1.28792 0.52567,-0.81481 0.68338,-1.81361 0.18399,-0.9988 0.18399,-2.02388 0,-1.34049 -0.4994,-2.497 -0.47312,-1.18278 -1.44563,-2.10273 l -6.09792,-5.46711 q -0.63082,-0.57825 -1.02509,-1.13022 -0.36798,-0.57825 -0.57825,-1.18278 -0.21027,-0.63083 -0.28913,-1.28793 -0.0788,-0.6571 -0.0788,-1.41934 0,-1.23536 0.28912,-2.36558 0.28913,-1.13022 0.94623,-1.9976 0.68339,-0.86737 1.76104,-1.39306 1.07766,-0.52568 2.65471,-0.52568 1.41934,0 2.41814,0.47311 0.9988,0.47312 1.62961,1.26165 0.63083,0.78852 0.94624,1.8136 0.31541,0.9988 0.36798,2.10274 0.18399,0.1577 0.18399,0.42054 0,0.28913 -0.21028,0.4994 -0.21027,0.21028 -0.4994,0.21028 -0.23655,0 -0.44683,-0.21028 -0.21027,-0.21027 -0.21027,-0.4994 0,-0.21027 0.18399,-0.36798 -0.0526,-0.86737 -0.31542,-1.70847 -0.26284,-0.84109 -0.78851,-1.47191 -0.52569,-0.6571 -1.3405,-1.05137 -0.78852,-0.42054 -1.91874,-0.42054 -1.26165,0 -2.15531,0.44683 -0.86737,0.44683 -1.41935,1.18278 -0.52567,0.70968 -0.76223,1.65591 -0.23656,0.94623 -0.23656,1.94503 0.0263,1.55076 0.36798,2.52328 0.3417,0.97251 1.23536,1.73475 z"
         id="path1337"
         style="font-size:56.6863px;font-family:'Wire One';-inkscape-font-specification:'Wire One, Normal';fill:#1a1a1a;fill-opacity:1;stroke-width:6.72868" />
      <path
         d="m 90.786454,440.60329 c 0.10513,0.14019 0.1577,0.28913 0.1577,0.44684 0,0.19275 -0.0701,0.35045 -0.21027,0.47311 -0.12266,0.14018 -0.28036,0.21027 -0.47311,0.21027 -0.19276,0 -0.35922,-0.0701 -0.4994,-0.21027 -0.14019,-0.12266 -0.21028,-0.28036 -0.21028,-0.47311 0,-0.15771 0.0526,-0.30665 0.15771,-0.44684 v -25.65334 c -0.10514,-0.17523 -0.15771,-0.3417 -0.15771,-0.4994 0,-0.19275 0.0701,-0.35046 0.21028,-0.47312 0.14018,-0.14018 0.30664,-0.21027 0.4994,-0.21027 0.19275,0 0.35045,0.0701 0.47311,0.21027 0.14018,0.12266 0.21027,0.28037 0.21027,0.47312 0,0.1577 -0.0526,0.32417 -0.1577,0.4994 z"
         id="path1339"
         sodipodi:nodetypes="cscscsccscscscc"
         style="font-size:56.6863px;font-family:'Wire One';-inkscape-font-specification:'Wire One, Normal';fill:#1a1a1a;fill-opacity:1;stroke-width:6.72868" />
      <path
         d="m 106.03126,446.33324 q 0,1.15651 -0.28912,2.26044 -0.26284,1.10394 -0.91994,1.97131 -0.6571,0.86738 -1.70848,1.39307 -1.05136,0.55196 -2.62841,0.55196 -1.498196,0 -2.549556,-0.47311 -1.02509,-0.47312 -1.68219,-1.26164 -0.65711,-0.78853 -0.9988,-1.81361 -0.31541,-0.9988 -0.36798,-2.10273 -0.18399,-0.18399 -0.18399,-0.47312 0,-0.26284 0.21028,-0.47311 0.21027,-0.18399 0.4994,-0.18399 0.28912,0 0.49939,0.18399 0.21028,0.21027 0.21028,0.47311 0,0.13142 -0.0526,0.26284 -0.0263,0.13142 -0.10514,0.21028 0.0263,0.89366 0.28913,1.70847 0.26284,0.84109 0.78853,1.47191 0.55196,0.63082 1.39305,0.9988 0.8411,0.39426 2.050166,0.39426 1.26164,0 2.12902,-0.44683 0.86738,-0.44683 1.36677,-1.1565 0.52569,-0.70967 0.73596,-1.62962 0.23656,-0.91995 0.23656,-1.86618 v -6.86016 q -0.73596,1.02508 -1.78732,1.6559 -1.05138,0.60453 -2.68099,0.60453 -1.603326,0 -2.680986,-0.52568 -1.05136,-0.55197 -1.70846,-1.41934 -0.63083,-0.86738 -0.89366,-1.97132 -0.26285,-1.10393 -0.26285,-2.26044 v -15.61279 q 0,-1.1565 0.26285,-2.26044 0.26283,-1.10393 0.89366,-1.97131 0.6571,-0.86738 1.70846,-1.39306 1.07766,-0.55197 2.680986,-0.55197 1.62961,0 2.68099,0.63082 1.05136,0.60454 1.78732,1.62962 v -1.13022 q -0.18399,-0.31541 -0.18399,-0.4994 0,-0.28913 0.21027,-0.4994 0.21028,-0.21027 0.4994,-0.21027 0.28913,0 0.4994,0.21027 0.21028,0.21027 0.21028,0.4994 0,0.23656 -0.15771,0.4994 z M 96.017004,435.55673 q 0,0.91995 0.21027,1.8399 0.21028,0.91994 0.70968,1.6559 0.52568,0.73596 1.36677,1.18279 0.86738,0.44683 2.181586,0.44683 1.26164,0 2.10273,-0.39427 0.8411,-0.42054 1.3405,-1.07765 0.52567,-0.68338 0.73595,-1.52448 0.23656,-0.86738 0.28913,-1.76104 v -15.98077 q 0,-0.91995 -0.28913,-1.83989 -0.26284,-0.91995 -0.81481,-1.62962 -0.55197,-0.73596 -1.39306,-1.18279 -0.84109,-0.47311 -1.97131,-0.47311 -1.314206,0 -2.181586,0.47311 -0.84109,0.44683 -1.36677,1.18279 -0.4994,0.70967 -0.70968,1.62962 -0.21027,0.91994 -0.21027,1.83989 z"
         id="path1341"
         style="font-size:56.6863px;font-family:'Wire One';-inkscape-font-specification:'Wire One, Normal';fill:#1a1a1a;fill-opacity:1;stroke-width:6.72868" />
      <path
         d="m 121.35493,440.60329 q 0.15771,0.21028 0.15771,0.44684 0,0.28912 -0.21027,0.47311 -0.21027,0.21027 -0.4994,0.21027 -0.28913,0 -0.4994,-0.21027 -0.18399,-0.18399 -0.18399,-0.47311 0,-0.23656 0.1577,-0.44684 v -20.65935 q 0,-0.91995 -0.21027,-1.83989 -0.21027,-0.91995 -0.73596,-1.62962 -0.4994,-0.73596 -1.36678,-1.18279 -0.84109,-0.47311 -2.15529,-0.47311 -1.13022,0 -1.97132,0.47311 -0.84109,0.44683 -1.39306,1.18279 -0.55196,0.70967 -0.84109,1.62962 -0.26284,0.91994 -0.26284,1.83989 v 20.65935 q 0.1577,0.21028 0.1577,0.44684 0,0.28912 -0.21027,0.47311 -0.21028,0.21027 -0.4994,0.21027 -0.28912,0 -0.4994,-0.21027 -0.18399,-0.18399 -0.18399,-0.47311 0,-0.23656 0.15771,-0.44684 v -25.65334 q -0.15771,-0.26284 -0.15771,-0.4994 0,-0.28913 0.18399,-0.47312 0.21028,-0.21027 0.4994,-0.21027 0.28912,0 0.4994,0.21027 0.21027,0.18399 0.21027,0.47312 0,0.23656 -0.1577,0.4994 v 1.34049 q 0.73595,-1.28792 1.78732,-1.89246 1.05137,-0.63082 2.68099,-0.63082 1.60333,0 2.6547,0.55197 1.07764,0.52568 1.70847,1.39306 0.6571,0.86738 0.91995,1.97131 0.26283,1.10394 0.26283,2.26044 z"
         id="path1343"
         style="font-size:56.6863px;font-family:'Wire One';-inkscape-font-specification:'Wire One, Normal';fill:#1a1a1a;fill-opacity:1;stroke-width:6.72868" />
      <path
         style="color:#000000;fill:#1a1a1a;fill-opacity:1;-inkscape-stroke:none"
         d="m 66.808594,357.79102 -30.16211,33.16796 11.863282,-0.5664 5.441406,10.55664 13.642578,-42.70508 z m -0.744141,2.19531 -12.316406,38.54883 -4.6875,-9.09571 -10.22461,0.48828 z"
         id="path1349" />
      <path
         style="color:#000000;fill:#1a1a1a;fill-opacity:1;-inkscape-stroke:none"
         d="m 293.61914,198.24805 v 0.46289 13.81836 h 14.28125 v -14.28125 z m 0.92578,0.92578 h 12.42969 v 12.42969 h -12.42969 z"
         id="rect1351"
         transform="rotate(45)" />
    </g>
  </g>
</svg>
