<?xml version="1.0" encoding="UTF-8" standalone="no"?>
<!-- Created with Inkscape (http://www.inkscape.org/) -->

<svg
   width="86mm"
   height="105mm"
   viewBox="0 0 86 105"
   version="1.1"
   id="svg1357"
   inkscape:version="1.3.2 (091e20ef0f, 2023-11-25, custom)"
   sodipodi:docname="LogoSVGwhite.svg"
   xmlns:inkscape="http://www.inkscape.org/namespaces/inkscape"
   xmlns:sodipodi="http://sodipodi.sourceforge.net/DTD/sodipodi-0.dtd"
   xmlns="http://www.w3.org/2000/svg"
   xmlns:svg="http://www.w3.org/2000/svg">
  <sodipodi:namedview
     id="namedview1359"
     pagecolor="#505050"
     bordercolor="#eeeeee"
     borderopacity="1"
     inkscape:showpageshadow="0"
     inkscape:pageopacity="0"
     inkscape:pagecheckerboard="0"
     inkscape:deskcolor="#505050"
     inkscape:document-units="mm"
     showgrid="false"
     inkscape:zoom="0.78111095"
     inkscape:cx="421.19497"
     inkscape:cy="212.51782"
     inkscape:window-width="1920"
     inkscape:window-height="1052"
     inkscape:window-x="1920"
     inkscape:window-y="0"
     inkscape:window-maximized="1"
     inkscape:current-layer="layer1" />
  <defs
     id="defs1354" />
  <g
     inkscape:label="Capa 1"
     inkscape:groupmode="layer"
     id="layer1">
    <path
       style="fill:#1a1a1a;fill-opacity:1;stroke-width:0.149907"
       d="m 20.760296,78.813591 c -0.513962,-0.02693 -0.98177,-0.09655 -1.039563,-0.154789 -0.05775,-0.05814 -0.243101,-0.04074 -0.411784,0.0388 -0.168683,0.07944 -0.474643,0.07448 -0.679932,-0.01118 -0.205251,-0.08556 -0.42494,-0.13124 -0.488158,-0.10144 -0.407283,0.191872 -2.912476,-1.313233 -3.199331,-1.92212 -0.08342,-0.177171 -0.332582,-0.433117 -0.553574,-0.568741 -0.27647,-0.169675 -0.609577,-0.629899 -1.067847,-1.475237 -0.642421,-1.185066 -0.653223,-1.224055 -0.305367,-1.098824 0.227156,0.08177 0.589694,0.476762 0.979398,1.067069 0.340292,0.515469 0.747915,0.99406 0.905824,1.063559 0.157881,0.06952 0.360001,0.281157 0.449121,0.470326 0.08916,0.189198 0.3572,0.441634 0.595712,0.561002 0.238523,0.119358 0.473885,0.298172 0.523034,0.397346 0.195061,0.393602 2.142627,0.966213 2.928247,0.860953 0.150024,-0.02013 0.295012,0.01069 0.322158,0.06826 0.02713,0.05766 0.362188,0.05649 0.744512,-0.0029 0.382344,-0.05902 0.714585,-0.06602 0.738377,-0.01556 0.07798,0.165601 1.244075,-0.315469 1.803657,-0.744093 0.774692,-0.593418 1.651678,-1.703015 2.027925,-2.565826 0.176675,-0.405143 0.614429,-1.345572 0.972825,-2.089831 0.358406,-0.744278 0.591746,-1.413477 0.518552,-1.487108 -0.154429,-0.15543 -0.753613,0.173602 -0.728703,0.400156 0.0097,0.0841 -0.08799,0.202294 -0.216072,0.262625 -0.294059,0.138551 -0.818551,0.759116 -0.756325,0.894867 0.02635,0.05591 -0.07516,0.159699 -0.224356,0.229966 -0.149188,0.0703 -0.24247,0.188819 -0.207331,0.263403 0.0351,0.07458 -0.08867,0.207477 -0.275149,0.295324 -0.186465,0.0878 -0.310287,0.220739 -0.275148,0.295342 0.03811,0.08089 -0.455936,0.380516 -1.224405,0.742539 -0.768469,0.362022 -1.31408,0.552202 -1.352193,0.471317 -0.0351,-0.07457 -0.216432,-0.06378 -0.402917,0.02411 -0.186447,0.0879 -0.36776,0.09869 -0.402918,0.02411 -0.0351,-0.07457 -0.246952,-0.04939 -0.470685,0.0561 -0.223773,0.105416 -0.428897,0.146116 -0.45582,0.09042 -0.05989,-0.123529 -0.867701,-0.129772 -1.124774,-0.0088 -0.102363,0.04823 -0.302363,0.0492 -0.444522,0.0029 -0.535858,-0.177005 -1.06142,-0.287127 -1.158629,-0.24279 -0.05571,0.0246 -0.344327,-0.07545 -0.642072,-0.223802 -0.297754,-0.148362 -0.633252,-0.306544 -0.7456,-0.351493 -0.284775,-0.11403 -0.942218,-0.759981 -1.412281,-1.387633 -0.217686,-0.290695 -0.650132,-0.748926 -0.960983,-1.018289 -0.310812,-0.269373 -0.68914,-0.753 -0.84072,-1.07476 -0.15158,-0.32176 -0.35439,-0.593963 -0.450685,-0.60493 -0.248917,-0.02829 -0.504794,-0.645173 -0.574984,-1.386204 -0.03306,-0.348965 -0.15192,-0.836257 -0.264074,-1.08283 -0.112173,-0.246563 -0.182907,-0.623365 -0.157229,-0.837317 0.02567,-0.213972 -0.02353,-0.646301 -0.109237,-0.960769 -0.08576,-0.314468 -0.109849,-0.699942 -0.05357,-0.856587 0.05639,-0.156666 0.03247,-0.433263 -0.05299,-0.614653 -0.08546,-0.18143 -0.140612,-0.615061 -0.122557,-0.963666 0.01809,-0.348586 -0.0049,-0.713554 -0.05066,-0.810997 -0.04589,-0.09747 -0.02314,-0.365698 0.05066,-0.596082 0.171872,-0.537074 -0.09042,-1.09195 -0.5795044,-1.226243 -0.2105494,-0.05775 -0.4296745,-0.08294 -0.4869326,-0.056 -0.057268,0.02693 -0.2495967,-0.0316 -0.42738,-0.130083 C 8.7455498,60.624033 8.5412813,60.571121 8.4694582,60.604957 6.7628263,60.323294 5.2680175,59.317499 4.1691739,58.014037 3.4520903,57.112043 2.4063921,54.187374 2.453276,53.214958 2.4675687,52.916503 2.3809376,52.463144 2.2604903,52.207548 2.1400721,51.951923 2.0943842,51.629891 2.1589637,51.491913 c 0.06456,-0.137987 0.044725,-0.510598 -0.044142,-0.828051 -0.088867,-0.317443 -0.1083131,-0.602265 -0.043267,-0.632902 0.065046,-0.03063 0.076422,-0.334264 0.02528,-0.674702 -0.051143,-0.340457 -0.046476,-0.640933 0.010306,-0.667701 0.056879,-0.02674 0.062324,-0.234438 0.012154,-0.461419 -0.05017,-0.227011 0.00875,-1.130832 0.1303355,-2.00849 0.3294217,-2.37268 0.5184932,-3.080371 1.0201853,-3.818495 0.1629461,-0.239737 0.2737191,-0.483743 0.2461644,-0.542246 -0.027516,-0.05853 0.04142,-0.149499 0.1532816,-0.202207 0.1118814,-0.0527 0.1800293,-0.145464 0.1514731,-0.206135 -0.028585,-0.06067 0.1221197,-0.294731 0.3349346,-0.520137 0.2127954,-0.225396 0.3705301,-0.444589 0.3505301,-0.487039 -0.019932,-0.04249 0.099455,-0.234021 0.2654546,-0.425669 0.1660186,-0.191639 0.3753041,-0.532164 0.4651437,-0.756685 0.08984,-0.224541 0.2268548,-0.438202 0.3045408,-0.474808 0.077686,-0.03666 0.112562,-0.127575 0.077394,-0.202159 -0.0351,-0.07457 0.022557,-0.176334 0.1282548,-0.226125 0.1056685,-0.04978 0.1828683,-0.168051 0.1715898,-0.262849 -0.011181,-0.0948 0.2583958,-0.344308 0.5992516,-0.554478 l 0.6197768,-0.38213 -0.1473603,0.780506 c -0.1969958,1.043073 0.035002,1.153467 1.2024022,0.572213 0.5775696,-0.287507 0.933,-0.391882 1.0579976,-0.31053 0.1217308,0.07924 0.478503,-0.01935 1.0102391,-0.279125 0.452115,-0.220944 0.849208,-0.344026 0.882343,-0.273652 0.03316,0.07039 0.243355,0.04171 0.467108,-0.06368 0.32528,-0.153242 0.379436,-0.24983 0.270141,-0.481847 -0.07516,-0.159611 -0.281702,-0.320924 -0.458921,-0.358513 -0.303102,-0.06427 -0.306709,-0.07594 -0.06116,-0.196616 0.14561,-0.07156 0.716918,0.05231 1.291921,0.280087 1.148693,0.455032 1.234566,0.421848 1.67476,-0.647302 0.151308,-0.367487 0.34353,-0.70038 0.427127,-0.739767 0.08362,-0.03938 0.341129,-0.566106 0.572252,-1.170453 0.231094,-0.604346 0.617346,-1.471075 0.858328,-1.926029 0.240972,-0.454974 0.582402,-1.10528 0.758756,-1.445105 0.176315,-0.339835 0.358814,-0.635888 0.405484,-0.657871 0.04677,-0.02197 0.298473,-0.485562 0.559475,-1.030123 0.261001,-0.54455 0.5509,-1.066096 0.64421,-1.158989 0.09324,-0.09285 0.272728,-0.345727 0.398756,-0.561887 0.560613,-0.961556 1.016841,-1.465717 1.556394,-1.719913 0.539261,-0.25405 0.607545,-0.243393 1.177696,0.183539 0.557249,0.417307 0.596062,0.478824 0.489373,0.775548 -0.06378,0.177287 -0.08916,0.378989 -0.05659,0.448245 0.03267,0.06923 -0.0049,0.155975 -0.08245,0.192708 -0.07798,0.03675 -0.219398,0.271152 -0.314293,0.520914 -0.490686,1.291552 -1.185747,2.527896 -1.697434,3.019175 -0.109801,0.105435 -0.175304,0.243413 -0.145523,0.306612 0.02975,0.0632 -0.09159,0.361488 -0.269645,0.662888 -0.178104,0.301371 -0.459573,0.884094 -0.625543,1.294906 -0.165979,0.410841 -0.33931,0.764648 -0.385182,0.786272 -0.04589,0.02159 -0.125416,0.156179 -0.176782,0.299057 -0.05143,0.142907 -0.253272,0.592222 -0.448644,0.998484 -0.195372,0.406281 -0.3993,0.852649 -0.453184,0.991959 -0.05387,0.13931 -0.132096,0.269364 -0.173875,0.289062 -0.111882,0.0527 -0.406213,0.685494 -0.725134,1.558961 -0.375703,1.029091 -0.05367,1.449743 0.578853,0.756043 0.125328,-0.137433 0.242314,-0.115829 0.40245,0.07603 0.124074,0.148517 0.190482,0.326514 0.147526,0.395567 -0.242003,0.389256 -0.09305,1.729014 0.315848,2.839894 0.265377,0.721021 0.447234,1.514264 0.45546,1.986389 0.01595,0.915334 0.379125,1.650162 0.766194,1.550064 0.172766,-0.04472 0.243374,-0.214409 0.213641,-0.513554 -0.0244,-0.245766 -0.02897,-0.56595 -0.01011,-0.711522 0.05552,-0.42946 0.06475,-1.986933 0.01235,-2.108421 -0.09723,-0.226067 0.731503,-2.52286 1.092767,-3.028499 0.295149,-0.413088 0.650307,-0.661984 1.706554,-1.195956 0.931873,-0.471085 1.409102,-0.647254 1.583414,-0.584736 0.137249,0.0493 0.390754,0.02304 0.563326,-0.05824 0.172571,-0.08128 0.463714,-0.143889 0.64703,-0.139115 0.183286,0.0049 0.467574,0.01069 0.631765,0.01322 0.761575,0.01177 1.531765,-0.334886 1.941323,-0.873603 0.364716,-0.479699 0.42599,-0.515829 0.628848,-0.370929 0.31161,0.222635 0.490229,-0.116568 0.230258,-0.437258 -0.156957,-0.193632 -0.137958,-0.522023 0.07234,-1.252077 0.156821,-0.544268 0.258231,-1.046709 0.225368,-1.116481 -0.03286,-0.06981 -0.0039,-0.325094 0.06407,-0.56737 0.06816,-0.242285 0.08867,-0.515226 0.0456,-0.606573 -0.04298,-0.0913 -0.02353,-0.283053 0.04346,-0.426038 0.06689,-0.143004 0.06349,-0.483403 -0.0078,-0.75649 -0.07117,-0.273068 -0.07846,-0.605164 -0.01643,-0.738017 0.06223,-0.132835 0.05036,-0.482247 -0.02625,-0.776471 -0.07662,-0.294235 -0.09587,-0.655839 -0.04278,-0.803589 0.05309,-0.147758 0.03432,-0.40174 -0.04181,-0.564463 -0.07652,-0.162479 -0.1242,-0.526184 -0.106923,-0.80774 0.01721,-0.281555 -0.04093,-0.760272 -0.129324,-1.063792 -0.196325,-0.673924 -0.01283,-0.81582 0.443199,-0.342859 0.187263,0.194118 0.4481,0.391658 0.57968,0.43896 0.32913,0.118338 0.734905,1.028421 0.593369,1.330784 -0.06368,0.136052 -0.07876,0.431891 -0.03345,0.657443 0.04531,0.225552 0.0385,0.76633 -0.01517,1.201712 -0.05357,0.435362 -0.128886,1.813078 -0.167292,3.061567 -0.0384,1.248489 -0.09821,2.507041 -0.132863,2.796773 -0.172465,1.442179 -0.232018,1.681372 -0.443724,1.78214 -0.126136,0.05941 -0.237852,0.187769 -0.248819,0.284055 -0.01089,0.09635 -0.256802,0.286709 -0.54634,0.423111 -0.289567,0.136403 -0.53439,0.317832 -0.544113,0.403151 -0.01721,0.151522 -0.980341,0.325396 -1.25511,0.226621 -0.07516,-0.02703 -0.340107,0.04667 -0.588751,0.163812 -0.248624,0.117112 -0.480778,0.15192 -0.515936,0.0773 -0.0351,-0.07457 -0.328313,-0.01118 -0.651522,0.141235 -0.323209,0.15226 -0.64667,0.255605 -0.718785,0.229674 -0.07214,-0.02596 -0.494653,0.09285 -0.938921,0.264026 -0.444298,0.171132 -0.854692,0.264346 -0.911999,0.207166 -0.145591,-0.145231 -0.555907,0.07117 -0.911833,0.480826 -0.369587,0.425416 -1.050842,2.094809 -0.945854,2.317717 0.0422,0.08945 0.03471,0.360253 -0.01663,0.601779 -0.163432,0.769519 0.03996,2.261421 0.418804,3.071144 0.435547,0.930891 0.442334,1.460886 0.01196,0.923773 -0.618114,-0.771395 -1.04316,-0.582392 -0.798901,0.355227 0.115936,0.445143 0.24631,0.526378 1.819709,1.132261 0.954206,0.367506 1.915548,0.853496 2.199894,1.112105 0.277793,0.25264 0.740117,0.656958 1.02739,0.898484 0.287302,0.241546 0.530968,0.555499 0.541469,0.697735 0.02129,0.286573 -0.273982,0.491532 -0.446077,0.309713 -0.06048,-0.06398 0.31438,0.732825 0.832581,1.770774 0.80777,1.616248 0.963239,2.03444 1.084026,2.91656 0.07759,0.566388 0.231357,1.22144 0.341683,1.455694 0.110355,0.234224 0.166835,0.586544 0.125561,0.782898 -0.04132,0.196392 0.04064,0.607856 0.182198,0.9144 0.175624,0.380535 0.207943,0.675771 0.10174,0.930579 -0.08556,0.205289 -0.104891,0.480885 -0.04288,0.612436 0.06203,0.13157 0.09441,0.465036 0.07214,0.741001 -0.04045,0.499777 0.22,0.931941 0.486067,0.806593 0.07691,-0.03627 0.03928,-0.279475 -0.08371,-0.540525 -0.181021,-0.38423 -0.17194,-0.49898 0.04764,-0.602412 0.361751,-0.170433 0.648372,0.421264 0.407876,0.841858 -0.09655,0.168828 -0.154477,0.402032 -0.128731,0.518201 0.02577,0.116169 -0.01497,0.396928 -0.09013,0.623909 -0.07535,0.227001 -0.146077,0.709986 -0.157191,1.073311 -0.01118,0.363345 -0.05804,0.778134 -0.104317,0.921751 -0.04628,0.143617 -0.06048,0.311337 -0.0316,0.372698 0.02888,0.06135 -0.02907,0.373681 -0.12876,0.694011 -0.09972,0.320331 -0.277414,0.932427 -0.394877,1.360205 -0.401983,1.463997 -0.695751,2.33724 -0.805727,2.395101 -0.06048,0.03189 -0.15158,0.391649 -0.202392,0.799612 -0.163977,1.317016 -1.344084,4.894159 -1.664386,5.045059 -0.03957,0.01867 -0.145425,0.217627 -0.235265,0.442236 -0.08984,0.224609 -0.270316,0.458756 -0.401002,0.52035 -0.130695,0.06155 -0.246106,0.186184 -0.256422,0.276909 -0.01954,0.171842 -0.552815,0.535547 -1.885659,1.286106 -0.682684,0.384424 -0.908411,0.436082 -1.720274,0.393506 z m 2.090279,-6.092964 c 0.71931,-0.338863 0.940496,-0.511609 1.070093,-0.835547 0.08984,-0.224609 0.226942,-0.438328 0.304647,-0.474935 0.07769,-0.03656 0.112523,-0.127584 0.0774,-0.202168 -0.0352,-0.07457 0.02761,-0.178727 0.139523,-0.231454 0.111862,-0.0527 0.174653,-0.15686 0.139514,-0.231434 -0.0351,-0.07457 0.04278,-0.186087 0.173243,-0.247808 0.13053,-0.06145 0.273116,-0.352416 0.317054,-0.646019 0.06028,-0.40279 0.184006,-0.582965 0.503812,-0.734001 0.346154,-0.163073 0.492776,-0.421079 0.798707,-1.402363 0.206155,-0.661206 0.425931,-1.529053 0.488381,-1.928567 0.06242,-0.399534 0.187584,-1.148441 0.278046,-1.66427 0.09052,-0.515809 0.13019,-1.112416 0.08819,-1.325756 -0.042,-0.213389 -0.02431,-0.412465 0.03928,-0.442422 0.06359,-0.02995 0.06281,-0.346543 -0.0019,-0.703452 -0.06456,-0.356918 -0.09101,-0.753904 -0.05882,-0.882207 0.03228,-0.128274 -0.05795,-0.408877 -0.200389,-0.62353 -0.202907,-0.305659 -0.212124,-0.466777 -0.04229,-0.743374 0.259903,-0.423472 0.077,-1.303336 -0.308479,-1.483793 -0.358201,-0.167681 -0.553991,-0.049 -0.757083,0.458649 -0.143656,0.359125 -0.116384,0.509529 0.166251,0.915926 0.303258,0.436063 0.308936,0.499991 0.05503,0.619631 -0.230073,0.108391 -0.24352,0.217472 -0.07175,0.582081 0.116247,0.246806 0.177589,0.609393 0.136296,0.805747 -0.04132,0.196383 -0.03763,0.441585 0.0078,0.544901 0.09276,0.2091 0.03267,0.812095 -0.374604,3.763833 -0.292543,2.120458 -0.458065,2.569977 -0.732008,1.98844 -0.08789,-0.186466 -0.08469,-0.417268 0.0068,-0.512912 0.09169,-0.09567 0.136762,-0.237336 0.100243,-0.314867 -0.03656,-0.07749 -0.0088,-0.548819 0.06232,-1.047312 0.07078,-0.498513 0.08994,-1.0951 0.04249,-1.325776 -0.04745,-0.230724 0.02489,-0.712242 0.160924,-1.070074 0.135945,-0.357841 0.208848,-0.832416 0.161983,-1.054614 -0.04686,-0.222187 -0.04638,-0.520681 0.0019,-0.663325 0.07807,-0.234964 -0.09499,-1.516909 -0.248965,-1.843754 -0.03461,-0.0735 -0.280817,-0.03102 -0.547098,0.09441 -0.316062,0.148906 -0.755839,0.183539 -1.267069,0.0998 -0.430618,-0.07049 -0.95581,-0.04686 -1.167069,0.0527 -0.255985,0.120584 -0.528761,0.104463 -0.817716,-0.04832 -0.238473,-0.126106 -0.579563,-0.21895 -0.757939,-0.20631 -0.311561,0.02207 -0.316189,0.0141 -0.117472,-0.200097 0.116694,-0.125834 0.348673,-0.206243 0.532241,-0.184492 0.17896,0.0212 0.409519,0 0.512339,-0.04949 0.102849,-0.04842 0.386262,-0.04259 0.62982,0.01303 0.243579,0.05562 0.844289,0.08264 1.334916,0.06009 0.490637,-0.02256 1.013759,0.01721 1.162461,0.08858 0.241118,0.115615 0.286845,0.08391 0.422314,-0.292912 0.279767,-0.778134 -0.604055,-1.25651 -1.522228,-0.823948 -0.171589,0.0808 -0.340758,0.08595 -0.375877,0.01138 -0.0352,-0.07458 -0.182344,-0.07982 -0.327118,-0.01157 -0.144764,0.06826 -0.329674,0.0807 -0.410899,0.02791 -0.08128,-0.05289 -0.299203,-0.0247 -0.484415,0.06252 -0.185182,0.08722 -0.525202,0.09829 -0.755586,0.0245 -0.230384,-0.0737 -0.503277,-0.09431 -0.606417,-0.0457 -0.10317,0.04862 -0.322208,0.03986 -0.486807,-0.01935 -0.458716,-0.16493 -0.665124,0.01517 -0.610676,0.532698 0.02722,0.258629 0.0177,0.579991 -0.021,0.714147 -0.0388,0.134138 -0.09344,0.486719 -0.121468,0.783511 -0.0281,0.296772 -0.176811,0.763656 -0.330628,1.037482 -0.24526,0.436665 -0.30246,0.476053 -0.465114,0.320166 -0.118843,-0.113885 -0.101945,-0.394517 0.04696,-0.781041 0.157716,-0.409344 0.171756,-0.732193 0.04356,-1.004191 -0.125309,-0.26599 -0.118571,-0.495489 0.01993,-0.681994 0.337657,-0.454341 -0.09363,-0.988391 -0.719796,-0.891221 -0.276033,0.04288 -0.524677,0.02946 -0.552553,-0.02965 -0.02781,-0.05912 -0.142197,-0.06446 -0.254079,-0.01176 -0.111871,0.0527 -0.232153,0.03481 -0.267292,-0.03977 -0.0351,-0.07457 -0.15543,-0.09246 -0.267331,-0.03977 -0.111862,0.0527 -0.232144,0.03481 -0.267283,-0.03977 -0.0351,-0.07458 -0.369023,0.0078 -0.741955,0.18384 -0.372921,0.175684 -0.650763,0.377356 -0.617384,0.448158 0.09799,0.208002 1.311269,0.548994 1.552319,0.436267 0.121371,-0.05717 0.352271,-0.04191 0.512699,0.03316 0.160428,0.07506 0.512377,0.130073 0.78213,0.122197 l 0.490413,-0.01429 -0.43824,0.212922 c -0.24106,0.117034 -0.466991,0.151891 -0.502149,0.0773 -0.0351,-0.07458 -0.23545,-0.05474 -0.445134,0.04404 -0.209684,0.09878 -0.569753,0.119271 -0.800166,0.0455 -0.230375,-0.0737 -0.512971,-0.08974 -0.627983,-0.03559 -0.114993,0.05416 -0.237822,0.03743 -0.272961,-0.03714 -0.0351,-0.07457 -0.15544,-0.09246 -0.267302,-0.03977 -0.111891,0.0527 -0.232173,0.03481 -0.267312,-0.03977 -0.09999,-0.212251 -1.241507,0.38631 -1.320486,0.692378 -0.123374,0.478357 0.464959,1.078289 1.147749,1.170375 0.338377,0.0456 0.672047,0.0562 0.741459,0.02353 0.06942,-0.03267 0.154604,0 0.189305,0.07448 0.03471,0.0737 0.50389,0.278173 1.042645,0.454468 0.871104,0.285047 1.009053,0.383122 1.24599,0.886126 0.151454,0.321469 0.216179,0.673068 0.149947,0.814536 -0.161799,0.34565 -0.351123,0.18495 -0.673049,-0.571269 -0.311832,-0.732533 -0.901954,-1.061478 -1.5958,-0.889577 -0.229266,0.05678 -0.555946,0.05328 -0.725932,-0.0078 -0.169966,-0.06116 -0.360758,-0.09091 -0.423957,-0.06611 -0.0632,0.02479 -0.328663,-0.06184 -0.589927,-0.192348 -0.35723,-0.178455 -0.582713,-0.446126 -0.90952,-1.079515 -0.399426,-0.774099 -0.416004,-0.883015 -0.209956,-1.34492 0.208274,-0.466175 0.249762,-0.495091 0.570258,-0.397599 0.385037,0.117112 1.342402,-0.346097 1.306865,-0.632319 -0.03802,-0.306116 -1.061789,-0.562772 -1.47267,-0.369208 -0.213573,0.100622 -0.413738,0.129032 -0.444784,0.0632 -0.07477,-0.158717 -0.610034,-0.0526 -0.882343,0.174905 -0.276831,0.231318 -0.468732,1.603812 -0.253107,1.810443 0.08994,0.08615 0.07915,0.304279 -0.02411,0.484648 -0.286718,0.501352 -0.37896,1.650988 -0.168342,2.098076 0.103617,0.219923 0.136296,0.544745 0.07263,0.721838 -0.06446,0.179339 0.01118,0.701031 0.170491,1.177444 0.157424,0.470472 0.248099,0.961488 0.201517,1.091104 -0.09964,0.277054 0.155041,0.868012 0.456685,1.059738 0.137209,0.08721 0.175936,0.233087 0.110374,0.415528 -0.144181,0.40104 0.989189,2.749967 1.613458,3.343891 0.256286,0.243811 0.639475,0.700885 0.851561,1.015703 0.514399,0.763598 1.146583,1.151464 2.783365,1.707585 1.363375,0.463247 1.914887,0.51755 2.702753,0.266135 0.228702,-0.07302 0.470268,-0.113126 0.536821,-0.08916 0.0666,0.02392 0.280321,-0.07448 0.474993,-0.218804 0.194711,-0.144249 0.762062,-0.454507 1.260769,-0.689451 z m 2.366535,-3.699574 c -0.159835,-0.05746 -0.183812,-0.477181 -0.03141,-0.549014 0.0666,-0.0314 0.178609,0.06505 0.248887,0.214186 0.124531,0.264327 0.02265,0.421158 -0.217482,0.334828 z m 1.391794,-12.105345 c 0.101945,-0.283568 0.03763,-0.472445 -0.401196,-1.178085 -0.287419,-0.462217 -0.739913,-1.334546 -1.005494,-1.938552 -0.556344,-1.265193 -1.780224,-3.167207 -2.115587,-3.287761 -0.1256,-0.04511 -0.269781,-0.137171 -0.320369,-0.204482 -0.560438,-0.745329 -0.90109,-1.020351 -1.258319,-1.015791 -0.263714,0.0029 -0.538357,-0.152883 -0.789636,-0.449188 -0.693671,-0.818085 -1.203219,-0.153078 -0.926437,1.209169 0.08449,0.415888 0.147671,1.021595 0.140428,1.346 -0.01361,0.611823 0.08051,1.056899 0.511532,2.418864 0.269985,0.852951 0.257481,0.98385 -0.220584,2.313496 -0.167681,0.466301 -0.267331,0.927468 -0.221478,1.024814 0.112708,0.239232 1.075518,0.493359 1.360837,0.359203 0.126155,-0.05931 0.295868,-0.06456 0.377083,-0.01177 0.08119,0.0528 0.266972,0.03986 0.412757,-0.02878 0.145795,-0.06864 0.396004,-0.121779 0.556053,-0.117997 0.160049,0.0039 0.686573,0.01682 1.170034,0.02878 0.896685,0.02236 1.261712,-0.06106 1.284892,-0.293583 0.0068,-0.07175 -0.494245,-1.096967 -1.114293,-2.2783 -1.050521,-2.001654 -1.167497,-2.172145 -1.718485,-2.504562 -1.123326,-0.677725 -1.672436,-1.090141 -1.536656,-1.154108 0.266379,-0.125503 1.285553,0.244949 1.9176,0.696996 0.593875,0.424755 0.701449,0.585746 1.44318,2.160244 0.662412,1.406049 0.861887,1.726447 1.149519,1.84636 0.302003,0.125873 0.354935,0.218843 0.400175,0.702499 0.04074,0.435596 0.108148,0.583637 0.308314,0.677307 0.331152,0.155003 0.447632,0.09227 0.596169,-0.320855 z m -5.325807,-6.918215 c -0.06787,-0.161059 -0.05095,-0.208322 0.04336,-0.120534 0.08527,0.07944 0.135566,0.198668 0.111716,0.264968 -0.02382,0.06631 -0.09363,0.0019 -0.15507,-0.144434 z m -2.623356,6.418487 c -0.306884,-0.651376 -0.477142,-0.857696 -0.819495,-0.99299 -0.293476,-0.115985 -0.453894,-0.283112 -0.499942,-0.520856 -0.07243,-0.374079 0.940078,-3.559078 1.165183,-3.665126 0.07389,-0.03481 0.101604,-0.229315 0.06164,-0.432271 -0.03996,-0.202965 0.03102,-0.465124 0.157784,-0.582615 0.323296,-0.299757 0.08469,-0.695275 -0.415586,-0.688887 -0.515013,0.0068 -1.197405,0.313203 -1.224367,0.550209 -0.01089,0.09626 -0.317851,0.31543 -0.681974,0.486991 -0.364123,0.171551 -0.671016,0.390695 -0.681964,0.486981 -0.01089,0.09635 -0.138386,0.23091 -0.28316,0.299106 -0.144765,0.06826 -0.234458,0.185037 -0.19932,0.259621 0.0351,0.07457 -0.138201,0.230802 -0.385202,0.347156 -0.261614,0.123257 -0.517239,0.382032 -0.612416,0.619942 -0.08984,0.224599 -0.215401,0.432903 -0.279038,0.462888 -0.06369,0.02995 -0.192805,0.247263 -0.287039,0.482839 -0.09422,0.235577 -0.237638,0.47546 -0.318649,0.533078 -0.431639,0.306923 -0.692417,0.647361 -0.561974,0.807458 0.176189,0.216286 0.228303,0.641118 0.260078,1.255528 0.0087,0.164687 -0.24247,0.18879 -0.207351,0.263374 0.0351,0.07457 -0.06184,0.194857 -0.215508,0.267244 -0.239952,0.113067 -0.239611,0.200651 0.0029,0.62036 0.275498,0.478026 0.295236,0.483442 0.903851,0.24808 0.376976,-0.145805 0.783024,-0.428955 1.030306,-0.718474 0.406739,-0.47617 0.662616,-0.561099 0.622257,-0.206447 -0.01177,0.102713 -0.166593,0.255227 -0.34425,0.338921 -0.458668,0.216102 -0.430889,0.45896 0.07088,0.619583 0.418552,0.133952 1.52532,-0.218095 1.418125,-0.451085 -0.08255,-0.179358 0.551279,-1.129694 0.84597,-1.268518 0.214623,-0.101098 0.297531,-0.06145 0.33932,0.162558 0.03977,0.212834 -0.07866,0.37368 -0.419894,0.570676 -0.382576,0.220816 -0.455139,0.33928 -0.372251,0.607749 0.127156,0.411843 0.52492,0.613564 0.879952,0.446291 0.146933,-0.06923 0.480331,-0.07681 0.740934,-0.01682 0.699077,0.160934 0.787915,-0.179902 0.310831,-1.192572 z m -7.988065,2.985719 c -0.021,-0.26353 0.0029,-0.498493 0.05309,-0.52211 0.05017,-0.02363 0.05688,-0.217258 0.01488,-0.430307 -0.0419,-0.213019 0.03335,-0.828479 0.16705,-1.367682 0.34069,-1.372747 1.370705,-4.236181 1.555071,-4.323035 0.135839,-0.06398 1.278231,-1.367916 1.750181,-1.997668 0.09713,-0.129655 0.326466,-0.30631 0.509519,-0.392553 0.183101,-0.08624 0.341847,-0.235624 0.352795,-0.33193 0.01118,-0.09759 0.612631,-0.454322 1.359223,-0.806028 1.79022,-0.843404 1.936063,-1.009102 1.662101,-1.888703 -0.119514,-0.383686 -0.183568,-0.858241 -0.142363,-1.054585 0.04123,-0.196345 -0.0139,-0.545309 -0.122236,-0.775528 -0.108459,-0.2302 -0.16631,-0.59758 -0.128566,-0.816403 0.03772,-0.218853 -0.04988,-0.734828 -0.194516,-1.146632 -0.144687,-0.411804 -0.285572,-1.025649 -0.313039,-1.364055 -0.02752,-0.338415 -0.141137,-0.713651 -0.252572,-0.833836 -0.219105,-0.236335 -0.581332,-0.153496 -0.548128,0.125309 0.02829,0.237491 -0.991163,0.733923 -1.154848,0.562401 -0.07224,-0.07564 -0.339776,-0.03938 -0.594643,0.0807 -0.254798,0.120058 -0.492056,0.157258 -0.527195,0.08264 -0.0351,-0.07457 -0.216451,-0.06378 -0.402898,0.02411 -0.186485,0.0879 -0.367778,0.09871 -0.402936,0.02411 -0.0351,-0.07457 -0.246962,-0.04939 -0.470725,0.0561 -0.223753,0.105406 -0.435576,0.130627 -0.470695,0.056 -0.0352,-0.07457 -0.127049,-0.105873 -0.20424,-0.06952 -0.0772,0.03636 -1.033826,-0.258649 -2.125854,-0.655576 C 8.9480681,41.240007 8.0018741,40.940084 7.9374404,40.97043 7.8729776,41.000765 7.5336191,40.787824 7.183264,40.497197 6.6865598,40.085179 6.4766423,40.001542 6.2303709,40.117566 c -0.1737094,0.08187 -0.2870881,0.20981 -0.2519301,0.284385 0.0351,0.07458 -0.02771,0.178736 -0.1395334,0.231463 -0.1119009,0.0527 -0.1746525,0.15685 -0.1395334,0.231435 0.035197,0.07457 -0.027613,0.178726 -0.1395431,0.231434 -0.111862,0.0527 -0.1746525,0.15686 -0.1395236,0.231434 0.0351,0.07458 -0.044725,0.186787 -0.1773847,0.249295 -0.1327273,0.06252 -0.2717648,0.277171 -0.3089938,0.476977 -0.037239,0.199835 -0.1132718,0.384784 -0.1689841,0.411036 -0.055712,0.02625 -0.3710551,0.825542 -0.7008268,1.776248 -0.5383085,1.55194 -0.5749639,1.780856 -0.3585029,2.240263 0.2301509,0.488576 0.1537969,0.741255 -0.1618669,0.53581 -0.081283,-0.05289 -0.1998639,-0.07156 -0.2635781,-0.04152 -0.1339525,0.0631 -0.3398544,2.271931 -0.2615364,2.805291 0.028974,0.197287 0.031308,0.592514 0.00486,0.87827 -0.026738,0.29194 0.1111522,0.934526 0.3147692,1.466748 0.2910259,0.760759 0.3252603,1.023968 0.1739719,1.337298 -0.3682452,0.762606 0.5751194,3.099331 1.6506767,4.088685 0.3720469,0.342207 0.771804,0.675858 0.888401,0.74142 0.1165874,0.06563 0.4344777,0.292572 0.7064078,0.504405 0.2719788,0.211842 0.753175,0.469839 1.069354,0.57332 0.316218,0.103471 0.7253967,0.247759 0.9092762,0.320642 0.183899,0.07283 0.4940596,0.05727 0.6892857,-0.03481 0.2469618,-0.116354 0.4504524,-0.08624 0.6690809,0.09905 0.418814,0.354896 0.623112,0.229296 0.576714,-0.354545 z M 9.0312184,57.599812 C 8.6652289,57.449807 8.0268425,57.060774 7.6125982,56.735319 7.1983734,56.409865 6.8021554,56.145713 6.7321408,56.148289 6.6621359,56.151206 6.565218,56.06895 6.516759,55.966092 6.468339,55.863292 6.0031175,55.429796 5.4829811,55.002815 4.5737147,54.256397 3.9867625,53.437048 4.2668113,53.305118 c 0.1875742,-0.08838 1.298795,0.641984 1.4432093,0.948528 0.06563,0.139241 0.3076327,0.336402 0.5378127,0.438114 0.2302189,0.10173 0.4681188,0.290189 0.5287314,0.418804 0.060574,0.128624 0.2320274,0.265328 0.3809822,0.303743 0.1489646,0.03841 0.3948277,0.230764 0.5463397,0.427448 0.151512,0.196675 0.3824504,0.399651 0.5131553,0.451056 0.4392905,0.172824 1.4653484,0.837423 1.7017219,1.102266 0.3678172,0.412144 -0.1115897,0.522771 -0.8875454,0.204735 z M 14.672116,40.366219 c 0.195605,-0.411133 0.409393,-0.772834 0.475061,-0.803773 0.06563,-0.03102 0.154818,-0.369139 0.198046,-0.751502 0.04327,-0.382412 0.228974,-0.881508 0.412747,-1.10917 0.183772,-0.227632 0.379261,-0.604103 0.4344,-0.836636 0.05513,-0.232504 0.193651,-0.584025 0.307788,-0.781167 0.114127,-0.197132 0.33756,-0.672611 0.496471,-1.056617 0.158911,-0.384006 0.495255,-1.130871 0.74737,-1.659709 0.252134,-0.528819 0.4572,-1.01686 0.455703,-1.084512 -0.0019,-0.06767 0.06291,-0.153894 0.142965,-0.191629 0.08012,-0.03773 0.345251,-0.451104 0.58913,-0.918581 0.2439,-0.467458 0.740263,-1.330346 1.103005,-1.917502 0.807536,-1.307089 1.046515,-1.986059 0.786749,-2.235023 -0.233515,-0.223783 -0.707837,0.117977 -1.077638,0.776412 -0.134604,0.239612 -0.28038,0.452465 -0.323958,0.473 -0.0702,0.03306 -0.206368,0.289645 -0.527642,0.994274 -0.05289,0.116062 -0.16386,0.317472 -0.246554,0.447574 -0.08274,0.130083 -0.402722,0.690988 -0.71124,1.246476 -0.308498,0.55546 -0.626816,1.115548 -0.70738,1.244639 -0.174361,0.279417 -0.571454,1.132319 -0.790637,1.698144 -0.296014,0.764132 -1.006816,2.214264 -1.108955,2.262364 -0.13124,0.06184 -0.510764,1.191415 -0.446291,1.328265 0.02693,0.05707 -0.108664,0.283743 -0.301245,0.503724 -0.192552,0.22001 -0.396315,0.55792 -0.452786,0.750919 -0.05649,0.19298 -0.202334,0.397832 -0.324113,0.455207 -0.121779,0.05736 -0.192659,0.165319 -0.157501,0.239903 0.0351,0.07457 -0.0058,0.168226 -0.08994,0.208051 -0.246271,0.116023 -0.456714,1.093078 -0.30493,1.415742 0.129373,0.274964 0.369364,0.308683 0.868839,0.122178 0.108274,-0.04045 0.356898,-0.409918 0.552484,-0.821051 z m -2.443035,32.621759 c -0.06796,-0.161041 -0.05095,-0.208323 0.04336,-0.120525 0.08527,0.07944 0.135576,0.198677 0.111716,0.264958 -0.02382,0.06631 -0.09363,0.0019 -0.155041,-0.144433 z m -2.2531368,-1.72778 c -0.261196,-0.250306 -0.4419254,-0.933787 -0.2858047,-1.08142 0.2117454,-0.200223 0.7575405,0.379631 0.7369085,0.782908 -0.01974,0.386864 -0.220408,0.519611 -0.4511038,0.298512 z M 28.683801,60.596449 c -0.320418,-0.307039 -0.435139,-0.692834 -0.234196,-0.787506 0.233331,-0.109927 0.584259,0.234545 0.611308,0.600058 0.0246,0.332621 -0.140175,0.414517 -0.377112,0.187429 z m 0.03403,-1.355742 c -0.212086,-0.07623 -0.433641,-0.649237 -0.319096,-0.825231 0.169616,-0.260603 0.513272,-0.04229 0.59615,0.378785 0.07594,0.385941 -0.01915,0.539164 -0.277054,0.446446 z m -0.258862,-1.721975 c -0.282733,-0.600117 -0.159757,-1.188974 0.173057,-0.828614 0.251396,0.272251 0.391104,1.068838 0.216656,1.235333 -0.09071,0.08653 -0.221828,-0.05036 -0.389713,-0.406719 z m 0.0049,-1.635878 c -0.204541,-0.07351 -2.241771,-4.469998 -2.101878,-4.53589 0.232358,-0.10947 0.49404,0.307545 1.390949,2.216744 0.842422,1.793108 1.039894,2.437396 0.710929,2.319146 z M 9.4938535,37.312226 c -0.4193488,-0.01954 -0.8110651,-0.08605 -0.8704915,-0.147632 -0.062907,-0.06534 0.2351971,-0.273739 0.7143514,-0.499475 0.7590086,-0.357589 0.8408266,-0.36495 1.0616536,-0.09528 0.26947,0.329072 0.280895,0.633729 0.02703,0.720117 -0.09353,0.03179 -0.5132044,0.04191 -0.9325629,0.02227 z"
       id="path3"
       sodipodi:nodetypes="cssscssssssssscsccsssssscssssssssscsccscssssssssssscsssssscsssscsscssssssssssscscscscsssssssssssssssssssccsssssssssssccssssccssssccssssssssccsscsscssscsscsssssscssssscssscsssscsssssssssssscsssssscssssscccssssscscssssscsscssssssssssscscscsssssssscsscsssssssscscssssscsssssssscssccsssssssssscssssssssscsssssscssssssssssssccsssscssscssssssssssscscssssssscccsscsssssscssssssssscscssssscsssssssscssssscsssscsscsssssssssssssssssssssssssssssssssssssssssssscsssssssscsssssssssscssssssssssssssssscssscsscsssssssssssssssssssssssssss" />
    <path
       d="m 36.285536,35.744689 v 16.588887 h 4.129869 v -9.000107 l 5.009057,5.726289 5.009058,-5.726289 v 9.000107 h 4.118301 V 35.744689 h -2.336789 l -6.79057,7.716031 -6.767432,-7.716031 z m 27.231687,3.782822 c 0.994871,0 2.163265,0.277638 2.163265,1.341918 0,1.087417 -1.249372,1.365055 -2.163265,1.365055 -0.960166,0 -2.151696,-0.312343 -2.151696,-1.365055 0,-1.087416 1.249372,-1.341918 2.151696,-1.341918 z m 0,5.899813 c 1.179963,0 2.406198,0.416458 2.406198,1.561715 0,1.191531 -1.307213,1.561716 -2.406198,1.561716 -1.156826,0 -2.406198,-0.416458 -2.406198,-1.561716 0,-1.19153 1.33035,-1.561715 2.406198,-1.561715 z m 4.673578,-1.816217 c 1.249372,-0.913892 1.457601,-2.047582 1.457601,-3.134999 0,-3.204408 -3.26225,-4.731419 -6.131179,-4.731419 -2.984611,0 -6.11961,1.642694 -6.11961,4.731419 0,1.087417 0.208229,2.221107 1.457601,3.134999 -1.422896,1.203099 -1.874059,2.406199 -1.874059,3.667139 0,3.435774 3.516752,5.05533 6.536068,5.05533 3.204409,0 6.547636,-1.723671 6.547636,-5.05533 0,-1.26094 -0.451162,-2.46404 -1.874058,-3.667139 z m 3.296953,5.807267 c 2.452471,2.116992 5.066898,2.915202 7.253299,2.915202 3.632434,0 6.489795,-2.174833 6.489795,-5.182581 0,-3.967913 -3.412637,-4.870238 -6.258429,-5.332968 -2.012878,-0.33548 -3.296955,-0.555277 -3.296955,-1.365055 0,-0.751937 1.13369,-0.971734 2.012878,-0.971734 1.353486,0 2.915201,0.53214 4.048891,1.434464 l 2.336789,-2.973043 c -1.978173,-1.492306 -4.222416,-2.19797 -6.339407,-2.19797 -3.921641,0 -6.096474,2.244243 -6.096474,5.078467 0,3.123431 2.741678,4.118301 5.448651,4.673578 2.105424,0.428025 4.072028,0.601549 4.072028,1.723671 0,0.983302 -1.434464,1.295645 -2.475608,1.295645 -1.688966,0 -3.354796,-0.890756 -4.731419,-2.093855 z"
       id="text28"
       style="font-weight:900;font-size:23.6918px;line-height:0.9;font-family:'NEXT ART';-inkscape-font-specification:'NEXT ART, Heavy';fill:#d5cdbc;stroke-width:0.651437"
       aria-label="M8S&#10;" />
    <g
       id="text71"
       style="font-weight:900;font-size:12.9698px;line-height:0.9;font-family:'NEXT ART';-inkscape-font-specification:'NEXT ART, Heavy';fill:#71bb43;stroke-width:0.071968"
       aria-label="&#10;design&#10;">
      <path
         d="m 39.920683,62.139463 h -1.032264 v -4.914339 h 1.032264 c 0.588961,0 0.924605,0.08233 1.234917,0.227985 0.835945,0.392641 1.342577,1.234918 1.342577,2.216519 0,0.981601 -0.506632,1.842877 -1.34891,2.235517 -0.303979,0.145657 -0.639623,0.234318 -1.228584,0.234318 z m -0.0063,-6.991533 h -3.293113 v 9.081393 h 3.293113 c 0.715619,0 1.184254,-0.08233 1.627558,-0.215319 1.861875,-0.569962 3.223451,-2.24185 3.223451,-4.319045 0,-2.077194 -1.367908,-3.749082 -3.229784,-4.325377 C 41.098604,55.236591 40.629969,55.14793 39.91435,55.14793 Z"
         id="path4" />
      <path
         d="m 45.968612,55.14793 v 9.081393 h 6.57356 v -2.08986 h -4.306379 v -1.842877 h 3.255116 v -2.032864 h -3.255116 v -1.051263 h 4.306379 V 55.14793 Z m 7.358841,7.4855 c 1.342577,1.158922 2.773814,1.595893 3.970734,1.595893 1.988534,0 3.552763,-1.190587 3.552763,-2.837144 0,-2.172188 -1.868208,-2.666155 -3.426104,-2.919471 -1.101927,-0.183655 -1.80488,-0.30398 -1.80488,-0.747284 0,-0.411639 0.620625,-0.531964 1.101927,-0.531964 0.74095,0 1.595893,0.291314 2.216518,0.785281 l 1.279248,-1.627558 c -1.082928,-0.816946 -2.311512,-1.203253 -3.470435,-1.203253 -2.146856,0 -3.337443,1.228584 -3.337443,2.780147 0,1.709886 1.500899,2.254516 2.9828,2.558496 1.15259,0.234318 2.229185,0.329311 2.229185,0.943604 0,0.538297 -0.785281,0.709286 -1.355243,0.709286 -0.924605,0 -1.836544,-0.487634 -2.59016,-1.146257 z m 8.619092,1.595893 h 2.279847 V 55.14793 h -2.279847 z m 11.006596,-8.150455 c -0.987934,-0.671289 -1.912539,-0.930938 -2.868808,-0.930938 -2.666155,0 -4.654689,1.975868 -4.654689,4.547029 0,2.672488 2.108859,4.534364 4.654689,4.534364 2.659822,0 4.629357,-1.956869 4.629357,-4.509032 0,-0.468635 -0.06966,-0.956269 -0.221652,-1.462902 h -4.724351 v 2.08986 h 2.65349 c -0.335645,1.177921 -1.279248,1.804879 -2.336844,1.804879 -1.443904,0 -2.362176,-1.152589 -2.362176,-2.457169 0,-1.386907 0.937271,-2.476168 2.362176,-2.476168 0.481301,0 1.0006,0.15199 1.608559,0.601627 z m 11.329578,8.150455 V 55.14793 h -2.267182 v 5.123324 L 77.196192,55.14793 h -1.279248 v 9.081393 h 2.267182 v -5.123324 l 4.813012,5.123324 z"
         id="path5" />
    </g>
    <g
       id="text94"
       style="font-weight:900;font-size:6.31892px;line-height:0.9;font-family:'NEXT ART';-inkscape-font-specification:'NEXT ART, Heavy';fill:#d5cdbc;stroke-width:0.00460903"
       aria-label="&#10;&#10;development">
      <path
         d="m 38.223049,70.449819 h -0.502922 v -2.394278 h 0.502922 c 0.286943,0 0.45047,0.04011 0.601655,0.111074 0.407274,0.191296 0.654107,0.601655 0.654107,1.079894 0,0.478239 -0.246833,0.897854 -0.657192,1.08915 -0.1481,0.07096 -0.311627,0.11416 -0.59857,0.11416 z m -0.0031,-3.406293 H 36.61555 v 4.424478 h 1.604414 c 0.348651,0 0.576971,-0.04011 0.79295,-0.104904 0.907111,-0.277687 1.570474,-1.092235 1.570474,-2.104249 0,-1.012015 -0.666449,-1.826563 -1.573559,-2.107336 -0.212894,-0.06479 -0.441214,-0.107989 -0.789865,-0.107989 z"
         id="path1" />
      <path
         d="m 41.169616,67.043526 v 4.424478 h 3.202656 v -1.018185 h -2.098079 v -0.897854 h 1.585901 V 68.561548 H 42.274193 V 68.04937 h 2.098079 v -1.005844 z m 6.920575,0 -1.126175,2.97125 -1.12926,-2.97125 h -1.215652 l 1.792624,4.424478 h 1.104576 l 1.789538,-4.424478 z m 1.582816,0 v 4.424478 h 3.202656 v -1.018185 h -2.098079 v -0.897854 h 1.585901 V 68.561548 H 50.777584 V 68.04937 h 2.098079 v -1.005844 z m 3.884531,0 v 4.424478 h 3.1934 v -1.027441 h -2.082652 v -3.397037 z m 5.510544,4.424478 c 1.308213,0 2.261605,-0.965733 2.261605,-2.212239 0,-1.246506 -0.953392,-2.212239 -2.261605,-2.212239 -1.308214,0 -2.261606,0.965733 -2.261606,2.212239 0,1.246506 0.953392,2.212239 2.261606,2.212239 z m 0,-3.412463 c 0.703473,0 1.138516,0.53069 1.138516,1.200224 0,0.669534 -0.435043,1.197139 -1.138516,1.197139 -0.703474,0 -1.138517,-0.527605 -1.138517,-1.197139 0,-0.669534 0.435043,-1.200224 1.138517,-1.200224 z m 5.967184,-0.799122 c -0.22215,-0.141929 -0.490581,-0.212893 -0.879342,-0.212893 h -2.240008 v 4.424478 h 1.110747 v -1.696975 h 1.129261 c 0.388761,0 0.654107,-0.07405 0.873171,-0.212894 0.373334,-0.237576 0.613996,-0.647936 0.613996,-1.147772 0,-0.518349 -0.240662,-0.922538 -0.607825,-1.153944 z M 64.31945,68.72816 c -0.05862,0.02468 -0.120331,0.03394 -0.253003,0.03394 h -1.042869 v -0.703474 h 1.042869 c 0.132672,0 0.197466,0.0093 0.253003,0.03394 0.132673,0.05554 0.231406,0.163526 0.231406,0.317797 0,0.160441 -0.104904,0.265345 -0.231406,0.317797 z m 1.835819,-1.684634 v 4.424478 h 1.101491 v -2.400449 l 1.335983,1.527278 1.335983,-1.527278 v 2.400449 h 1.098406 v -4.424478 h -0.623253 l -1.811136,2.057969 -1.804965,-2.057969 z m 5.674068,0 v 4.424478 h 3.202656 v -1.018185 h -2.098079 v -0.897854 h 1.585901 V 68.561548 H 72.933914 V 68.04937 h 2.098079 v -1.005844 z m 7.96036,4.424478 V 67.043526 H 78.68512 v 2.496097 L 76.337123,67.043526 H 75.71387 v 4.424478 h 1.104577 v -2.496097 l 2.344912,2.496097 z m 0.586227,-4.424478 v 1.018185 h 1.397691 v 3.406293 h 1.110748 v -3.406293 h 1.403861 v -1.018185 z"
         id="path2" />
    </g>
    <path
       style="fill:#d5cdbc;fill-opacity:1;stroke-width:0.149907"
       d="m 20.760296,78.813591 c -0.513962,-0.02693 -0.98177,-0.09655 -1.039563,-0.154789 -0.05775,-0.05814 -0.243101,-0.04074 -0.411784,0.0388 -0.168683,0.07944 -0.474643,0.07448 -0.679932,-0.01118 -0.205251,-0.08556 -0.42494,-0.13124 -0.488158,-0.10144 -0.407283,0.191872 -2.912476,-1.313233 -3.199331,-1.92212 -0.08342,-0.177171 -0.332582,-0.433117 -0.553574,-0.568741 -0.27647,-0.169675 -0.609577,-0.629899 -1.067847,-1.475237 -0.642421,-1.185066 -0.653223,-1.224055 -0.305367,-1.098824 0.227156,0.08177 0.589694,0.476762 0.979398,1.067069 0.340292,0.515469 0.747915,0.99406 0.905824,1.063559 0.157881,0.06952 0.360001,0.281157 0.449121,0.470326 0.08916,0.189198 0.3572,0.441634 0.595712,0.561002 0.238523,0.119358 0.473885,0.298172 0.523034,0.397346 0.195061,0.393602 2.142627,0.966213 2.928247,0.860953 0.150024,-0.02013 0.295012,0.01069 0.322158,0.06826 0.02713,0.05766 0.362188,0.05649 0.744512,-0.0029 0.382344,-0.05902 0.714585,-0.06602 0.738377,-0.01556 0.07798,0.165601 1.244075,-0.315469 1.803657,-0.744093 0.774692,-0.593418 1.651678,-1.703015 2.027925,-2.565826 0.176675,-0.405143 0.614429,-1.345572 0.972825,-2.089831 0.358406,-0.744278 0.591746,-1.413477 0.518552,-1.487108 -0.154429,-0.15543 -0.753613,0.173602 -0.728703,0.400156 0.0097,0.0841 -0.08799,0.202294 -0.216072,0.262625 -0.294059,0.138551 -0.818551,0.759116 -0.756325,0.894867 0.02635,0.05591 -0.07516,0.159699 -0.224356,0.229966 -0.149188,0.0703 -0.24247,0.188819 -0.207331,0.263403 0.0351,0.07458 -0.08867,0.207477 -0.275149,0.295324 -0.186465,0.0878 -0.310287,0.220739 -0.275148,0.295342 0.03811,0.08089 -0.455936,0.380516 -1.224405,0.742539 -0.768469,0.362022 -1.31408,0.552202 -1.352193,0.471317 -0.0351,-0.07457 -0.216432,-0.06378 -0.402917,0.02411 -0.186447,0.0879 -0.36776,0.09869 -0.402918,0.02411 -0.0351,-0.07457 -0.246952,-0.04939 -0.470685,0.0561 -0.223773,0.105416 -0.428897,0.146116 -0.45582,0.09042 -0.05989,-0.123529 -0.867701,-0.129772 -1.124774,-0.0088 -0.102363,0.04823 -0.302363,0.0492 -0.444522,0.0029 -0.535858,-0.177005 -1.06142,-0.287127 -1.158629,-0.24279 -0.05571,0.0246 -0.344327,-0.07545 -0.642072,-0.223802 -0.297754,-0.148362 -0.633252,-0.306544 -0.7456,-0.351493 -0.284775,-0.11403 -0.942218,-0.759981 -1.412281,-1.387633 -0.217686,-0.290695 -0.650132,-0.748926 -0.960983,-1.018289 -0.310812,-0.269373 -0.68914,-0.753 -0.84072,-1.07476 -0.15158,-0.32176 -0.35439,-0.593963 -0.450685,-0.60493 -0.248917,-0.02829 -0.504794,-0.645173 -0.574984,-1.386204 -0.03306,-0.348965 -0.15192,-0.836257 -0.264074,-1.08283 -0.112173,-0.246563 -0.182907,-0.623365 -0.157229,-0.837317 0.02567,-0.213972 -0.02353,-0.646301 -0.109237,-0.960769 -0.08576,-0.314468 -0.109849,-0.699942 -0.05357,-0.856587 0.05639,-0.156666 0.03247,-0.433263 -0.05299,-0.614653 -0.08546,-0.18143 -0.140612,-0.615061 -0.122557,-0.963666 0.01809,-0.348586 -0.0049,-0.713554 -0.05066,-0.810997 -0.04589,-0.09747 -0.02314,-0.365698 0.05066,-0.596082 0.171872,-0.537074 -0.09042,-1.09195 -0.5795044,-1.226243 -0.2105494,-0.05775 -0.4296745,-0.08294 -0.4869326,-0.056 -0.057268,0.02693 -0.2495967,-0.0316 -0.42738,-0.130083 C 8.7455498,60.624033 8.5412813,60.571121 8.4694582,60.604957 6.7628263,60.323294 5.2680175,59.317499 4.1691739,58.014037 3.4520903,57.112043 2.4063921,54.187374 2.453276,53.214958 2.4675687,52.916503 2.3809376,52.463144 2.2604903,52.207548 2.1400721,51.951923 2.0943842,51.629891 2.1589637,51.491913 c 0.06456,-0.137987 0.044725,-0.510598 -0.044142,-0.828051 -0.088867,-0.317443 -0.1083131,-0.602265 -0.043267,-0.632902 0.065046,-0.03063 0.076422,-0.334264 0.02528,-0.674702 -0.051143,-0.340457 -0.046476,-0.640933 0.010306,-0.667701 0.056879,-0.02674 0.062324,-0.234438 0.012154,-0.461419 -0.05017,-0.227011 0.00875,-1.130832 0.1303355,-2.00849 0.3294217,-2.37268 0.5184932,-3.080371 1.0201853,-3.818495 0.1629461,-0.239737 0.2737191,-0.483743 0.2461644,-0.542246 -0.027516,-0.05853 0.04142,-0.149499 0.1532816,-0.202207 0.1118814,-0.0527 0.1800293,-0.145464 0.1514731,-0.206135 -0.028585,-0.06067 0.1221197,-0.294731 0.3349346,-0.520137 0.2127954,-0.225396 0.3705301,-0.444589 0.3505301,-0.487039 -0.019932,-0.04249 0.099455,-0.234021 0.2654546,-0.425669 0.1660186,-0.191639 0.3753041,-0.532164 0.4651437,-0.756685 0.08984,-0.224541 0.2268548,-0.438202 0.3045408,-0.474808 0.077686,-0.03666 0.112562,-0.127575 0.077394,-0.202159 -0.0351,-0.07457 0.022557,-0.176334 0.1282548,-0.226125 0.1056685,-0.04978 0.1828683,-0.168051 0.1715898,-0.262849 -0.011181,-0.0948 0.2583958,-0.344308 0.5992516,-0.554478 l 0.6197768,-0.38213 -0.1473603,0.780506 c -0.1969958,1.043073 0.035002,1.153467 1.2024022,0.572213 0.5775696,-0.287507 0.933,-0.391882 1.0579976,-0.31053 0.1217308,0.07924 0.478503,-0.01935 1.0102391,-0.279125 0.452115,-0.220944 0.849208,-0.344026 0.882343,-0.273652 0.03316,0.07039 0.243355,0.04171 0.467108,-0.06368 0.32528,-0.153242 0.379436,-0.24983 0.270141,-0.481847 -0.07516,-0.159611 -0.281702,-0.320924 -0.458921,-0.358513 -0.303102,-0.06427 -0.306709,-0.07594 -0.06116,-0.196616 0.14561,-0.07156 0.716918,0.05231 1.291921,0.280087 1.148693,0.455032 1.234566,0.421848 1.67476,-0.647302 0.151308,-0.367487 0.34353,-0.70038 0.427127,-0.739767 0.08362,-0.03938 0.341129,-0.566106 0.572252,-1.170453 0.231094,-0.604346 0.617346,-1.471075 0.858328,-1.926029 0.240972,-0.454974 0.582402,-1.10528 0.758756,-1.445105 0.176315,-0.339835 0.358814,-0.635888 0.405484,-0.657871 0.04677,-0.02197 0.298473,-0.485562 0.559475,-1.030123 0.261001,-0.54455 0.5509,-1.066096 0.64421,-1.158989 0.09324,-0.09285 0.272728,-0.345727 0.398756,-0.561887 0.560613,-0.961556 1.016841,-1.465717 1.556394,-1.719913 0.539261,-0.25405 0.607545,-0.243393 1.177696,0.183539 0.557249,0.417307 0.596062,0.478824 0.489373,0.775548 -0.06378,0.177287 -0.08916,0.378989 -0.05659,0.448245 0.03267,0.06923 -0.0049,0.155975 -0.08245,0.192708 -0.07798,0.03675 -0.219398,0.271152 -0.314293,0.520914 -0.490686,1.291552 -1.185747,2.527896 -1.697434,3.019175 -0.109801,0.105435 -0.175304,0.243413 -0.145523,0.306612 0.02975,0.0632 -0.09159,0.361488 -0.269645,0.662888 -0.178104,0.301371 -0.459573,0.884094 -0.625543,1.294906 -0.165979,0.410841 -0.33931,0.764648 -0.385182,0.786272 -0.04589,0.02159 -0.125416,0.156179 -0.176782,0.299057 -0.05143,0.142907 -0.253272,0.592222 -0.448644,0.998484 -0.195372,0.406281 -0.3993,0.852649 -0.453184,0.991959 -0.05387,0.13931 -0.132096,0.269364 -0.173875,0.289062 -0.111882,0.0527 -0.406213,0.685494 -0.725134,1.558961 -0.375703,1.029091 -0.05367,1.449743 0.578853,0.756043 0.125328,-0.137433 0.242314,-0.115829 0.40245,0.07603 0.124074,0.148517 0.190482,0.326514 0.147526,0.395567 -0.242003,0.389256 -0.09305,1.729014 0.315848,2.839894 0.265377,0.721021 0.447234,1.514264 0.45546,1.986389 0.01595,0.915334 0.379125,1.650162 0.766194,1.550064 0.172766,-0.04472 0.243374,-0.214409 0.213641,-0.513554 -0.0244,-0.245766 -0.02897,-0.56595 -0.01011,-0.711522 0.05552,-0.42946 0.06475,-1.986933 0.01235,-2.108421 -0.09723,-0.226067 0.731503,-2.52286 1.092767,-3.028499 0.295149,-0.413088 0.650307,-0.661984 1.706554,-1.195956 0.931873,-0.471085 1.409102,-0.647254 1.583414,-0.584736 0.137249,0.0493 0.390754,0.02304 0.563326,-0.05824 0.172571,-0.08128 0.463714,-0.143889 0.64703,-0.139115 0.183286,0.0049 0.467574,0.01069 0.631765,0.01322 0.761575,0.01177 1.531765,-0.334886 1.941323,-0.873603 0.364716,-0.479699 0.42599,-0.515829 0.628848,-0.370929 0.31161,0.222635 0.490229,-0.116568 0.230258,-0.437258 -0.156957,-0.193632 -0.137958,-0.522023 0.07234,-1.252077 0.156821,-0.544268 0.258231,-1.046709 0.225368,-1.116481 -0.03286,-0.06981 -0.0039,-0.325094 0.06407,-0.56737 0.06816,-0.242285 0.08867,-0.515226 0.0456,-0.606573 -0.04298,-0.0913 -0.02353,-0.283053 0.04346,-0.426038 0.06689,-0.143004 0.06349,-0.483403 -0.0078,-0.75649 -0.07117,-0.273068 -0.07846,-0.605164 -0.01643,-0.738017 0.06223,-0.132835 0.05036,-0.482247 -0.02625,-0.776471 -0.07662,-0.294235 -0.09587,-0.655839 -0.04278,-0.803589 0.05309,-0.147758 0.03432,-0.40174 -0.04181,-0.564463 -0.07652,-0.162479 -0.1242,-0.526184 -0.106923,-0.80774 0.01721,-0.281555 -0.04093,-0.760272 -0.129324,-1.063792 -0.196325,-0.673924 -0.01283,-0.81582 0.443199,-0.342859 0.187263,0.194118 0.4481,0.391658 0.57968,0.43896 0.32913,0.118338 0.734905,1.028421 0.593369,1.330784 -0.06368,0.136052 -0.07876,0.431891 -0.03345,0.657443 0.04531,0.225552 0.0385,0.76633 -0.01517,1.201712 -0.05357,0.435362 -0.128886,1.813078 -0.167292,3.061567 -0.0384,1.248489 -0.09821,2.507041 -0.132863,2.796773 -0.172465,1.442179 -0.232018,1.681372 -0.443724,1.78214 -0.126136,0.05941 -0.237852,0.187769 -0.248819,0.284055 -0.01089,0.09635 -0.256802,0.286709 -0.54634,0.423111 -0.289567,0.136403 -0.53439,0.317832 -0.544113,0.403151 -0.01721,0.151522 -0.980341,0.325396 -1.25511,0.226621 -0.07516,-0.02703 -0.340107,0.04667 -0.588751,0.163812 -0.248624,0.117112 -0.480778,0.15192 -0.515936,0.0773 -0.0351,-0.07457 -0.328313,-0.01118 -0.651522,0.141235 -0.323209,0.15226 -0.64667,0.255605 -0.718785,0.229674 -0.07214,-0.02596 -0.494653,0.09285 -0.938921,0.264026 -0.444298,0.171132 -0.854692,0.264346 -0.911999,0.207166 -0.145591,-0.145231 -0.555907,0.07117 -0.911833,0.480826 -0.369587,0.425416 -1.050842,2.094809 -0.945854,2.317717 0.0422,0.08945 0.03471,0.360253 -0.01663,0.601779 -0.163432,0.769519 0.03996,2.261421 0.418804,3.071144 0.435547,0.930891 0.442334,1.460886 0.01196,0.923773 -0.618114,-0.771395 -1.04316,-0.582392 -0.798901,0.355227 0.115936,0.445143 0.24631,0.526378 1.819709,1.132261 0.954206,0.367506 1.915548,0.853496 2.199894,1.112105 0.277793,0.25264 0.740117,0.656958 1.02739,0.898484 0.287302,0.241546 0.530968,0.555499 0.541469,0.697735 0.02129,0.286573 -0.273982,0.491532 -0.446077,0.309713 -0.06048,-0.06398 0.31438,0.732825 0.832581,1.770774 0.80777,1.616248 0.963239,2.03444 1.084026,2.91656 0.07759,0.566388 0.231357,1.22144 0.341683,1.455694 0.110355,0.234224 0.166835,0.586544 0.125561,0.782898 -0.04132,0.196392 0.04064,0.607856 0.182198,0.9144 0.175624,0.380535 0.207943,0.675771 0.10174,0.930579 -0.08556,0.205289 -0.104891,0.480885 -0.04288,0.612436 0.06203,0.13157 0.09441,0.465036 0.07214,0.741001 -0.04045,0.499777 0.22,0.931941 0.486067,0.806593 0.07691,-0.03627 0.03928,-0.279475 -0.08371,-0.540525 -0.181021,-0.38423 -0.17194,-0.49898 0.04764,-0.602412 0.361751,-0.170433 0.648372,0.421264 0.407876,0.841858 -0.09655,0.168828 -0.154477,0.402032 -0.128731,0.518201 0.02577,0.116169 -0.01497,0.396928 -0.09013,0.623909 -0.07535,0.227001 -0.146077,0.709986 -0.157191,1.073311 -0.01118,0.363345 -0.05804,0.778134 -0.104317,0.921751 -0.04628,0.143617 -0.06048,0.311337 -0.0316,0.372698 0.02888,0.06135 -0.02907,0.373681 -0.12876,0.694011 -0.09972,0.320331 -0.277414,0.932427 -0.394877,1.360205 -0.401983,1.463997 -0.695751,2.33724 -0.805727,2.395101 -0.06048,0.03189 -0.15158,0.391649 -0.202392,0.799612 -0.163977,1.317016 -1.344084,4.894159 -1.664386,5.045059 -0.03957,0.01867 -0.145425,0.217627 -0.235265,0.442236 -0.08984,0.224609 -0.270316,0.458756 -0.401002,0.52035 -0.130695,0.06155 -0.246106,0.186184 -0.256422,0.276909 -0.01954,0.171842 -0.552815,0.535547 -1.885659,1.286106 -0.682684,0.384424 -0.908411,0.436082 -1.720274,0.393506 z m 2.090279,-6.092964 c 0.71931,-0.338863 0.940496,-0.511609 1.070093,-0.835547 0.08984,-0.224609 0.226942,-0.438328 0.304647,-0.474935 0.07769,-0.03656 0.112523,-0.127584 0.0774,-0.202168 -0.0352,-0.07457 0.02761,-0.178727 0.139523,-0.231454 0.111862,-0.0527 0.174653,-0.15686 0.139514,-0.231434 -0.0351,-0.07457 0.04278,-0.186087 0.173243,-0.247808 0.13053,-0.06145 0.273116,-0.352416 0.317054,-0.646019 0.06028,-0.40279 0.184006,-0.582965 0.503812,-0.734001 0.346154,-0.163073 0.492776,-0.421079 0.798707,-1.402363 0.206155,-0.661206 0.425931,-1.529053 0.488381,-1.928567 0.06242,-0.399534 0.187584,-1.148441 0.278046,-1.66427 0.09052,-0.515809 0.13019,-1.112416 0.08819,-1.325756 -0.042,-0.213389 -0.02431,-0.412465 0.03928,-0.442422 0.06359,-0.02995 0.06281,-0.346543 -0.0019,-0.703452 -0.06456,-0.356918 -0.09101,-0.753904 -0.05882,-0.882207 0.03228,-0.128274 -0.05795,-0.408877 -0.200389,-0.62353 -0.202907,-0.305659 -0.212124,-0.466777 -0.04229,-0.743374 0.259903,-0.423472 0.077,-1.303336 -0.308479,-1.483793 -0.358201,-0.167681 -0.553991,-0.049 -0.757083,0.458649 -0.143656,0.359125 -0.116384,0.509529 0.166251,0.915926 0.303258,0.436063 0.308936,0.499991 0.05503,0.619631 -0.230073,0.108391 -0.24352,0.217472 -0.07175,0.582081 0.116247,0.246806 0.177589,0.609393 0.136296,0.805747 -0.04132,0.196383 -0.03763,0.441585 0.0078,0.544901 0.09276,0.2091 0.03267,0.812095 -0.374604,3.763833 -0.292543,2.120458 -0.458065,2.569977 -0.732008,1.98844 -0.08789,-0.186466 -0.08469,-0.417268 0.0068,-0.512912 0.09169,-0.09567 0.136762,-0.237336 0.100243,-0.314867 -0.03656,-0.07749 -0.0088,-0.548819 0.06232,-1.047312 0.07078,-0.498513 0.08994,-1.0951 0.04249,-1.325776 -0.04745,-0.230724 0.02489,-0.712242 0.160924,-1.070074 0.135945,-0.357841 0.208848,-0.832416 0.161983,-1.054614 -0.04686,-0.222187 -0.04638,-0.520681 0.0019,-0.663325 0.07807,-0.234964 -0.09499,-1.516909 -0.248965,-1.843754 -0.03461,-0.0735 -0.280817,-0.03102 -0.547098,0.09441 -0.316062,0.148906 -0.755839,0.183539 -1.267069,0.0998 -0.430618,-0.07049 -0.95581,-0.04686 -1.167069,0.0527 -0.255985,0.120584 -0.528761,0.104463 -0.817716,-0.04832 -0.238473,-0.126106 -0.579563,-0.21895 -0.757939,-0.20631 -0.311561,0.02207 -0.316189,0.0141 -0.117472,-0.200097 0.116694,-0.125834 0.348673,-0.206243 0.532241,-0.184492 0.17896,0.0212 0.409519,0 0.512339,-0.04949 0.102849,-0.04842 0.386262,-0.04259 0.62982,0.01303 0.243579,0.05562 0.844289,0.08264 1.334916,0.06009 0.490637,-0.02256 1.013759,0.01721 1.162461,0.08858 0.241118,0.115615 0.286845,0.08391 0.422314,-0.292912 0.279767,-0.778134 -0.604055,-1.25651 -1.522228,-0.823948 -0.171589,0.0808 -0.340758,0.08595 -0.375877,0.01138 -0.0352,-0.07458 -0.182344,-0.07982 -0.327118,-0.01157 -0.144764,0.06826 -0.329674,0.0807 -0.410899,0.02791 -0.08128,-0.05289 -0.299203,-0.0247 -0.484415,0.06252 -0.185182,0.08722 -0.525202,0.09829 -0.755586,0.0245 -0.230384,-0.0737 -0.503277,-0.09431 -0.606417,-0.0457 -0.10317,0.04862 -0.322208,0.03986 -0.486807,-0.01935 -0.458716,-0.16493 -0.665124,0.01517 -0.610676,0.532698 0.02722,0.258629 0.0177,0.579991 -0.021,0.714147 -0.0388,0.134138 -0.09344,0.486719 -0.121468,0.783511 -0.0281,0.296772 -0.176811,0.763656 -0.330628,1.037482 -0.24526,0.436665 -0.30246,0.476053 -0.465114,0.320166 -0.118843,-0.113885 -0.101945,-0.394517 0.04696,-0.781041 0.157716,-0.409344 0.171756,-0.732193 0.04356,-1.004191 -0.125309,-0.26599 -0.118571,-0.495489 0.01993,-0.681994 0.337657,-0.454341 -0.09363,-0.988391 -0.719796,-0.891221 -0.276033,0.04288 -0.524677,0.02946 -0.552553,-0.02965 -0.02781,-0.05912 -0.142197,-0.06446 -0.254079,-0.01176 -0.111871,0.0527 -0.232153,0.03481 -0.267292,-0.03977 -0.0351,-0.07457 -0.15543,-0.09246 -0.267331,-0.03977 -0.111862,0.0527 -0.232144,0.03481 -0.267283,-0.03977 -0.0351,-0.07458 -0.369023,0.0078 -0.741955,0.18384 -0.372921,0.175684 -0.650763,0.377356 -0.617384,0.448158 0.09799,0.208002 1.311269,0.548994 1.552319,0.436267 0.121371,-0.05717 0.352271,-0.04191 0.512699,0.03316 0.160428,0.07506 0.512377,0.130073 0.78213,0.122197 l 0.490413,-0.01429 -0.43824,0.212922 c -0.24106,0.117034 -0.466991,0.151891 -0.502149,0.0773 -0.0351,-0.07458 -0.23545,-0.05474 -0.445134,0.04404 -0.209684,0.09878 -0.569753,0.119271 -0.800166,0.0455 -0.230375,-0.0737 -0.512971,-0.08974 -0.627983,-0.03559 -0.114993,0.05416 -0.237822,0.03743 -0.272961,-0.03714 -0.0351,-0.07457 -0.15544,-0.09246 -0.267302,-0.03977 -0.111891,0.0527 -0.232173,0.03481 -0.267312,-0.03977 -0.09999,-0.212251 -1.241507,0.38631 -1.320486,0.692378 -0.123374,0.478357 0.464959,1.078289 1.147749,1.170375 0.338377,0.0456 0.672047,0.0562 0.741459,0.02353 0.06942,-0.03267 0.154604,0 0.189305,0.07448 0.03471,0.0737 0.50389,0.278173 1.042645,0.454468 0.871104,0.285047 1.009053,0.383122 1.24599,0.886126 0.151454,0.321469 0.216179,0.673068 0.149947,0.814536 -0.161799,0.34565 -0.351123,0.18495 -0.673049,-0.571269 -0.311832,-0.732533 -0.901954,-1.061478 -1.5958,-0.889577 -0.229266,0.05678 -0.555946,0.05328 -0.725932,-0.0078 -0.169966,-0.06116 -0.360758,-0.09091 -0.423957,-0.06611 -0.0632,0.02479 -0.328663,-0.06184 -0.589927,-0.192348 -0.35723,-0.178455 -0.582713,-0.446126 -0.90952,-1.079515 -0.399426,-0.774099 -0.416004,-0.883015 -0.209956,-1.34492 0.208274,-0.466175 0.249762,-0.495091 0.570258,-0.397599 0.385037,0.117112 1.342402,-0.346097 1.306865,-0.632319 -0.03802,-0.306116 -1.061789,-0.562772 -1.47267,-0.369208 -0.213573,0.100622 -0.413738,0.129032 -0.444784,0.0632 -0.07477,-0.158717 -0.610034,-0.0526 -0.882343,0.174905 -0.276831,0.231318 -0.468732,1.603812 -0.253107,1.810443 0.08994,0.08615 0.07915,0.304279 -0.02411,0.484648 -0.286718,0.501352 -0.37896,1.650988 -0.168342,2.098076 0.103617,0.219923 0.136296,0.544745 0.07263,0.721838 -0.06446,0.179339 0.01118,0.701031 0.170491,1.177444 0.157424,0.470472 0.248099,0.961488 0.201517,1.091104 -0.09964,0.277054 0.155041,0.868012 0.456685,1.059738 0.137209,0.08721 0.175936,0.233087 0.110374,0.415528 -0.144181,0.40104 0.989189,2.749967 1.613458,3.343891 0.256286,0.243811 0.639475,0.700885 0.851561,1.015703 0.514399,0.763598 1.146583,1.151464 2.783365,1.707585 1.363375,0.463247 1.914887,0.51755 2.702753,0.266135 0.228702,-0.07302 0.470268,-0.113126 0.536821,-0.08916 0.0666,0.02392 0.280321,-0.07448 0.474993,-0.218804 0.194711,-0.144249 0.762062,-0.454507 1.260769,-0.689451 z m 2.366535,-3.699574 c -0.159835,-0.05746 -0.183812,-0.477181 -0.03141,-0.549014 0.0666,-0.0314 0.178609,0.06505 0.248887,0.214186 0.124531,0.264327 0.02265,0.421158 -0.217482,0.334828 z m 1.391794,-12.105345 c 0.101945,-0.283568 0.03763,-0.472445 -0.401196,-1.178085 -0.287419,-0.462217 -0.739913,-1.334546 -1.005494,-1.938552 -0.556344,-1.265193 -1.780224,-3.167207 -2.115587,-3.287761 -0.1256,-0.04511 -0.269781,-0.137171 -0.320369,-0.204482 -0.560438,-0.745329 -0.90109,-1.020351 -1.258319,-1.015791 -0.263714,0.0029 -0.538357,-0.152883 -0.789636,-0.449188 -0.693671,-0.818085 -1.203219,-0.153078 -0.926437,1.209169 0.08449,0.415888 0.147671,1.021595 0.140428,1.346 -0.01361,0.611823 0.08051,1.056899 0.511532,2.418864 0.269985,0.852951 0.257481,0.98385 -0.220584,2.313496 -0.167681,0.466301 -0.267331,0.927468 -0.221478,1.024814 0.112708,0.239232 1.075518,0.493359 1.360837,0.359203 0.126155,-0.05931 0.295868,-0.06456 0.377083,-0.01177 0.08119,0.0528 0.266972,0.03986 0.412757,-0.02878 0.145795,-0.06864 0.396004,-0.121779 0.556053,-0.117997 0.160049,0.0039 0.686573,0.01682 1.170034,0.02878 0.896685,0.02236 1.261712,-0.06106 1.284892,-0.293583 0.0068,-0.07175 -0.494245,-1.096967 -1.114293,-2.2783 -1.050521,-2.001654 -1.167497,-2.172145 -1.718485,-2.504562 -1.123326,-0.677725 -1.672436,-1.090141 -1.536656,-1.154108 0.266379,-0.125503 1.285553,0.244949 1.9176,0.696996 0.593875,0.424755 0.701449,0.585746 1.44318,2.160244 0.662412,1.406049 0.861887,1.726447 1.149519,1.84636 0.302003,0.125873 0.354935,0.218843 0.400175,0.702499 0.04074,0.435596 0.108148,0.583637 0.308314,0.677307 0.331152,0.155003 0.447632,0.09227 0.596169,-0.320855 z m -5.325807,-6.918215 c -0.06787,-0.161059 -0.05095,-0.208322 0.04336,-0.120534 0.08527,0.07944 0.135566,0.198668 0.111716,0.264968 -0.02382,0.06631 -0.09363,0.0019 -0.15507,-0.144434 z m -2.623356,6.418487 c -0.306884,-0.651376 -0.477142,-0.857696 -0.819495,-0.99299 -0.293476,-0.115985 -0.453894,-0.283112 -0.499942,-0.520856 -0.07243,-0.374079 0.940078,-3.559078 1.165183,-3.665126 0.07389,-0.03481 0.101604,-0.229315 0.06164,-0.432271 -0.03996,-0.202965 0.03102,-0.465124 0.157784,-0.582615 0.323296,-0.299757 0.08469,-0.695275 -0.415586,-0.688887 -0.515013,0.0068 -1.197405,0.313203 -1.224367,0.550209 -0.01089,0.09626 -0.317851,0.31543 -0.681974,0.486991 -0.364123,0.171551 -0.671016,0.390695 -0.681964,0.486981 -0.01089,0.09635 -0.138386,0.23091 -0.28316,0.299106 -0.144765,0.06826 -0.234458,0.185037 -0.19932,0.259621 0.0351,0.07457 -0.138201,0.230802 -0.385202,0.347156 -0.261614,0.123257 -0.517239,0.382032 -0.612416,0.619942 -0.08984,0.224599 -0.215401,0.432903 -0.279038,0.462888 -0.06369,0.02995 -0.192805,0.247263 -0.287039,0.482839 -0.09422,0.235577 -0.237638,0.47546 -0.318649,0.533078 -0.431639,0.306923 -0.692417,0.647361 -0.561974,0.807458 0.176189,0.216286 0.228303,0.641118 0.260078,1.255528 0.0087,0.164687 -0.24247,0.18879 -0.207351,0.263374 0.0351,0.07457 -0.06184,0.194857 -0.215508,0.267244 -0.239952,0.113067 -0.239611,0.200651 0.0029,0.62036 0.275498,0.478026 0.295236,0.483442 0.903851,0.24808 0.376976,-0.145805 0.783024,-0.428955 1.030306,-0.718474 0.406739,-0.47617 0.662616,-0.561099 0.622257,-0.206447 -0.01177,0.102713 -0.166593,0.255227 -0.34425,0.338921 -0.458668,0.216102 -0.430889,0.45896 0.07088,0.619583 0.418552,0.133952 1.52532,-0.218095 1.418125,-0.451085 -0.08255,-0.179358 0.551279,-1.129694 0.84597,-1.268518 0.214623,-0.101098 0.297531,-0.06145 0.33932,0.162558 0.03977,0.212834 -0.07866,0.37368 -0.419894,0.570676 -0.382576,0.220816 -0.455139,0.33928 -0.372251,0.607749 0.127156,0.411843 0.52492,0.613564 0.879952,0.446291 0.146933,-0.06923 0.480331,-0.07681 0.740934,-0.01682 0.699077,0.160934 0.787915,-0.179902 0.310831,-1.192572 z m -7.988065,2.985719 c -0.021,-0.26353 0.0029,-0.498493 0.05309,-0.52211 0.05017,-0.02363 0.05688,-0.217258 0.01488,-0.430307 -0.0419,-0.213019 0.03335,-0.828479 0.16705,-1.367682 0.34069,-1.372747 1.370705,-4.236181 1.555071,-4.323035 0.135839,-0.06398 1.278231,-1.367916 1.750181,-1.997668 0.09713,-0.129655 0.326466,-0.30631 0.509519,-0.392553 0.183101,-0.08624 0.341847,-0.235624 0.352795,-0.33193 0.01118,-0.09759 0.612631,-0.454322 1.359223,-0.806028 1.79022,-0.843404 1.936063,-1.009102 1.662101,-1.888703 -0.119514,-0.383686 -0.183568,-0.858241 -0.142363,-1.054585 0.04123,-0.196345 -0.0139,-0.545309 -0.122236,-0.775528 -0.108459,-0.2302 -0.16631,-0.59758 -0.128566,-0.816403 0.03772,-0.218853 -0.04988,-0.734828 -0.194516,-1.146632 -0.144687,-0.411804 -0.285572,-1.025649 -0.313039,-1.364055 -0.02752,-0.338415 -0.141137,-0.713651 -0.252572,-0.833836 -0.219105,-0.236335 -0.581332,-0.153496 -0.548128,0.125309 0.02829,0.237491 -0.991163,0.733923 -1.154848,0.562401 -0.07224,-0.07564 -0.339776,-0.03938 -0.594643,0.0807 -0.254798,0.120058 -0.492056,0.157258 -0.527195,0.08264 -0.0351,-0.07457 -0.216451,-0.06378 -0.402898,0.02411 -0.186485,0.0879 -0.367778,0.09871 -0.402936,0.02411 -0.0351,-0.07457 -0.246962,-0.04939 -0.470725,0.0561 -0.223753,0.105406 -0.435576,0.130627 -0.470695,0.056 -0.0352,-0.07457 -0.127049,-0.105873 -0.20424,-0.06952 -0.0772,0.03636 -1.033826,-0.258649 -2.125854,-0.655576 C 8.9480681,41.240007 8.0018741,40.940084 7.9374404,40.97043 7.8729776,41.000765 7.5336191,40.787824 7.183264,40.497197 6.6865598,40.085179 6.4766423,40.001542 6.2303709,40.117566 c -0.1737094,0.08187 -0.2870881,0.20981 -0.2519301,0.284385 0.0351,0.07458 -0.02771,0.178736 -0.1395334,0.231463 -0.1119009,0.0527 -0.1746525,0.15685 -0.1395334,0.231435 0.035197,0.07457 -0.027613,0.178726 -0.1395431,0.231434 -0.111862,0.0527 -0.1746525,0.15686 -0.1395236,0.231434 0.0351,0.07458 -0.044725,0.186787 -0.1773847,0.249295 -0.1327273,0.06252 -0.2717648,0.277171 -0.3089938,0.476977 -0.037239,0.199835 -0.1132718,0.384784 -0.1689841,0.411036 -0.055712,0.02625 -0.3710551,0.825542 -0.7008268,1.776248 -0.5383085,1.55194 -0.5749639,1.780856 -0.3585029,2.240263 0.2301509,0.488576 0.1537969,0.741255 -0.1618669,0.53581 -0.081283,-0.05289 -0.1998639,-0.07156 -0.2635781,-0.04152 -0.1339525,0.0631 -0.3398544,2.271931 -0.2615364,2.805291 0.028974,0.197287 0.031308,0.592514 0.00486,0.87827 -0.026738,0.29194 0.1111522,0.934526 0.3147692,1.466748 0.2910259,0.760759 0.3252603,1.023968 0.1739719,1.337298 -0.3682452,0.762606 0.5751194,3.099331 1.6506767,4.088685 0.3720469,0.342207 0.771804,0.675858 0.888401,0.74142 0.1165874,0.06563 0.4344777,0.292572 0.7064078,0.504405 0.2719788,0.211842 0.753175,0.469839 1.069354,0.57332 0.316218,0.103471 0.7253967,0.247759 0.9092762,0.320642 0.183899,0.07283 0.4940596,0.05727 0.6892857,-0.03481 0.2469618,-0.116354 0.4504524,-0.08624 0.6690809,0.09905 0.418814,0.354896 0.623112,0.229296 0.576714,-0.354545 z M 9.0312184,57.599812 C 8.6652289,57.449807 8.0268425,57.060774 7.6125982,56.735319 7.1983734,56.409865 6.8021554,56.145713 6.7321408,56.148289 6.6621359,56.151206 6.565218,56.06895 6.516759,55.966092 6.468339,55.863292 6.0031175,55.429796 5.4829811,55.002815 4.5737147,54.256397 3.9867625,53.437048 4.2668113,53.305118 c 0.1875742,-0.08838 1.298795,0.641984 1.4432093,0.948528 0.06563,0.139241 0.3076327,0.336402 0.5378127,0.438114 0.2302189,0.10173 0.4681188,0.290189 0.5287314,0.418804 0.060574,0.128624 0.2320274,0.265328 0.3809822,0.303743 0.1489646,0.03841 0.3948277,0.230764 0.5463397,0.427448 0.151512,0.196675 0.3824504,0.399651 0.5131553,0.451056 0.4392905,0.172824 1.4653484,0.837423 1.7017219,1.102266 0.3678172,0.412144 -0.1115897,0.522771 -0.8875454,0.204735 z M 14.672116,40.366219 c 0.195605,-0.411133 0.409393,-0.772834 0.475061,-0.803773 0.06563,-0.03102 0.154818,-0.369139 0.198046,-0.751502 0.04327,-0.382412 0.228974,-0.881508 0.412747,-1.10917 0.183772,-0.227632 0.379261,-0.604103 0.4344,-0.836636 0.05513,-0.232504 0.193651,-0.584025 0.307788,-0.781167 0.114127,-0.197132 0.33756,-0.672611 0.496471,-1.056617 0.158911,-0.384006 0.495255,-1.130871 0.74737,-1.659709 0.252134,-0.528819 0.4572,-1.01686 0.455703,-1.084512 -0.0019,-0.06767 0.06291,-0.153894 0.142965,-0.191629 0.08012,-0.03773 0.345251,-0.451104 0.58913,-0.918581 0.2439,-0.467458 0.740263,-1.330346 1.103005,-1.917502 0.807536,-1.307089 1.046515,-1.986059 0.786749,-2.235023 -0.233515,-0.223783 -0.707837,0.117977 -1.077638,0.776412 -0.134604,0.239612 -0.28038,0.452465 -0.323958,0.473 -0.0702,0.03306 -0.206368,0.289645 -0.527642,0.994274 -0.05289,0.116062 -0.16386,0.317472 -0.246554,0.447574 -0.08274,0.130083 -0.402722,0.690988 -0.71124,1.246476 -0.308498,0.55546 -0.626816,1.115548 -0.70738,1.244639 -0.174361,0.279417 -0.571454,1.132319 -0.790637,1.698144 -0.296014,0.764132 -1.006816,2.214264 -1.108955,2.262364 -0.13124,0.06184 -0.510764,1.191415 -0.446291,1.328265 0.02693,0.05707 -0.108664,0.283743 -0.301245,0.503724 -0.192552,0.22001 -0.396315,0.55792 -0.452786,0.750919 -0.05649,0.19298 -0.202334,0.397832 -0.324113,0.455207 -0.121779,0.05736 -0.192659,0.165319 -0.157501,0.239903 0.0351,0.07457 -0.0058,0.168226 -0.08994,0.208051 -0.246271,0.116023 -0.456714,1.093078 -0.30493,1.415742 0.129373,0.274964 0.369364,0.308683 0.868839,0.122178 0.108274,-0.04045 0.356898,-0.409918 0.552484,-0.821051 z m -2.443035,32.621759 c -0.06796,-0.161041 -0.05095,-0.208323 0.04336,-0.120525 0.08527,0.07944 0.135576,0.198677 0.111716,0.264958 -0.02382,0.06631 -0.09363,0.0019 -0.155041,-0.144433 z m -2.2531368,-1.72778 c -0.261196,-0.250306 -0.4419254,-0.933787 -0.2858047,-1.08142 0.2117454,-0.200223 0.7575405,0.379631 0.7369085,0.782908 -0.01974,0.386864 -0.220408,0.519611 -0.4511038,0.298512 z M 28.683801,60.596449 c -0.320418,-0.307039 -0.435139,-0.692834 -0.234196,-0.787506 0.233331,-0.109927 0.584259,0.234545 0.611308,0.600058 0.0246,0.332621 -0.140175,0.414517 -0.377112,0.187429 z m 0.03403,-1.355742 c -0.212086,-0.07623 -0.433641,-0.649237 -0.319096,-0.825231 0.169616,-0.260603 0.513272,-0.04229 0.59615,0.378785 0.07594,0.385941 -0.01915,0.539164 -0.277054,0.446446 z m -0.258862,-1.721975 c -0.282733,-0.600117 -0.159757,-1.188974 0.173057,-0.828614 0.251396,0.272251 0.391104,1.068838 0.216656,1.235333 -0.09071,0.08653 -0.221828,-0.05036 -0.389713,-0.406719 z m 0.0049,-1.635878 c -0.204541,-0.07351 -2.241771,-4.469998 -2.101878,-4.53589 0.232358,-0.10947 0.49404,0.307545 1.390949,2.216744 0.842422,1.793108 1.039894,2.437396 0.710929,2.319146 z M 9.4938535,37.312226 c -0.4193488,-0.01954 -0.8110651,-0.08605 -0.8704915,-0.147632 -0.062907,-0.06534 0.2351971,-0.273739 0.7143514,-0.499475 0.7590086,-0.357589 0.8408266,-0.36495 1.0616536,-0.09528 0.26947,0.329072 0.280895,0.633729 0.02703,0.720117 -0.09353,0.03179 -0.5132044,0.04191 -0.9325629,0.02227 z"
       id="path94"
       sodipodi:nodetypes="cssscssssssssscsccsssssscssssssssscsccscssssssssssscsssssscsssscsscssssssssssscscscscsssssssssssssssssssccsssssssssssccssssccssssccssssssssccsscsscssscsscsssssscssssscssscsssscsssssssssssscsssssscssssscccssssscscssssscsscssssssssssscscscsssssssscsscsssssssscscssssscsssssssscssccsssssssssscssssssssscsssssscssssssssssssccsssscssscssssssssssscscssssssscccsscsssssscssssssssscscssssscsssssssscssssscsssscsscsssssssssssssssssssssssssssssssssssssssssssscsssssssscsssssssssscssssssssssssssssscssscsscsssssssssssssssssssssssssss" />
  </g>
</svg>
