<?xml version="1.0" encoding="UTF-8" standalone="no"?>
<!-- Created with Inkscape (http://www.inkscape.org/) -->

<svg
   width="180"
   height="180"
   viewBox="0 0 180 180"
   version="1.1"
   id="svg5"
   xml:space="preserve"
   inkscape:export-filename="whappblack.png"
   inkscape:export-xdpi="96"
   inkscape:export-ydpi="96"
   inkscape:version="1.2.2 (b0a8486541, 2022-12-01)"
   sodipodi:docname="whappwhite.svg"
   xmlns:inkscape="http://www.inkscape.org/namespaces/inkscape"
   xmlns:sodipodi="http://sodipodi.sourceforge.net/DTD/sodipodi-0.dtd"
   xmlns="http://www.w3.org/2000/svg"
   xmlns:svg="http://www.w3.org/2000/svg"><sodipodi:namedview
     id="namedview7"
     pagecolor="#505050"
     bordercolor="#eeeeee"
     borderopacity="1"
     inkscape:showpageshadow="0"
     inkscape:pageopacity="0"
     inkscape:pagecheckerboard="0"
     inkscape:deskcolor="#505050"
     inkscape:document-units="px"
     showgrid="false"
     inkscape:zoom="1.6416667"
     inkscape:cx="59.086294"
     inkscape:cy="97.766497"
     inkscape:window-width="1366"
     inkscape:window-height="740"
     inkscape:window-x="0"
     inkscape:window-y="961"
     inkscape:window-maximized="1"
     inkscape:current-layer="layer1" /><defs
     id="defs2" /><g
     inkscape:label="Capa 1"
     inkscape:groupmode="layer"
     id="layer1"><path
       style="fill:#f9f9f9;stroke-width:0.36108"
       d="m 26.590588,158.19077 c 0.352182,-2.0641 4.505779,-33.63328 4.574139,-34.76547 0.04425,-0.73298 -0.495445,-2.01726 -1.669128,-3.97188 C 20.183355,103.94507 18.171554,84.313684 24.08386,66.64501 29.357604,50.884657 41.112544,37.219731 56.425226,29.048704 c 26.969006,-14.390982 60.772144,-9.75526 82.603914,11.328204 18.03641,17.418192 24.55633,42.090422 17.34939,65.652442 -6.66955,21.80513 -25.47794,39.40158 -48.29845,45.18629 -6.73147,1.70634 -10.249847,2.12676 -17.924026,2.14182 -7.334134,0.0144 -10.248739,-0.2813 -16.137129,-1.63716 l -3.138246,-0.7226 -21.41519,4.00507 c -11.778351,2.20278 -21.789116,4.08787 -22.246138,4.18905 -0.763876,0.16914 -0.814632,0.0884 -0.628763,-1.00105 z m 27.428415,-13.22335 15.858461,-3.53283 3.361463,0.99938 c 7.524162,2.23697 18.080302,2.78079 26.530761,1.36681 23.940482,-4.00588 42.604452,-21.81148 47.662622,-45.470545 1.17719,-5.506181 1.19098,-15.43092 0.0295,-21.205415 C 144.88743,64.32626 138.11562,52.636335 128.75313,44.828797 114.34566,32.814169 96.470984,28.213168 78.460826,31.883409 56.672067,36.323669 39.361292,52.701456 33.993986,73.95363 c -3.68403,14.587146 -1.51542,29.8451 6.187763,43.53601 l 1.739339,3.09134 -2.144453,13.06798 c -1.179449,7.18739 -2.246293,13.47375 -2.370768,13.96969 -0.158644,0.6321 -0.07965,0.8987 0.264181,0.89164 0.269774,-0.005 7.626802,-1.59981 16.348955,-3.54287 z m -7.734162,-5.95683 c 0,-0.0669 1.299888,-4.73438 2.88864,-10.37213 1.588752,-5.63774 2.888639,-10.40433 2.888639,-10.59243 0,-0.18809 -0.794467,-1.2554 -1.765479,-2.37179 -5.391624,-6.1989 -9.014454,-13.64532 -10.341756,-21.256635 -0.687033,-3.939746 -0.675497,-11.237221 0.02463,-15.585686 1.110686,-6.898342 4.534922,-14.887636 8.847458,-20.642544 4.05361,-5.40939 11.33986,-11.533767 17.337947,-14.573232 7.49116,-3.796053 17.714346,-5.939896 26.056297,-5.464102 20.463403,1.167152 38.104043,14.040231 44.859983,32.73612 2.52306,6.982147 3.39478,16.312687 2.19561,23.500774 -1.64592,9.865845 -5.92718,18.267395 -13.04844,25.606215 -7.21968,7.44022 -15.30902,11.86127 -25.89197,14.15068 -2.996471,0.64822 -4.855888,0.7975 -9.999818,0.8028 -7.11755,0.008 -10.468791,-0.49982 -16.233558,-2.45668 l -3.465927,-1.17651 -11.905325,3.8902 c -11.680528,3.81676 -12.446928,4.05104 -12.446928,3.80495 z M 112.36247,114.1398 c 2.53489,-1.16035 5.44943,-3.33824 6.47987,-4.84206 1.09501,-1.59807 2.16573,-5.18784 2.27571,-7.62972 l 0.0909,-2.018035 -7.40214,-2.99007 c -4.07118,-1.64453 -7.64586,-2.99416 -7.94376,-2.999183 -0.29789,-0.0055 -0.97399,0.596733 -1.50243,1.337223 -0.52844,0.74049 -2.13385,2.61387 -3.56758,4.16307 -3.031648,3.275805 -2.914816,3.261015 -7.748327,0.981275 -5.4347,-2.563295 -10.673457,-6.861192 -14.676256,-12.040455 -1.396065,-1.806379 -2.856446,-3.907951 -3.245289,-4.670144 l -0.706991,-1.385815 2.298454,-2.599952 c 1.264153,-1.429975 2.646547,-3.103871 3.071993,-3.719765 l 0.773524,-1.119814 -3.123984,-7.816914 -3.123988,-7.816913 H 70.64269 c -4.333478,0 -5.069042,0.355433 -7.831335,3.784227 -2.723312,3.380401 -3.33787,5.314835 -3.328945,10.478425 0.0069,4.019607 0.09086,4.54187 1.160432,7.221605 3.063175,7.674604 12.153733,18.65921 20.831904,25.172285 4.917129,3.69037 11.525519,6.8755 18.611014,8.97022 3.47845,1.02833 9.52047,0.80221 12.27672,-0.45949 z"
       id="path302" /></g></svg>
